<svg xmlns="http://www.w3.org/2000/svg" xmlns:xlink="http://www.w3.org/1999/xlink" width="600" height="400" viewBox="0 0 2400 1600">
<defs>
  <clipPath id="clip580">
    <rect x="0" y="0" width="2400" height="1600"></rect>
  </clipPath>
</defs>
<path clip-path="url(#clip580)" d="M0 1600 L2400 1600 L2400 0 L0 0  Z" fill="#ffffff" fill-rule="evenodd" fill-opacity="1"></path>
<defs>
  <clipPath id="clip581">
    <rect x="480" y="0" width="1681" height="1600"></rect>
  </clipPath>
</defs>
<path clip-path="url(#clip580)" d="M361.865 1360.19 L2352.76 1360.19 L2352.76 246.944 L361.865 246.944  Z" fill="#ffffff" fill-rule="evenodd" fill-opacity="1"></path>
<defs>
  <clipPath id="clip582">
    <rect x="361" y="246" width="1992" height="1114"></rect>
  </clipPath>
</defs>
<polyline clip-path="url(#clip582)" style="stroke:#000000; stroke-linecap:round; stroke-linejoin:round; stroke-width:2; stroke-opacity:0.1; fill:none" points="361.865,1360.19 361.865,246.944 "></polyline>
<polyline clip-path="url(#clip582)" style="stroke:#000000; stroke-linecap:round; stroke-linejoin:round; stroke-width:2; stroke-opacity:0.1; fill:none" points="853.443,1360.19 853.443,246.944 "></polyline>
<polyline clip-path="url(#clip582)" style="stroke:#000000; stroke-linecap:round; stroke-linejoin:round; stroke-width:2; stroke-opacity:0.1; fill:none" points="1345.02,1360.19 1345.02,246.944 "></polyline>
<polyline clip-path="url(#clip582)" style="stroke:#000000; stroke-linecap:round; stroke-linejoin:round; stroke-width:2; stroke-opacity:0.1; fill:none" points="1836.6,1360.19 1836.6,246.944 "></polyline>
<polyline clip-path="url(#clip582)" style="stroke:#000000; stroke-linecap:round; stroke-linejoin:round; stroke-width:2; stroke-opacity:0.1; fill:none" points="2328.18,1360.19 2328.18,246.944 "></polyline>
<polyline clip-path="url(#clip580)" style="stroke:#000000; stroke-linecap:round; stroke-linejoin:round; stroke-width:4; stroke-opacity:1; fill:none" points="361.865,1360.19 2352.76,1360.19 "></polyline>
<polyline clip-path="url(#clip580)" style="stroke:#000000; stroke-linecap:round; stroke-linejoin:round; stroke-width:4; stroke-opacity:1; fill:none" points="361.865,1360.19 361.865,1341.29 "></polyline>
<polyline clip-path="url(#clip580)" style="stroke:#000000; stroke-linecap:round; stroke-linejoin:round; stroke-width:4; stroke-opacity:1; fill:none" points="853.443,1360.19 853.443,1341.29 "></polyline>
<polyline clip-path="url(#clip580)" style="stroke:#000000; stroke-linecap:round; stroke-linejoin:round; stroke-width:4; stroke-opacity:1; fill:none" points="1345.02,1360.19 1345.02,1341.29 "></polyline>
<polyline clip-path="url(#clip580)" style="stroke:#000000; stroke-linecap:round; stroke-linejoin:round; stroke-width:4; stroke-opacity:1; fill:none" points="1836.6,1360.19 1836.6,1341.29 "></polyline>
<polyline clip-path="url(#clip580)" style="stroke:#000000; stroke-linecap:round; stroke-linejoin:round; stroke-width:4; stroke-opacity:1; fill:none" points="2328.18,1360.19 2328.18,1341.29 "></polyline>
<path clip-path="url(#clip580)" d="M350.689 1405.51 Q350.689 1399.6 352.474 1395.34 Q354.258 1391.06 357.214 1388.97 Q359.508 1387.31 361.955 1387.31 Q365.931 1387.31 369.091 1391.37 Q373.041 1396.39 373.041 1404.98 Q373.041 1410.99 371.308 1415.2 Q369.575 1419.4 366.874 1421.31 Q364.197 1423.2 361.7 1423.2 Q356.755 1423.2 353.468 1417.36 Q350.689 1412.44 350.689 1405.51 M355.685 1406.15 Q355.685 1413.29 357.443 1417.8 Q358.896 1421.59 361.776 1421.59 Q363.152 1421.59 364.631 1420.37 Q366.109 1419.12 366.874 1416.22 Q368.046 1411.83 368.046 1403.85 Q368.046 1397.94 366.823 1393.99 Q365.905 1391.06 364.452 1389.84 Q363.407 1389 361.929 1389 Q360.196 1389 358.845 1390.55 Q357.01 1392.67 356.348 1397.2 Q355.685 1401.74 355.685 1406.15 Z" fill="#000000" fill-rule="nonzero" fill-opacity="1"></path><path clip-path="url(#clip580)" d="M846.638 1391.42 L855.049 1387.31 L855.89 1387.31 L855.89 1416.5 Q855.89 1419.4 856.119 1420.12 Q856.374 1420.83 857.139 1421.21 Q857.903 1421.59 860.248 1421.64 L860.248 1422.59 L847.25 1422.59 L847.25 1421.64 Q849.697 1421.59 850.41 1421.24 Q851.124 1420.85 851.404 1420.24 Q851.685 1419.61 851.685 1416.5 L851.685 1397.84 Q851.685 1394.07 851.43 1393 Q851.251 1392.18 850.767 1391.8 Q850.308 1391.42 849.646 1391.42 Q848.703 1391.42 847.021 1392.21 L846.638 1391.42 Z" fill="#000000" fill-rule="nonzero" fill-opacity="1"></path><path clip-path="url(#clip580)" d="M1356.43 1415.94 L1354.01 1422.59 L1333.62 1422.59 L1333.62 1421.64 Q1342.61 1413.44 1346.28 1408.24 Q1349.95 1403.04 1349.95 1398.73 Q1349.95 1395.44 1347.94 1393.33 Q1345.93 1391.21 1343.12 1391.21 Q1340.57 1391.21 1338.53 1392.72 Q1336.52 1394.2 1335.55 1397.08 L1334.61 1397.08 Q1335.25 1392.36 1337.87 1389.84 Q1340.52 1387.31 1344.47 1387.31 Q1348.68 1387.31 1351.48 1390.02 Q1354.31 1392.72 1354.31 1396.39 Q1354.31 1399.01 1353.09 1401.64 Q1351.2 1405.77 1346.97 1410.38 Q1340.62 1417.31 1339.04 1418.74 L1348.07 1418.74 Q1350.82 1418.74 1351.92 1418.54 Q1353.04 1418.33 1353.93 1417.72 Q1354.82 1417.08 1355.48 1415.94 L1356.43 1415.94 Z" fill="#000000" fill-rule="nonzero" fill-opacity="1"></path><path clip-path="url(#clip580)" d="M1827.31 1394.6 Q1828.79 1391.11 1831.03 1389.23 Q1833.3 1387.31 1836.66 1387.31 Q1840.82 1387.31 1843.03 1390.02 Q1844.72 1392.03 1844.72 1394.32 Q1844.72 1398.09 1839.98 1402.12 Q1843.16 1403.37 1844.79 1405.69 Q1846.42 1408.01 1846.42 1411.14 Q1846.42 1415.63 1843.57 1418.92 Q1839.85 1423.2 1832.79 1423.2 Q1829.3 1423.2 1828.02 1422.33 Q1826.77 1421.47 1826.77 1420.47 Q1826.77 1419.73 1827.36 1419.17 Q1827.97 1418.61 1828.81 1418.61 Q1829.45 1418.61 1830.11 1418.82 Q1830.55 1418.94 1832.08 1419.76 Q1833.6 1420.55 1834.19 1420.7 Q1835.13 1420.98 1836.2 1420.98 Q1838.8 1420.98 1840.72 1418.97 Q1842.65 1416.96 1842.65 1414.2 Q1842.65 1412.19 1841.76 1410.28 Q1841.1 1408.85 1840.31 1408.11 Q1839.21 1407.09 1837.3 1406.28 Q1835.39 1405.44 1833.4 1405.44 L1832.58 1405.44 L1832.58 1404.67 Q1834.6 1404.42 1836.61 1403.22 Q1838.65 1402.02 1839.57 1400.34 Q1840.49 1398.66 1840.49 1396.64 Q1840.49 1394.02 1838.83 1392.41 Q1837.2 1390.78 1834.75 1390.78 Q1830.8 1390.78 1828.15 1395.01 L1827.31 1394.6 Z" fill="#000000" fill-rule="nonzero" fill-opacity="1"></path><path clip-path="url(#clip580)" d="M2339.91 1409.84 L2339.91 1413.46 L2335.28 1413.46 L2335.28 1422.59 L2331.07 1422.59 L2331.07 1413.46 L2316.44 1413.46 L2316.44 1410.2 L2332.47 1387.31 L2335.28 1387.31 L2335.28 1409.84 L2339.91 1409.84 M2331.07 1409.84 L2331.07 1392.69 L2318.94 1409.84 L2331.07 1409.84 Z" fill="#000000" fill-rule="nonzero" fill-opacity="1"></path><path clip-path="url(#clip580)" d="M1273.94 1457.53 L1274.47 1468.68 L1273.13 1468.68 Q1272.75 1465.73 1272.08 1464.47 Q1271 1462.44 1269.17 1461.49 Q1267.39 1460.51 1264.44 1460.51 L1257.75 1460.51 L1257.75 1496.82 Q1257.75 1501.2 1258.7 1502.28 Q1260.03 1503.76 1262.8 1503.76 L1264.44 1503.76 L1264.44 1505.05 L1244.29 1505.05 L1244.29 1503.76 L1245.98 1503.76 Q1248.99 1503.76 1250.25 1501.93 Q1251.02 1500.81 1251.02 1496.82 L1251.02 1460.51 L1245.31 1460.51 Q1241.98 1460.51 1240.58 1461 Q1238.76 1461.67 1237.46 1463.56 Q1236.16 1465.45 1235.92 1468.68 L1234.59 1468.68 L1235.15 1457.53 L1273.94 1457.53 Z" fill="#000000" fill-rule="nonzero" fill-opacity="1"></path><path clip-path="url(#clip580)" d="M1284.14 1455.22 Q1285.61 1455.22 1286.63 1456.27 Q1287.68 1457.29 1287.68 1458.76 Q1287.68 1460.23 1286.63 1461.28 Q1285.61 1462.33 1284.14 1462.33 Q1282.67 1462.33 1281.62 1461.28 Q1280.56 1460.23 1280.56 1458.76 Q1280.56 1457.29 1281.58 1456.27 Q1282.63 1455.22 1284.14 1455.22 M1287.05 1472 L1287.05 1497.8 Q1287.05 1500.81 1287.47 1501.83 Q1287.92 1502.81 1288.76 1503.3 Q1289.64 1503.79 1291.92 1503.79 L1291.92 1505.05 L1276.32 1505.05 L1276.32 1503.79 Q1278.67 1503.79 1279.48 1503.33 Q1280.28 1502.88 1280.74 1501.83 Q1281.23 1500.78 1281.23 1497.8 L1281.23 1485.43 Q1281.23 1480.21 1280.91 1478.66 Q1280.67 1477.54 1280.14 1477.12 Q1279.62 1476.67 1278.71 1476.67 Q1277.73 1476.67 1276.32 1477.19 L1275.83 1475.93 L1285.5 1472 L1287.05 1472 Z" fill="#000000" fill-rule="nonzero" fill-opacity="1"></path><path clip-path="url(#clip580)" d="M1305.45 1478.84 Q1308.95 1475.33 1309.58 1474.81 Q1311.16 1473.48 1312.98 1472.74 Q1314.8 1472 1316.59 1472 Q1319.6 1472 1321.78 1473.76 Q1323.95 1475.51 1324.68 1478.84 Q1328.29 1474.63 1330.78 1473.34 Q1333.27 1472 1335.9 1472 Q1338.46 1472 1340.42 1473.34 Q1342.42 1474.63 1343.57 1477.61 Q1344.34 1479.64 1344.34 1483.99 L1344.34 1497.8 Q1344.34 1500.81 1344.8 1501.93 Q1345.15 1502.7 1346.1 1503.26 Q1347.04 1503.79 1349.18 1503.79 L1349.18 1505.05 L1333.34 1505.05 L1333.34 1503.79 L1334.01 1503.79 Q1336.07 1503.79 1337.23 1502.98 Q1338.04 1502.42 1338.39 1501.2 Q1338.53 1500.6 1338.53 1497.8 L1338.53 1483.99 Q1338.53 1480.07 1337.58 1478.45 Q1336.21 1476.21 1333.2 1476.21 Q1331.34 1476.21 1329.45 1477.16 Q1327.59 1478.07 1324.93 1480.59 L1324.86 1480.98 L1324.93 1482.48 L1324.93 1497.8 Q1324.93 1501.09 1325.28 1501.9 Q1325.67 1502.7 1326.68 1503.26 Q1327.7 1503.79 1330.15 1503.79 L1330.15 1505.05 L1313.93 1505.05 L1313.93 1503.79 Q1316.59 1503.79 1317.57 1503.16 Q1318.59 1502.53 1318.97 1501.27 Q1319.15 1500.67 1319.15 1497.8 L1319.15 1483.99 Q1319.15 1480.07 1317.99 1478.35 Q1316.45 1476.11 1313.68 1476.11 Q1311.79 1476.11 1309.93 1477.12 Q1307.02 1478.66 1305.45 1480.59 L1305.45 1497.8 Q1305.45 1500.95 1305.87 1501.9 Q1306.32 1502.84 1307.16 1503.33 Q1308.04 1503.79 1310.67 1503.79 L1310.67 1505.05 L1294.79 1505.05 L1294.79 1503.79 Q1297 1503.79 1297.88 1503.33 Q1298.75 1502.84 1299.21 1501.83 Q1299.66 1500.78 1299.66 1497.8 L1299.66 1485.53 Q1299.66 1480.24 1299.35 1478.7 Q1299.1 1477.54 1298.58 1477.12 Q1298.05 1476.67 1297.14 1476.67 Q1296.16 1476.67 1294.79 1477.19 L1294.27 1475.93 L1303.94 1472 L1305.45 1472 L1305.45 1478.84 Z" fill="#000000" fill-rule="nonzero" fill-opacity="1"></path><path clip-path="url(#clip580)" d="M1357.14 1485.04 Q1357.1 1492.19 1360.6 1496.26 Q1364.11 1500.32 1368.84 1500.32 Q1371.99 1500.32 1374.31 1498.6 Q1376.66 1496.85 1378.23 1492.65 L1379.32 1493.35 Q1378.58 1498.15 1375.04 1502.11 Q1371.5 1506.03 1366.18 1506.03 Q1360.39 1506.03 1356.26 1501.55 Q1352.16 1497.03 1352.16 1489.42 Q1352.16 1481.19 1356.36 1476.6 Q1360.6 1471.97 1366.98 1471.97 Q1372.38 1471.97 1375.85 1475.54 Q1379.32 1479.08 1379.32 1485.04 L1357.14 1485.04 M1357.14 1483.01 L1371.99 1483.01 Q1371.82 1479.92 1371.26 1478.66 Q1370.38 1476.7 1368.63 1475.58 Q1366.91 1474.46 1365.02 1474.46 Q1362.11 1474.46 1359.8 1476.74 Q1357.52 1478.98 1357.14 1483.01 Z" fill="#000000" fill-rule="nonzero" fill-opacity="1"></path><path clip-path="url(#clip580)" d="M1421.58 1519.1 L1421.58 1520.4 Q1416.29 1517.74 1412.75 1514.16 Q1407.7 1509.08 1404.97 1502.18 Q1402.24 1495.27 1402.24 1487.84 Q1402.24 1476.98 1407.6 1468.04 Q1412.96 1459.07 1421.58 1455.22 L1421.58 1456.69 Q1417.27 1459.07 1414.5 1463.21 Q1411.73 1467.34 1410.37 1473.69 Q1409 1480.03 1409 1486.93 Q1409 1494.43 1410.16 1500.57 Q1411.07 1505.4 1412.37 1508.31 Q1413.66 1511.25 1415.83 1513.95 Q1418.04 1516.65 1421.58 1519.1 Z" fill="#000000" fill-rule="nonzero" fill-opacity="1"></path><path clip-path="url(#clip580)" d="M1434.86 1455.22 L1434.86 1478.7 Q1438.75 1474.42 1441.03 1473.23 Q1443.31 1472 1445.59 1472 Q1448.32 1472 1450.28 1473.51 Q1452.25 1475.02 1453.19 1478.24 Q1453.86 1480.49 1453.86 1486.44 L1453.86 1497.8 Q1453.86 1500.85 1454.35 1501.97 Q1454.7 1502.81 1455.54 1503.3 Q1456.38 1503.79 1458.62 1503.79 L1458.62 1505.05 L1442.85 1505.05 L1442.85 1503.79 L1443.59 1503.79 Q1445.83 1503.79 1446.71 1503.12 Q1447.58 1502.42 1447.94 1501.09 Q1448.04 1500.53 1448.04 1497.8 L1448.04 1486.44 Q1448.04 1481.19 1447.48 1479.54 Q1446.95 1477.89 1445.76 1477.09 Q1444.57 1476.25 1442.89 1476.25 Q1441.17 1476.25 1439.31 1477.16 Q1437.46 1478.07 1434.86 1480.84 L1434.86 1497.8 Q1434.86 1501.09 1435.21 1501.9 Q1435.6 1502.7 1436.58 1503.26 Q1437.6 1503.79 1440.05 1503.79 L1440.05 1505.05 L1424.14 1505.05 L1424.14 1503.79 Q1426.28 1503.79 1427.5 1503.12 Q1428.21 1502.77 1428.63 1501.79 Q1429.05 1500.81 1429.05 1497.8 L1429.05 1468.75 Q1429.05 1463.24 1428.77 1461.98 Q1428.52 1460.72 1427.96 1460.27 Q1427.43 1459.81 1426.52 1459.81 Q1425.79 1459.81 1424.14 1460.37 L1423.65 1459.14 L1433.25 1455.22 L1434.86 1455.22 Z" fill="#000000" fill-rule="nonzero" fill-opacity="1"></path><path clip-path="url(#clip580)" d="M1460.69 1456.69 L1460.69 1455.22 Q1466.02 1457.85 1469.56 1461.42 Q1474.57 1466.54 1477.3 1473.44 Q1480.04 1480.31 1480.04 1487.77 Q1480.04 1498.64 1474.67 1507.57 Q1469.35 1516.55 1460.69 1520.4 L1460.69 1519.1 Q1465 1516.69 1467.77 1512.55 Q1470.57 1508.45 1471.91 1502.11 Q1473.27 1495.73 1473.27 1488.83 Q1473.27 1481.36 1472.12 1475.19 Q1471.24 1470.36 1469.91 1467.45 Q1468.61 1464.54 1466.44 1461.84 Q1464.27 1459.14 1460.69 1456.69 Z" fill="#000000" fill-rule="nonzero" fill-opacity="1"></path><polyline clip-path="url(#clip582)" style="stroke:#000000; stroke-linecap:round; stroke-linejoin:round; stroke-width:2; stroke-opacity:0.1; fill:none" points="361.865,1317.48 2352.76,1317.48 "></polyline>
<polyline clip-path="url(#clip582)" style="stroke:#000000; stroke-linecap:round; stroke-linejoin:round; stroke-width:2; stroke-opacity:0.1; fill:none" points="361.865,1089.42 2352.76,1089.42 "></polyline>
<polyline clip-path="url(#clip582)" style="stroke:#000000; stroke-linecap:round; stroke-linejoin:round; stroke-width:2; stroke-opacity:0.1; fill:none" points="361.865,861.364 2352.76,861.364 "></polyline>
<polyline clip-path="url(#clip582)" style="stroke:#000000; stroke-linecap:round; stroke-linejoin:round; stroke-width:2; stroke-opacity:0.1; fill:none" points="361.865,633.307 2352.76,633.307 "></polyline>
<polyline clip-path="url(#clip582)" style="stroke:#000000; stroke-linecap:round; stroke-linejoin:round; stroke-width:2; stroke-opacity:0.1; fill:none" points="361.865,405.251 2352.76,405.251 "></polyline>
<polyline clip-path="url(#clip580)" style="stroke:#000000; stroke-linecap:round; stroke-linejoin:round; stroke-width:4; stroke-opacity:1; fill:none" points="361.865,1360.19 361.865,246.944 "></polyline>
<polyline clip-path="url(#clip580)" style="stroke:#000000; stroke-linecap:round; stroke-linejoin:round; stroke-width:4; stroke-opacity:1; fill:none" points="361.865,1317.48 380.763,1317.48 "></polyline>
<polyline clip-path="url(#clip580)" style="stroke:#000000; stroke-linecap:round; stroke-linejoin:round; stroke-width:4; stroke-opacity:1; fill:none" points="361.865,1089.42 380.763,1089.42 "></polyline>
<polyline clip-path="url(#clip580)" style="stroke:#000000; stroke-linecap:round; stroke-linejoin:round; stroke-width:4; stroke-opacity:1; fill:none" points="361.865,861.364 380.763,861.364 "></polyline>
<polyline clip-path="url(#clip580)" style="stroke:#000000; stroke-linecap:round; stroke-linejoin:round; stroke-width:4; stroke-opacity:1; fill:none" points="361.865,633.307 380.763,633.307 "></polyline>
<polyline clip-path="url(#clip580)" style="stroke:#000000; stroke-linecap:round; stroke-linejoin:round; stroke-width:4; stroke-opacity:1; fill:none" points="361.865,405.251 380.763,405.251 "></polyline>
<path clip-path="url(#clip580)" d="M177.252 1303.59 L185.663 1299.48 L186.504 1299.48 L186.504 1328.67 Q186.504 1331.57 186.733 1332.29 Q186.988 1333 187.753 1333.38 Q188.517 1333.76 190.862 1333.81 L190.862 1334.76 L177.864 1334.76 L177.864 1333.81 Q180.311 1333.76 181.024 1333.41 Q181.738 1333.02 182.018 1332.41 Q182.299 1331.78 182.299 1328.67 L182.299 1310.01 Q182.299 1306.24 182.044 1305.17 Q181.865 1304.35 181.381 1303.97 Q180.922 1303.59 180.26 1303.59 Q179.317 1303.59 177.635 1304.38 L177.252 1303.59 Z" fill="#000000" fill-rule="nonzero" fill-opacity="1"></path><path clip-path="url(#clip580)" d="M221.166 1328.11 L218.745 1334.76 L198.355 1334.76 L198.355 1333.81 Q207.352 1325.61 211.022 1320.41 Q214.692 1315.21 214.692 1310.9 Q214.692 1307.61 212.679 1305.5 Q210.665 1303.38 207.862 1303.38 Q205.313 1303.38 203.274 1304.89 Q201.261 1306.37 200.292 1309.25 L199.349 1309.25 Q199.986 1304.53 202.612 1302.01 Q205.262 1299.48 209.213 1299.48 Q213.418 1299.48 216.221 1302.19 Q219.051 1304.89 219.051 1308.56 Q219.051 1311.18 217.827 1313.81 Q215.941 1317.94 211.71 1322.55 Q205.364 1329.48 203.784 1330.91 L212.806 1330.91 Q215.559 1330.91 216.655 1330.71 Q217.776 1330.5 218.668 1329.89 Q219.56 1329.25 220.223 1328.11 L221.166 1328.11 Z" fill="#000000" fill-rule="nonzero" fill-opacity="1"></path><path clip-path="url(#clip580)" d="M247.264 1328.11 L244.843 1334.76 L224.454 1334.76 L224.454 1333.81 Q233.451 1325.61 237.121 1320.41 Q240.791 1315.21 240.791 1310.9 Q240.791 1307.61 238.777 1305.5 Q236.764 1303.38 233.96 1303.38 Q231.412 1303.38 229.373 1304.89 Q227.359 1306.37 226.391 1309.25 L225.448 1309.25 Q226.085 1304.53 228.71 1302.01 Q231.361 1299.48 235.311 1299.48 Q239.516 1299.48 242.32 1302.19 Q245.149 1304.89 245.149 1308.56 Q245.149 1311.18 243.926 1313.81 Q242.04 1317.94 237.809 1322.55 Q231.463 1329.48 229.882 1330.91 L238.905 1330.91 Q241.657 1330.91 242.753 1330.71 Q243.875 1330.5 244.767 1329.89 Q245.659 1329.25 246.321 1328.11 L247.264 1328.11 Z" fill="#000000" fill-rule="nonzero" fill-opacity="1"></path><path clip-path="url(#clip580)" d="M272.088 1300.2 L270.1 1304.53 L259.702 1304.53 L257.434 1309.17 Q264.188 1310.16 268.138 1314.19 Q271.528 1317.66 271.528 1322.35 Q271.528 1325.07 270.406 1327.39 Q269.31 1329.71 267.628 1331.34 Q265.946 1332.97 263.882 1333.97 Q260.951 1335.37 257.867 1335.37 Q254.757 1335.37 253.33 1334.32 Q251.928 1333.25 251.928 1331.98 Q251.928 1331.27 252.515 1330.73 Q253.101 1330.17 253.993 1330.17 Q254.655 1330.17 255.14 1330.37 Q255.649 1330.58 256.847 1331.42 Q258.759 1332.74 260.721 1332.74 Q263.703 1332.74 265.946 1330.5 Q268.214 1328.23 268.214 1325 Q268.214 1321.86 266.201 1319.16 Q264.188 1316.43 260.645 1314.95 Q257.867 1313.81 253.075 1313.63 L259.702 1300.2 L272.088 1300.2 Z" fill="#000000" fill-rule="nonzero" fill-opacity="1"></path><path clip-path="url(#clip580)" d="M277.415 1317.68 Q277.415 1311.77 279.199 1307.51 Q280.983 1303.23 283.94 1301.14 Q286.234 1299.48 288.68 1299.48 Q292.656 1299.48 295.817 1303.54 Q299.767 1308.56 299.767 1317.15 Q299.767 1323.16 298.034 1327.37 Q296.301 1331.57 293.599 1333.48 Q290.923 1335.37 288.425 1335.37 Q283.481 1335.37 280.193 1329.53 Q277.415 1324.61 277.415 1317.68 M282.411 1318.32 Q282.411 1325.46 284.169 1329.97 Q285.622 1333.76 288.502 1333.76 Q289.878 1333.76 291.356 1332.54 Q292.835 1331.29 293.599 1328.39 Q294.772 1324 294.772 1316.03 Q294.772 1310.11 293.548 1306.16 Q292.631 1303.23 291.178 1302.01 Q290.133 1301.17 288.655 1301.17 Q286.922 1301.17 285.571 1302.72 Q283.736 1304.84 283.073 1309.37 Q282.411 1313.91 282.411 1318.32 Z" fill="#000000" fill-rule="nonzero" fill-opacity="1"></path><path clip-path="url(#clip580)" d="M303.514 1317.68 Q303.514 1311.77 305.298 1307.51 Q307.082 1303.23 310.038 1301.14 Q312.332 1299.48 314.779 1299.48 Q318.755 1299.48 321.915 1303.54 Q325.865 1308.56 325.865 1317.15 Q325.865 1323.16 324.132 1327.37 Q322.399 1331.57 319.698 1333.48 Q317.021 1335.37 314.524 1335.37 Q309.579 1335.37 306.292 1329.53 Q303.514 1324.61 303.514 1317.68 M308.509 1318.32 Q308.509 1325.46 310.268 1329.97 Q311.72 1333.76 314.6 1333.76 Q315.977 1333.76 317.455 1332.54 Q318.933 1331.29 319.698 1328.39 Q320.87 1324 320.87 1316.03 Q320.87 1310.11 319.647 1306.16 Q318.729 1303.23 317.276 1302.01 Q316.231 1301.17 314.753 1301.17 Q313.02 1301.17 311.669 1302.72 Q309.834 1304.84 309.172 1309.37 Q308.509 1313.91 308.509 1318.32 Z" fill="#000000" fill-rule="nonzero" fill-opacity="1"></path><path clip-path="url(#clip580)" d="M177.252 1075.53 L185.663 1071.43 L186.504 1071.43 L186.504 1100.61 Q186.504 1103.52 186.733 1104.23 Q186.988 1104.94 187.753 1105.32 Q188.517 1105.71 190.862 1105.76 L190.862 1106.7 L177.864 1106.7 L177.864 1105.76 Q180.311 1105.71 181.024 1105.35 Q181.738 1104.97 182.018 1104.36 Q182.299 1103.72 182.299 1100.61 L182.299 1081.95 Q182.299 1078.18 182.044 1077.11 Q181.865 1076.3 181.381 1075.91 Q180.922 1075.53 180.26 1075.53 Q179.317 1075.53 177.635 1076.32 L177.252 1075.53 Z" fill="#000000" fill-rule="nonzero" fill-opacity="1"></path><path clip-path="url(#clip580)" d="M221.166 1100.05 L218.745 1106.7 L198.355 1106.7 L198.355 1105.76 Q207.352 1097.55 211.022 1092.35 Q214.692 1087.15 214.692 1082.85 Q214.692 1079.56 212.679 1077.44 Q210.665 1075.33 207.862 1075.33 Q205.313 1075.33 203.274 1076.83 Q201.261 1078.31 200.292 1081.19 L199.349 1081.19 Q199.986 1076.47 202.612 1073.95 Q205.262 1071.43 209.213 1071.43 Q213.418 1071.43 216.221 1074.13 Q219.051 1076.83 219.051 1080.5 Q219.051 1083.13 217.827 1085.75 Q215.941 1089.88 211.71 1094.49 Q205.364 1101.43 203.784 1102.85 L212.806 1102.85 Q215.559 1102.85 216.655 1102.65 Q217.776 1102.44 218.668 1101.83 Q219.56 1101.2 220.223 1100.05 L221.166 1100.05 Z" fill="#000000" fill-rule="nonzero" fill-opacity="1"></path><path clip-path="url(#clip580)" d="M245.99 1072.14 L244.002 1076.47 L233.603 1076.47 L231.335 1081.11 Q238.089 1082.11 242.04 1086.13 Q245.429 1089.6 245.429 1094.29 Q245.429 1097.02 244.308 1099.34 Q243.212 1101.65 241.53 1103.29 Q239.848 1104.92 237.783 1105.91 Q234.852 1107.31 231.768 1107.31 Q228.659 1107.31 227.232 1106.27 Q225.83 1105.2 225.83 1103.92 Q225.83 1103.21 226.416 1102.67 Q227.002 1102.11 227.894 1102.11 Q228.557 1102.11 229.041 1102.32 Q229.551 1102.52 230.749 1103.36 Q232.66 1104.69 234.623 1104.69 Q237.605 1104.69 239.848 1102.44 Q242.116 1100.18 242.116 1096.94 Q242.116 1093.8 240.103 1091.1 Q238.089 1088.38 234.546 1086.9 Q231.768 1085.75 226.977 1085.57 L233.603 1072.14 L245.99 1072.14 Z" fill="#000000" fill-rule="nonzero" fill-opacity="1"></path><path clip-path="url(#clip580)" d="M251.317 1089.62 Q251.317 1083.71 253.101 1079.46 Q254.885 1075.17 257.841 1073.08 Q260.135 1071.43 262.582 1071.43 Q266.558 1071.43 269.718 1075.48 Q273.669 1080.5 273.669 1089.09 Q273.669 1095.1 271.935 1099.31 Q270.202 1103.52 267.501 1105.43 Q264.825 1107.31 262.327 1107.31 Q257.383 1107.31 254.095 1101.48 Q251.317 1096.56 251.317 1089.62 M256.312 1090.26 Q256.312 1097.4 258.071 1101.91 Q259.523 1105.71 262.403 1105.71 Q263.78 1105.71 265.258 1104.48 Q266.736 1103.23 267.501 1100.33 Q268.673 1095.95 268.673 1087.97 Q268.673 1082.06 267.45 1078.1 Q266.532 1075.17 265.08 1073.95 Q264.035 1073.11 262.556 1073.11 Q260.823 1073.11 259.472 1074.66 Q257.637 1076.78 256.975 1081.32 Q256.312 1085.85 256.312 1090.26 Z" fill="#000000" fill-rule="nonzero" fill-opacity="1"></path><path clip-path="url(#clip580)" d="M277.415 1089.62 Q277.415 1083.71 279.199 1079.46 Q280.983 1075.17 283.94 1073.08 Q286.234 1071.43 288.68 1071.43 Q292.656 1071.43 295.817 1075.48 Q299.767 1080.5 299.767 1089.09 Q299.767 1095.1 298.034 1099.31 Q296.301 1103.52 293.599 1105.43 Q290.923 1107.31 288.425 1107.31 Q283.481 1107.31 280.193 1101.48 Q277.415 1096.56 277.415 1089.62 M282.411 1090.26 Q282.411 1097.4 284.169 1101.91 Q285.622 1105.71 288.502 1105.71 Q289.878 1105.71 291.356 1104.48 Q292.835 1103.23 293.599 1100.33 Q294.772 1095.95 294.772 1087.97 Q294.772 1082.06 293.548 1078.1 Q292.631 1075.17 291.178 1073.95 Q290.133 1073.11 288.655 1073.11 Q286.922 1073.11 285.571 1074.66 Q283.736 1076.78 283.073 1081.32 Q282.411 1085.85 282.411 1090.26 Z" fill="#000000" fill-rule="nonzero" fill-opacity="1"></path><path clip-path="url(#clip580)" d="M303.514 1089.62 Q303.514 1083.71 305.298 1079.46 Q307.082 1075.17 310.038 1073.08 Q312.332 1071.43 314.779 1071.43 Q318.755 1071.43 321.915 1075.48 Q325.865 1080.5 325.865 1089.09 Q325.865 1095.1 324.132 1099.31 Q322.399 1103.52 319.698 1105.43 Q317.021 1107.31 314.524 1107.31 Q309.579 1107.31 306.292 1101.48 Q303.514 1096.56 303.514 1089.62 M308.509 1090.26 Q308.509 1097.4 310.268 1101.91 Q311.72 1105.71 314.6 1105.71 Q315.977 1105.71 317.455 1104.48 Q318.933 1103.23 319.698 1100.33 Q320.87 1095.95 320.87 1087.97 Q320.87 1082.06 319.647 1078.1 Q318.729 1075.17 317.276 1073.95 Q316.231 1073.11 314.753 1073.11 Q313.02 1073.11 311.669 1074.66 Q309.834 1076.78 309.172 1081.32 Q308.509 1085.85 308.509 1090.26 Z" fill="#000000" fill-rule="nonzero" fill-opacity="1"></path><path clip-path="url(#clip580)" d="M177.252 847.474 L185.663 843.371 L186.504 843.371 L186.504 872.553 Q186.504 875.458 186.733 876.172 Q186.988 876.886 187.753 877.268 Q188.517 877.65 190.862 877.701 L190.862 878.644 L177.864 878.644 L177.864 877.701 Q180.311 877.65 181.024 877.293 Q181.738 876.911 182.018 876.299 Q182.299 875.662 182.299 872.553 L182.299 853.897 Q182.299 850.125 182.044 849.054 Q181.865 848.239 181.381 847.856 Q180.922 847.474 180.26 847.474 Q179.317 847.474 177.635 848.264 L177.252 847.474 Z" fill="#000000" fill-rule="nonzero" fill-opacity="1"></path><path clip-path="url(#clip580)" d="M221.166 871.992 L218.745 878.644 L198.355 878.644 L198.355 877.701 Q207.352 869.495 211.022 864.295 Q214.692 859.096 214.692 854.789 Q214.692 851.501 212.679 849.385 Q210.665 847.27 207.862 847.27 Q205.313 847.27 203.274 848.774 Q201.261 850.252 200.292 853.132 L199.349 853.132 Q199.986 848.417 202.612 845.894 Q205.262 843.371 209.213 843.371 Q213.418 843.371 216.221 846.072 Q219.051 848.774 219.051 852.444 Q219.051 855.069 217.827 857.694 Q215.941 861.823 211.71 866.436 Q205.364 873.368 203.784 874.796 L212.806 874.796 Q215.559 874.796 216.655 874.592 Q217.776 874.388 218.668 873.776 Q219.56 873.139 220.223 871.992 L221.166 871.992 Z" fill="#000000" fill-rule="nonzero" fill-opacity="1"></path><path clip-path="url(#clip580)" d="M228.583 844.084 L247.111 844.084 L247.111 845.053 L235.591 879.358 L232.737 879.358 L243.059 848.239 L233.552 848.239 Q230.672 848.239 229.449 848.927 Q227.308 850.099 226.008 852.546 L225.269 852.265 L228.583 844.084 Z" fill="#000000" fill-rule="nonzero" fill-opacity="1"></path><path clip-path="url(#clip580)" d="M272.088 844.084 L270.1 848.417 L259.702 848.417 L257.434 853.056 Q264.188 854.05 268.138 858.076 Q271.528 861.543 271.528 866.232 Q271.528 868.959 270.406 871.279 Q269.31 873.598 267.628 875.229 Q265.946 876.86 263.882 877.854 Q260.951 879.256 257.867 879.256 Q254.757 879.256 253.33 878.211 Q251.928 877.141 251.928 875.866 Q251.928 875.153 252.515 874.617 Q253.101 874.057 253.993 874.057 Q254.655 874.057 255.14 874.261 Q255.649 874.464 256.847 875.305 Q258.759 876.631 260.721 876.631 Q263.703 876.631 265.946 874.388 Q268.214 872.12 268.214 868.883 Q268.214 865.748 266.201 863.046 Q264.188 860.319 260.645 858.841 Q257.867 857.694 253.075 857.516 L259.702 844.084 L272.088 844.084 Z" fill="#000000" fill-rule="nonzero" fill-opacity="1"></path><path clip-path="url(#clip580)" d="M277.415 861.568 Q277.415 855.655 279.199 851.399 Q280.983 847.117 283.94 845.027 Q286.234 843.371 288.68 843.371 Q292.656 843.371 295.817 847.423 Q299.767 852.444 299.767 861.033 Q299.767 867.048 298.034 871.253 Q296.301 875.458 293.599 877.37 Q290.923 879.256 288.425 879.256 Q283.481 879.256 280.193 873.419 Q277.415 868.501 277.415 861.568 M282.411 862.205 Q282.411 869.342 284.169 873.853 Q285.622 877.65 288.502 877.65 Q289.878 877.65 291.356 876.427 Q292.835 875.178 293.599 872.273 Q294.772 867.889 294.772 859.911 Q294.772 853.999 293.548 850.048 Q292.631 847.117 291.178 845.894 Q290.133 845.053 288.655 845.053 Q286.922 845.053 285.571 846.607 Q283.736 848.723 283.073 853.259 Q282.411 857.796 282.411 862.205 Z" fill="#000000" fill-rule="nonzero" fill-opacity="1"></path><path clip-path="url(#clip580)" d="M303.514 861.568 Q303.514 855.655 305.298 851.399 Q307.082 847.117 310.038 845.027 Q312.332 843.371 314.779 843.371 Q318.755 843.371 321.915 847.423 Q325.865 852.444 325.865 861.033 Q325.865 867.048 324.132 871.253 Q322.399 875.458 319.698 877.37 Q317.021 879.256 314.524 879.256 Q309.579 879.256 306.292 873.419 Q303.514 868.501 303.514 861.568 M308.509 862.205 Q308.509 869.342 310.268 873.853 Q311.72 877.65 314.6 877.65 Q315.977 877.65 317.455 876.427 Q318.933 875.178 319.698 872.273 Q320.87 867.889 320.87 859.911 Q320.87 853.999 319.647 850.048 Q318.729 847.117 317.276 845.894 Q316.231 845.053 314.753 845.053 Q313.02 845.053 311.669 846.607 Q309.834 848.723 309.172 853.259 Q308.509 857.796 308.509 862.205 Z" fill="#000000" fill-rule="nonzero" fill-opacity="1"></path><path clip-path="url(#clip580)" d="M177.252 619.417 L185.663 615.314 L186.504 615.314 L186.504 644.496 Q186.504 647.402 186.733 648.115 Q186.988 648.829 187.753 649.211 Q188.517 649.593 190.862 649.644 L190.862 650.587 L177.864 650.587 L177.864 649.644 Q180.311 649.593 181.024 649.237 Q181.738 648.854 182.018 648.243 Q182.299 647.606 182.299 644.496 L182.299 625.84 Q182.299 622.068 182.044 620.997 Q181.865 620.182 181.381 619.8 Q180.922 619.417 180.26 619.417 Q179.317 619.417 177.635 620.207 L177.252 619.417 Z" fill="#000000" fill-rule="nonzero" fill-opacity="1"></path><path clip-path="url(#clip580)" d="M199.884 622.603 Q201.363 619.111 203.606 617.225 Q205.874 615.314 209.238 615.314 Q213.392 615.314 215.61 618.015 Q217.292 620.029 217.292 622.323 Q217.292 626.095 212.551 630.122 Q215.737 631.37 217.368 633.69 Q219 636.009 219 639.144 Q219 643.63 216.145 646.917 Q212.424 651.199 205.364 651.199 Q201.872 651.199 200.598 650.333 Q199.349 649.466 199.349 648.472 Q199.349 647.733 199.935 647.172 Q200.547 646.612 201.388 646.612 Q202.025 646.612 202.688 646.815 Q203.121 646.943 204.651 647.758 Q206.18 648.549 206.766 648.701 Q207.709 648.982 208.779 648.982 Q211.379 648.982 213.291 646.968 Q215.228 644.955 215.228 642.202 Q215.228 640.189 214.335 638.277 Q213.673 636.85 212.883 636.111 Q211.787 635.092 209.875 634.276 Q207.964 633.435 205.976 633.435 L205.16 633.435 L205.16 632.67 Q207.174 632.415 209.187 631.218 Q211.226 630.02 212.144 628.338 Q213.061 626.655 213.061 624.642 Q213.061 622.017 211.404 620.411 Q209.773 618.78 207.327 618.78 Q203.376 618.78 200.726 623.011 L199.884 622.603 Z" fill="#000000" fill-rule="nonzero" fill-opacity="1"></path><path clip-path="url(#clip580)" d="M225.218 633.511 Q225.218 627.598 227.002 623.342 Q228.786 619.06 231.743 616.97 Q234.037 615.314 236.483 615.314 Q240.459 615.314 243.62 619.366 Q247.57 624.387 247.57 632.976 Q247.57 638.991 245.837 643.196 Q244.104 647.402 241.402 649.313 Q238.726 651.199 236.229 651.199 Q231.284 651.199 227.996 645.363 Q225.218 640.444 225.218 633.511 M230.214 634.149 Q230.214 641.285 231.972 645.796 Q233.425 649.593 236.305 649.593 Q237.681 649.593 239.16 648.37 Q240.638 647.121 241.402 644.216 Q242.575 639.832 242.575 631.855 Q242.575 625.942 241.351 621.991 Q240.434 619.06 238.981 617.837 Q237.936 616.996 236.458 616.996 Q234.725 616.996 233.374 618.551 Q231.539 620.666 230.876 625.203 Q230.214 629.739 230.214 634.149 Z" fill="#000000" fill-rule="nonzero" fill-opacity="1"></path><path clip-path="url(#clip580)" d="M251.317 633.511 Q251.317 627.598 253.101 623.342 Q254.885 619.06 257.841 616.97 Q260.135 615.314 262.582 615.314 Q266.558 615.314 269.718 619.366 Q273.669 624.387 273.669 632.976 Q273.669 638.991 271.935 643.196 Q270.202 647.402 267.501 649.313 Q264.825 651.199 262.327 651.199 Q257.383 651.199 254.095 645.363 Q251.317 640.444 251.317 633.511 M256.312 634.149 Q256.312 641.285 258.071 645.796 Q259.523 649.593 262.403 649.593 Q263.78 649.593 265.258 648.37 Q266.736 647.121 267.501 644.216 Q268.673 639.832 268.673 631.855 Q268.673 625.942 267.45 621.991 Q266.532 619.06 265.08 617.837 Q264.035 616.996 262.556 616.996 Q260.823 616.996 259.472 618.551 Q257.637 620.666 256.975 625.203 Q256.312 629.739 256.312 634.149 Z" fill="#000000" fill-rule="nonzero" fill-opacity="1"></path><path clip-path="url(#clip580)" d="M277.415 633.511 Q277.415 627.598 279.199 623.342 Q280.983 619.06 283.94 616.97 Q286.234 615.314 288.68 615.314 Q292.656 615.314 295.817 619.366 Q299.767 624.387 299.767 632.976 Q299.767 638.991 298.034 643.196 Q296.301 647.402 293.599 649.313 Q290.923 651.199 288.425 651.199 Q283.481 651.199 280.193 645.363 Q277.415 640.444 277.415 633.511 M282.411 634.149 Q282.411 641.285 284.169 645.796 Q285.622 649.593 288.502 649.593 Q289.878 649.593 291.356 648.37 Q292.835 647.121 293.599 644.216 Q294.772 639.832 294.772 631.855 Q294.772 625.942 293.548 621.991 Q292.631 619.06 291.178 617.837 Q290.133 616.996 288.655 616.996 Q286.922 616.996 285.571 618.551 Q283.736 620.666 283.073 625.203 Q282.411 629.739 282.411 634.149 Z" fill="#000000" fill-rule="nonzero" fill-opacity="1"></path><path clip-path="url(#clip580)" d="M303.514 633.511 Q303.514 627.598 305.298 623.342 Q307.082 619.06 310.038 616.97 Q312.332 615.314 314.779 615.314 Q318.755 615.314 321.915 619.366 Q325.865 624.387 325.865 632.976 Q325.865 638.991 324.132 643.196 Q322.399 647.402 319.698 649.313 Q317.021 651.199 314.524 651.199 Q309.579 651.199 306.292 645.363 Q303.514 640.444 303.514 633.511 M308.509 634.149 Q308.509 641.285 310.268 645.796 Q311.72 649.593 314.6 649.593 Q315.977 649.593 317.455 648.37 Q318.933 647.121 319.698 644.216 Q320.87 639.832 320.87 631.855 Q320.87 625.942 319.647 621.991 Q318.729 619.06 317.276 617.837 Q316.231 616.996 314.753 616.996 Q313.02 616.996 311.669 618.551 Q309.834 620.666 309.172 625.203 Q308.509 629.739 308.509 634.149 Z" fill="#000000" fill-rule="nonzero" fill-opacity="1"></path><path clip-path="url(#clip580)" d="M177.252 391.36 L185.663 387.257 L186.504 387.257 L186.504 416.439 Q186.504 419.345 186.733 420.058 Q186.988 420.772 187.753 421.154 Q188.517 421.537 190.862 421.588 L190.862 422.531 L177.864 422.531 L177.864 421.588 Q180.311 421.537 181.024 421.18 Q181.738 420.798 182.018 420.186 Q182.299 419.549 182.299 416.439 L182.299 397.783 Q182.299 394.011 182.044 392.941 Q181.865 392.125 181.381 391.743 Q180.922 391.36 180.26 391.36 Q179.317 391.36 177.635 392.151 L177.252 391.36 Z" fill="#000000" fill-rule="nonzero" fill-opacity="1"></path><path clip-path="url(#clip580)" d="M199.884 394.546 Q201.363 391.055 203.606 389.169 Q205.874 387.257 209.238 387.257 Q213.392 387.257 215.61 389.959 Q217.292 391.972 217.292 394.266 Q217.292 398.038 212.551 402.065 Q215.737 403.314 217.368 405.633 Q219 407.952 219 411.087 Q219 415.573 216.145 418.861 Q212.424 423.142 205.364 423.142 Q201.872 423.142 200.598 422.276 Q199.349 421.409 199.349 420.415 Q199.349 419.676 199.935 419.115 Q200.547 418.555 201.388 418.555 Q202.025 418.555 202.688 418.759 Q203.121 418.886 204.651 419.702 Q206.18 420.492 206.766 420.645 Q207.709 420.925 208.779 420.925 Q211.379 420.925 213.291 418.912 Q215.228 416.898 215.228 414.146 Q215.228 412.132 214.335 410.221 Q213.673 408.793 212.883 408.054 Q211.787 407.035 209.875 406.219 Q207.964 405.378 205.976 405.378 L205.16 405.378 L205.16 404.614 Q207.174 404.359 209.187 403.161 Q211.226 401.963 212.144 400.281 Q213.061 398.599 213.061 396.585 Q213.061 393.96 211.404 392.354 Q209.773 390.723 207.327 390.723 Q203.376 390.723 200.726 394.954 L199.884 394.546 Z" fill="#000000" fill-rule="nonzero" fill-opacity="1"></path><path clip-path="url(#clip580)" d="M247.264 415.879 L244.843 422.531 L224.454 422.531 L224.454 421.588 Q233.451 413.381 237.121 408.182 Q240.791 402.982 240.791 398.675 Q240.791 395.387 238.777 393.272 Q236.764 391.157 233.96 391.157 Q231.412 391.157 229.373 392.66 Q227.359 394.138 226.391 397.018 L225.448 397.018 Q226.085 392.303 228.71 389.78 Q231.361 387.257 235.311 387.257 Q239.516 387.257 242.32 389.959 Q245.149 392.66 245.149 396.33 Q245.149 398.955 243.926 401.581 Q242.04 405.709 237.809 410.323 Q231.463 417.255 229.882 418.682 L238.905 418.682 Q241.657 418.682 242.753 418.478 Q243.875 418.274 244.767 417.663 Q245.659 417.026 246.321 415.879 L247.264 415.879 Z" fill="#000000" fill-rule="nonzero" fill-opacity="1"></path><path clip-path="url(#clip580)" d="M272.088 387.971 L270.1 392.303 L259.702 392.303 L257.434 396.942 Q264.188 397.936 268.138 401.963 Q271.528 405.429 271.528 410.119 Q271.528 412.846 270.406 415.165 Q269.31 417.484 267.628 419.115 Q265.946 420.747 263.882 421.741 Q260.951 423.142 257.867 423.142 Q254.757 423.142 253.33 422.097 Q251.928 421.027 251.928 419.753 Q251.928 419.039 252.515 418.504 Q253.101 417.943 253.993 417.943 Q254.655 417.943 255.14 418.147 Q255.649 418.351 256.847 419.192 Q258.759 420.517 260.721 420.517 Q263.703 420.517 265.946 418.274 Q268.214 416.006 268.214 412.769 Q268.214 409.634 266.201 406.933 Q264.188 404.206 260.645 402.728 Q257.867 401.581 253.075 401.402 L259.702 387.971 L272.088 387.971 Z" fill="#000000" fill-rule="nonzero" fill-opacity="1"></path><path clip-path="url(#clip580)" d="M277.415 405.455 Q277.415 399.542 279.199 395.285 Q280.983 391.004 283.94 388.914 Q286.234 387.257 288.68 387.257 Q292.656 387.257 295.817 391.309 Q299.767 396.33 299.767 404.919 Q299.767 410.934 298.034 415.14 Q296.301 419.345 293.599 421.256 Q290.923 423.142 288.425 423.142 Q283.481 423.142 280.193 417.306 Q277.415 412.387 277.415 405.455 M282.411 406.092 Q282.411 413.228 284.169 417.739 Q285.622 421.537 288.502 421.537 Q289.878 421.537 291.356 420.313 Q292.835 419.065 293.599 416.159 Q294.772 411.775 294.772 403.798 Q294.772 397.885 293.548 393.935 Q292.631 391.004 291.178 389.78 Q290.133 388.939 288.655 388.939 Q286.922 388.939 285.571 390.494 Q283.736 392.609 283.073 397.146 Q282.411 401.683 282.411 406.092 Z" fill="#000000" fill-rule="nonzero" fill-opacity="1"></path><path clip-path="url(#clip580)" d="M303.514 405.455 Q303.514 399.542 305.298 395.285 Q307.082 391.004 310.038 388.914 Q312.332 387.257 314.779 387.257 Q318.755 387.257 321.915 391.309 Q325.865 396.33 325.865 404.919 Q325.865 410.934 324.132 415.14 Q322.399 419.345 319.698 421.256 Q317.021 423.142 314.524 423.142 Q309.579 423.142 306.292 417.306 Q303.514 412.387 303.514 405.455 M308.509 406.092 Q308.509 413.228 310.268 417.739 Q311.72 421.537 314.6 421.537 Q315.977 421.537 317.455 420.313 Q318.933 419.065 319.698 416.159 Q320.87 411.775 320.87 403.798 Q320.87 397.885 319.647 393.935 Q318.729 391.004 317.276 389.78 Q316.231 388.939 314.753 388.939 Q313.02 388.939 311.669 390.494 Q309.834 392.609 309.172 397.146 Q308.509 401.683 308.509 406.092 Z" fill="#000000" fill-rule="nonzero" fill-opacity="1"></path><path clip-path="url(#clip580)" d="M78.3899 1054.48 Q78.3899 1045.23 85.4338 1038.47 Q92.4427 1031.67 102.956 1031.67 Q113.785 1031.67 120.934 1038.5 Q128.083 1045.34 128.083 1055.04 Q128.083 1064.86 121.109 1071.55 Q114.135 1078.21 103.061 1078.21 Q91.7418 1078.21 84.5927 1070.5 Q78.3899 1063.8 78.3899 1054.48 M80.9481 1055.15 Q80.9481 1061.53 85.6791 1065.38 Q91.5665 1070.18 102.921 1070.18 Q114.556 1070.18 120.828 1065.21 Q125.595 1061.39 125.595 1055.11 Q125.595 1048.42 120.373 1044.07 Q115.151 1039.69 103.902 1039.69 Q91.7067 1039.69 85.7142 1044.5 Q80.9481 1048.35 80.9481 1055.15 Z" fill="#000000" fill-rule="nonzero" fill-opacity="1"></path><path clip-path="url(#clip580)" d="M100.433 1017.86 Q93.9496 1013.2 93.9496 1007.8 Q93.9496 1002.86 98.1899 999.183 Q102.395 995.503 109.719 995.503 Q118.27 995.503 123.492 1001.18 Q127.978 1006.05 127.978 1012.04 Q127.978 1014.85 126.961 1017.76 Q125.945 1020.63 123.912 1023.64 L90.6554 1023.64 Q85.1885 1023.64 83.9269 1023.92 Q82.6653 1024.17 82.2097 1024.73 Q81.7542 1025.29 81.7542 1026.13 Q81.7542 1027.11 82.3149 1028.59 L81.0883 1029.08 L77.1634 1019.44 L77.1634 1017.86 L100.433 1017.86 M102.676 1017.86 L121.88 1017.86 Q123.632 1016.07 124.543 1014.18 Q125.419 1012.25 125.419 1010.26 Q125.419 1007.07 121.915 1004.33 Q118.41 1001.57 111.717 1001.57 Q105.549 1001.57 102.255 1004.33 Q98.9258 1007.07 98.9258 1010.57 Q98.9258 1012.43 99.872 1014.29 Q100.573 1015.69 102.676 1017.86 Z" fill="#000000" fill-rule="nonzero" fill-opacity="1"></path><path clip-path="url(#clip580)" d="M77.1283 982.642 Q77.1283 981.135 78.1796 980.084 Q79.231 979.033 80.7379 979.033 Q82.2097 979.033 83.2611 980.084 Q84.3124 981.135 84.3124 982.642 Q84.3124 984.114 83.2611 985.165 Q82.2097 986.217 80.7379 986.217 Q79.231 986.217 78.1796 985.165 Q77.1283 984.114 77.1283 982.642 M93.9496 979.628 L126.26 979.628 Q134.496 979.628 138.491 983.133 Q142.486 986.637 142.486 992.244 Q142.486 995.433 141.329 996.975 Q140.173 998.517 138.946 998.517 Q137.72 998.517 136.844 997.641 Q135.968 996.8 135.968 995.644 Q135.968 994.732 136.423 993.786 Q136.668 993.19 138.175 991.508 Q139.717 989.791 139.717 988.635 Q139.717 987.794 139.052 986.988 Q138.421 986.182 136.879 985.796 Q135.372 985.411 130.29 985.411 L107.442 985.411 Q102.15 985.411 100.643 985.726 Q99.4865 985.971 99.066 986.497 Q98.6104 987.023 98.6104 987.934 Q98.6104 988.915 99.1361 990.317 L97.8745 990.807 L93.9496 981.135 L93.9496 979.628 Z" fill="#000000" fill-rule="nonzero" fill-opacity="1"></path><path clip-path="url(#clip580)" d="M106.986 965.435 Q114.135 965.47 118.2 961.966 Q122.265 958.462 122.265 953.731 Q122.265 950.577 120.548 948.264 Q118.796 945.916 114.591 944.339 L115.292 943.252 Q120.093 943.988 124.053 947.528 Q127.978 951.067 127.978 956.394 Q127.978 962.176 123.492 966.311 Q118.971 970.412 111.367 970.412 Q103.131 970.412 98.5404 966.206 Q93.9145 961.966 93.9145 955.588 Q93.9145 950.191 97.489 946.722 Q101.028 943.252 106.986 943.252 L106.986 965.435 M104.953 965.435 L104.953 950.577 Q101.87 950.752 100.608 951.313 Q98.6455 952.189 97.5241 953.941 Q96.4027 955.658 96.4027 957.55 Q96.4027 960.459 98.6805 962.772 Q100.923 965.05 104.953 965.435 Z" fill="#000000" fill-rule="nonzero" fill-opacity="1"></path><path clip-path="url(#clip580)" d="M114.801 911.713 Q121.144 913.009 124.578 916.794 Q127.978 920.579 127.978 925.17 Q127.978 930.636 123.387 934.702 Q118.796 938.767 110.981 938.767 Q103.412 938.767 98.6805 934.281 Q93.9496 929.76 93.9496 923.452 Q93.9496 918.721 96.4727 915.673 Q98.9609 912.624 101.659 912.624 Q102.991 912.624 103.832 913.5 Q104.638 914.341 104.638 915.883 Q104.638 917.95 103.306 919.002 Q102.57 919.597 100.503 919.808 Q98.4352 919.983 97.3488 921.21 Q96.2975 922.436 96.2975 924.609 Q96.2975 928.113 98.8908 930.251 Q102.325 933.09 107.967 933.09 Q113.715 933.09 118.13 930.286 Q122.511 927.447 122.511 922.646 Q122.511 919.212 120.163 916.479 Q118.551 914.551 114.31 912.729 L114.801 911.713 Z" fill="#000000" fill-rule="nonzero" fill-opacity="1"></path><path clip-path="url(#clip580)" d="M84.3474 897.8 L94.8958 897.8 L94.8958 890.3 L97.3488 890.3 L97.3488 897.8 L118.165 897.8 Q121.284 897.8 122.37 896.924 Q123.457 896.013 123.457 894.611 Q123.457 893.454 122.756 892.368 Q122.02 891.282 120.618 890.686 L120.618 889.319 Q124.053 890.546 125.805 892.789 Q127.522 895.031 127.522 897.414 Q127.522 899.027 126.646 900.568 Q125.735 902.11 124.088 902.846 Q122.405 903.582 118.936 903.582 L97.3488 903.582 L97.3488 908.664 L96.1924 908.664 Q95.4214 906.736 93.5991 904.739 Q91.7418 902.706 89.2186 901.129 Q87.8869 900.323 84.3474 898.886 L84.3474 897.8 Z" fill="#000000" fill-rule="nonzero" fill-opacity="1"></path><path clip-path="url(#clip580)" d="M94.8958 888.829 L94.8958 873.725 L96.1924 873.725 L96.1924 874.706 Q96.1924 876.073 96.8582 876.808 Q97.5241 877.509 98.6455 877.509 Q99.872 877.509 101.554 876.773 L119.287 869.309 L100.888 861.81 Q98.9258 861.004 97.9096 861.004 Q97.4189 861.004 97.1035 861.284 Q96.5779 861.669 96.4027 862.265 Q96.1924 862.861 96.1924 864.683 L94.8958 864.683 L94.8958 854.205 L96.1924 854.205 Q96.3326 856.027 96.9283 856.728 Q97.9796 857.955 100.433 858.936 L127.978 870.325 L127.978 871.762 L100.888 883.222 Q98.9959 883.993 98.1899 884.693 Q97.3488 885.394 96.7881 886.481 Q96.4727 887.076 96.1924 888.829 L94.8958 888.829 Z" fill="#000000" fill-rule="nonzero" fill-opacity="1"></path><path clip-path="url(#clip580)" d="M77.1634 843.131 Q77.1634 841.659 78.2147 840.643 Q79.231 839.591 80.7028 839.591 Q82.1747 839.591 83.226 840.643 Q84.2773 841.659 84.2773 843.131 Q84.2773 844.603 83.226 845.654 Q82.1747 846.705 80.7028 846.705 Q79.231 846.705 78.2147 845.689 Q77.1634 844.638 77.1634 843.131 M93.9496 840.222 L119.742 840.222 Q122.756 840.222 123.772 839.802 Q124.753 839.346 125.244 838.505 Q125.735 837.629 125.735 835.351 L126.996 835.351 L126.996 850.946 L125.735 850.946 Q125.735 848.598 125.279 847.792 Q124.824 846.986 123.772 846.53 Q122.721 846.04 119.742 846.04 L107.372 846.04 Q102.15 846.04 100.608 846.355 Q99.4865 846.6 99.066 847.126 Q98.6104 847.652 98.6104 848.563 Q98.6104 849.544 99.1361 850.946 L97.8745 851.436 L93.9496 841.764 L93.9496 840.222 Z" fill="#000000" fill-rule="nonzero" fill-opacity="1"></path><path clip-path="url(#clip580)" d="M106.986 825.959 Q114.135 825.994 118.2 822.49 Q122.265 818.985 122.265 814.254 Q122.265 811.1 120.548 808.788 Q118.796 806.44 114.591 804.863 L115.292 803.776 Q120.093 804.512 124.053 808.052 Q127.978 811.591 127.978 816.918 Q127.978 822.7 123.492 826.835 Q118.971 830.936 111.367 830.936 Q103.131 830.936 98.5404 826.73 Q93.9145 822.49 93.9145 816.112 Q93.9145 810.715 97.489 807.246 Q101.028 803.776 106.986 803.776 L106.986 825.959 M104.953 825.959 L104.953 811.1 Q101.87 811.276 100.608 811.836 Q98.6455 812.713 97.5241 814.465 Q96.4027 816.182 96.4027 818.074 Q96.4027 820.983 98.6805 823.296 Q100.923 825.574 104.953 825.959 Z" fill="#000000" fill-rule="nonzero" fill-opacity="1"></path><path clip-path="url(#clip580)" d="M82.0696 769.117 L100.748 769.117 L100.748 760.462 Q100.748 757.483 99.4515 756.116 Q98.1198 754.714 94.2299 754.259 L94.2299 752.962 L110.315 752.962 L110.315 754.259 Q107.547 754.294 106.25 754.995 Q104.953 755.66 104.323 756.887 Q103.657 758.079 103.657 760.462 L103.657 769.117 L118.586 769.117 Q122.195 769.117 123.352 768.662 Q124.228 768.311 124.859 767.19 Q125.7 765.648 125.7 763.966 L125.7 762.249 L126.996 762.249 L126.996 782.645 L125.7 782.645 L125.7 780.962 Q125.7 778.019 123.982 776.687 Q122.861 775.846 118.586 775.846 L87.8869 775.846 Q84.2773 775.846 83.1209 776.302 Q82.2448 776.652 81.614 777.738 Q80.7729 779.245 80.7729 780.962 L80.7729 782.645 L79.4763 782.645 L79.4763 747.285 L89.9195 746.829 L89.9195 748.056 Q86.5903 748.967 85.0483 750.194 Q83.4713 751.385 82.7704 753.172 Q82.0696 754.925 82.0696 758.639 L82.0696 769.117 Z" fill="#000000" fill-rule="nonzero" fill-opacity="1"></path><path clip-path="url(#clip580)" d="M94.8958 713.502 L114.345 713.502 Q119.917 713.502 121.179 713.257 Q122.405 712.977 122.896 712.416 Q123.387 711.82 123.387 711.049 Q123.387 709.963 122.791 708.596 L124.018 708.105 L127.978 717.708 L127.978 719.285 L121.179 719.285 Q125.665 723.42 126.821 725.593 Q127.978 727.765 127.978 730.183 Q127.978 732.882 126.436 734.879 Q124.859 736.842 122.405 737.613 Q119.952 738.384 115.467 738.384 L101.134 738.384 Q98.8558 738.384 97.9796 738.874 Q97.1035 739.365 96.648 740.346 Q96.1573 741.292 96.1924 743.816 L94.8958 743.816 L94.8958 732.566 L116.378 732.566 Q120.864 732.566 122.265 731.024 Q123.667 729.447 123.667 727.24 Q123.667 725.733 122.721 723.84 Q121.775 721.913 119.111 719.285 L100.923 719.285 Q98.1899 719.285 97.2437 720.301 Q96.2625 721.282 96.1924 724.436 L94.8958 724.436 L94.8958 713.502 Z" fill="#000000" fill-rule="nonzero" fill-opacity="1"></path><path clip-path="url(#clip580)" d="M100.748 696.401 Q93.9496 690.759 93.9496 685.642 Q93.9496 683.014 95.2812 681.121 Q96.5779 679.229 99.5917 678.108 Q101.694 677.337 106.04 677.337 L119.742 677.337 Q122.791 677.337 123.877 676.846 Q124.753 676.46 125.244 675.619 Q125.735 674.743 125.735 672.43 L126.996 672.43 L126.996 688.305 L125.735 688.305 L125.735 687.64 Q125.735 685.397 125.069 684.521 Q124.368 683.61 123.036 683.259 Q122.511 683.119 119.742 683.119 L106.601 683.119 Q102.22 683.119 100.258 684.275 Q98.26 685.397 98.26 688.095 Q98.26 692.265 102.816 696.401 L119.742 696.401 Q123.001 696.401 123.772 696.015 Q124.788 695.525 125.279 694.684 Q125.735 693.807 125.735 691.179 L126.996 691.179 L126.996 707.054 L125.735 707.054 L125.735 706.353 Q125.735 703.9 124.508 703.059 Q123.247 702.183 119.742 702.183 L107.827 702.183 Q102.045 702.183 100.783 702.463 Q99.5216 702.709 99.066 703.269 Q98.6104 703.795 98.6104 704.706 Q98.6104 705.687 99.1361 707.054 L97.8745 707.58 L93.9496 697.908 L93.9496 696.401 L100.748 696.401 Z" fill="#000000" fill-rule="nonzero" fill-opacity="1"></path><path clip-path="url(#clip580)" d="M114.801 642.608 Q121.144 643.904 124.578 647.689 Q127.978 651.474 127.978 656.065 Q127.978 661.532 123.387 665.597 Q118.796 669.662 110.981 669.662 Q103.412 669.662 98.6805 665.176 Q93.9496 660.656 93.9496 654.348 Q93.9496 649.617 96.4727 646.568 Q98.9609 643.519 101.659 643.519 Q102.991 643.519 103.832 644.395 Q104.638 645.236 104.638 646.778 Q104.638 648.846 103.306 649.897 Q102.57 650.493 100.503 650.703 Q98.4352 650.878 97.3488 652.105 Q96.2975 653.331 96.2975 655.504 Q96.2975 659.008 98.8908 661.146 Q102.325 663.985 107.967 663.985 Q113.715 663.985 118.13 661.181 Q122.511 658.343 122.511 653.542 Q122.511 650.107 120.163 647.374 Q118.551 645.446 114.31 643.624 L114.801 642.608 Z" fill="#000000" fill-rule="nonzero" fill-opacity="1"></path><path clip-path="url(#clip580)" d="M84.3474 628.695 L94.8958 628.695 L94.8958 621.196 L97.3488 621.196 L97.3488 628.695 L118.165 628.695 Q121.284 628.695 122.37 627.819 Q123.457 626.908 123.457 625.506 Q123.457 624.35 122.756 623.263 Q122.02 622.177 120.618 621.581 L120.618 620.214 Q124.053 621.441 125.805 623.684 Q127.522 625.927 127.522 628.31 Q127.522 629.922 126.646 631.464 Q125.735 633.006 124.088 633.742 Q122.405 634.477 118.936 634.477 L97.3488 634.477 L97.3488 639.559 L96.1924 639.559 Q95.4214 637.631 93.5991 635.634 Q91.7418 633.601 89.2186 632.024 Q87.8869 631.218 84.3474 629.782 L84.3474 628.695 Z" fill="#000000" fill-rule="nonzero" fill-opacity="1"></path><path clip-path="url(#clip580)" d="M77.1634 609.911 Q77.1634 608.44 78.2147 607.423 Q79.231 606.372 80.7028 606.372 Q82.1747 606.372 83.226 607.423 Q84.2773 608.44 84.2773 609.911 Q84.2773 611.383 83.226 612.435 Q82.1747 613.486 80.7028 613.486 Q79.231 613.486 78.2147 612.47 Q77.1634 611.418 77.1634 609.911 M93.9496 607.003 L119.742 607.003 Q122.756 607.003 123.772 606.582 Q124.753 606.127 125.244 605.286 Q125.735 604.41 125.735 602.132 L126.996 602.132 L126.996 617.726 L125.735 617.726 Q125.735 615.378 125.279 614.572 Q124.824 613.766 123.772 613.311 Q122.721 612.82 119.742 612.82 L107.372 612.82 Q102.15 612.82 100.608 613.136 Q99.4865 613.381 99.066 613.907 Q98.6104 614.432 98.6104 615.343 Q98.6104 616.325 99.1361 617.726 L97.8745 618.217 L93.9496 608.545 L93.9496 607.003 Z" fill="#000000" fill-rule="nonzero" fill-opacity="1"></path><path clip-path="url(#clip580)" d="M93.9496 582.437 Q93.9496 575.148 99.4865 570.732 Q104.218 566.982 110.35 566.982 Q114.661 566.982 119.076 569.05 Q123.492 571.117 125.735 574.762 Q127.978 578.372 127.978 582.822 Q127.978 590.076 122.195 594.352 Q117.324 597.961 111.261 597.961 Q106.846 597.961 102.5 595.789 Q98.1198 593.581 96.0522 590.006 Q93.9496 586.432 93.9496 582.437 M96.2274 583.523 Q96.2274 585.38 97.3488 587.273 Q98.4352 589.13 101.204 590.287 Q103.972 591.443 108.318 591.443 Q115.327 591.443 120.408 588.675 Q125.489 585.871 125.489 581.315 Q125.489 577.916 122.686 575.708 Q119.882 573.5 113.049 573.5 Q104.498 573.5 99.5917 577.18 Q96.2274 579.668 96.2274 583.523 Z" fill="#000000" fill-rule="nonzero" fill-opacity="1"></path><path clip-path="url(#clip580)" d="M100.748 552.894 Q93.9496 547.252 93.9496 542.136 Q93.9496 539.508 95.2812 537.615 Q96.5779 535.723 99.5917 534.601 Q101.694 533.83 106.04 533.83 L119.742 533.83 Q122.791 533.83 123.877 533.34 Q124.753 532.954 125.244 532.113 Q125.735 531.237 125.735 528.924 L126.996 528.924 L126.996 544.799 L125.735 544.799 L125.735 544.133 Q125.735 541.891 125.069 541.014 Q124.368 540.103 123.036 539.753 Q122.511 539.613 119.742 539.613 L106.601 539.613 Q102.22 539.613 100.258 540.769 Q98.26 541.891 98.26 544.589 Q98.26 548.759 102.816 552.894 L119.742 552.894 Q123.001 552.894 123.772 552.509 Q124.788 552.018 125.279 551.177 Q125.735 550.301 125.735 547.673 L126.996 547.673 L126.996 563.548 L125.735 563.548 L125.735 562.847 Q125.735 560.394 124.508 559.553 Q123.247 558.677 119.742 558.677 L107.827 558.677 Q102.045 558.677 100.783 558.957 Q99.5216 559.202 99.066 559.763 Q98.6104 560.289 98.6104 561.2 Q98.6104 562.181 99.1361 563.548 L97.8745 564.074 L93.9496 554.401 L93.9496 552.894 L100.748 552.894 Z" fill="#000000" fill-rule="nonzero" fill-opacity="1"></path><path clip-path="url(#clip580)" d="M1049.87 93.744 L1026.5 42.8534 L1026.5 83.2626 Q1026.5 88.8378 1027.7 90.2205 Q1029.35 92.0937 1032.92 92.0937 L1035.06 92.0937 L1035.06 93.744 L1014.01 93.744 L1014.01 92.0937 L1016.15 92.0937 Q1019.99 92.0937 1021.59 89.7744 Q1022.57 88.3472 1022.57 83.2626 L1022.57 43.7454 Q1022.57 39.7313 1021.68 37.9472 Q1021.06 36.6537 1019.36 35.8063 Q1017.71 34.9143 1014.01 34.9143 L1014.01 33.264 L1031.14 33.264 L1053.08 80.5865 L1074.67 33.264 L1091.8 33.264 L1091.8 34.9143 L1089.7 34.9143 Q1085.82 34.9143 1084.21 37.2336 Q1083.23 38.6608 1083.23 43.7454 L1083.23 83.2626 Q1083.23 88.8378 1084.48 90.2205 Q1086.13 92.0937 1089.7 92.0937 L1091.8 92.0937 L1091.8 93.744 L1066.11 93.744 L1066.11 92.0937 L1068.25 92.0937 Q1072.13 92.0937 1073.69 89.7744 Q1074.67 88.3472 1074.67 83.2626 L1074.67 42.8534 L1051.34 93.744 L1049.87 93.744 Z" fill="#000000" fill-rule="nonzero" fill-opacity="1"></path><path clip-path="url(#clip580)" d="M1121.9 92.0937 L1121.9 93.744 L1095.99 93.744 L1095.99 92.0937 L1098.13 92.0937 Q1101.88 92.0937 1103.57 89.9082 Q1104.64 88.481 1104.64 83.0396 L1104.64 43.9684 Q1104.64 39.3744 1104.06 37.9026 Q1103.62 36.7875 1102.23 35.9847 Q1100.27 34.9143 1098.13 34.9143 L1095.99 34.9143 L1095.99 33.264 L1121.9 33.264 L1121.9 34.9143 L1119.72 34.9143 Q1116.02 34.9143 1114.32 37.0998 Q1113.21 38.527 1113.21 43.9684 L1113.21 83.0396 Q1113.21 87.6336 1113.78 89.1054 Q1114.23 90.2205 1115.66 91.0233 Q1117.58 92.0937 1119.72 92.0937 L1121.9 92.0937 Z" fill="#000000" fill-rule="nonzero" fill-opacity="1"></path><path clip-path="url(#clip580)" d="M1176.5 77.0183 L1177.97 77.3305 L1172.79 93.744 L1125.96 93.744 L1125.96 92.0937 L1128.24 92.0937 Q1132.07 92.0937 1133.72 89.596 Q1134.66 88.1688 1134.66 82.995 L1134.66 43.9684 Q1134.66 38.304 1133.41 36.8767 Q1131.67 34.9143 1128.24 34.9143 L1125.96 34.9143 L1125.96 33.264 L1153.35 33.264 L1153.35 34.9143 Q1148.53 34.8697 1146.57 35.8063 Q1144.65 36.7429 1143.94 38.1702 Q1143.22 39.5975 1143.22 44.9943 L1143.22 82.995 Q1143.22 86.6969 1143.94 88.0796 Q1144.47 89.0162 1145.59 89.4622 Q1146.7 89.9082 1152.54 89.9082 L1156.96 89.9082 Q1163.92 89.9082 1166.73 88.8824 Q1169.54 87.8566 1171.86 85.2697 Q1174.18 82.6382 1176.5 77.0183 Z" fill="#000000" fill-rule="nonzero" fill-opacity="1"></path><path clip-path="url(#clip580)" d="M1198.66 65.4219 L1198.66 83.0396 Q1198.66 88.7486 1199.91 90.1313 Q1201.61 92.0937 1205.04 92.0937 L1207.36 92.0937 L1207.36 93.744 L1181.45 93.744 L1181.45 92.0937 L1183.72 92.0937 Q1187.56 92.0937 1189.21 89.596 Q1190.1 88.2134 1190.1 83.0396 L1190.1 43.9684 Q1190.1 38.2594 1188.89 36.8767 Q1187.15 34.9143 1183.72 34.9143 L1181.45 34.9143 L1181.45 33.264 L1203.61 33.264 Q1211.73 33.264 1216.41 34.9589 Q1221.1 36.6091 1224.31 40.5787 Q1227.52 44.5482 1227.52 49.9897 Q1227.52 57.3936 1222.61 62.0321 Q1217.75 66.6707 1208.83 66.6707 Q1206.65 66.6707 1204.1 66.3585 Q1201.56 66.0463 1198.66 65.4219 M1198.66 62.8796 Q1201.03 63.3256 1202.85 63.5486 Q1204.68 63.7716 1205.98 63.7716 Q1210.62 63.7716 1213.96 60.2035 Q1217.35 56.5907 1217.35 50.8817 Q1217.35 46.9567 1215.74 43.6116 Q1214.14 40.2219 1211.2 38.5716 Q1208.25 36.8767 1204.5 36.8767 Q1202.23 36.8767 1198.66 37.7242 L1198.66 62.8796 Z" fill="#000000" fill-rule="nonzero" fill-opacity="1"></path><path clip-path="url(#clip580)" d="M1278.54 111.629 L1278.54 113.28 Q1271.81 109.89 1267.3 105.34 Q1260.88 98.8732 1257.4 90.0867 Q1253.92 81.3001 1253.92 71.8445 Q1253.92 58.018 1260.75 46.6445 Q1267.57 35.2265 1278.54 30.3203 L1278.54 32.1936 Q1273.06 35.2265 1269.53 40.4895 Q1266.01 45.7525 1264.27 53.8254 Q1262.53 61.8983 1262.53 70.6849 Q1262.53 80.2297 1264 88.035 Q1265.16 94.19 1266.81 97.892 Q1268.46 101.639 1271.23 105.073 Q1274.04 108.507 1278.54 111.629 Z" fill="#000000" fill-rule="nonzero" fill-opacity="1"></path><path clip-path="url(#clip580)" d="M1324.17 34.9143 L1324.17 33.264 L1345.58 33.264 L1345.58 34.9143 L1343.31 34.9143 Q1339.74 34.9143 1337.82 37.9026 Q1336.88 39.2852 1336.88 44.3252 L1336.88 68.8562 Q1336.88 77.955 1335.05 82.995 Q1333.27 87.9904 1327.96 91.6031 Q1322.7 95.1713 1313.6 95.1713 Q1303.7 95.1713 1298.57 91.7369 Q1293.44 88.3026 1291.3 82.5044 Q1289.87 78.5348 1289.87 67.6074 L1289.87 43.9684 Q1289.87 38.3932 1288.31 36.6537 Q1286.8 34.9143 1283.36 34.9143 L1281.09 34.9143 L1281.09 33.264 L1307.22 33.264 L1307.22 34.9143 L1304.9 34.9143 Q1301.16 34.9143 1299.55 37.2782 Q1298.44 38.8838 1298.44 43.9684 L1298.44 70.3281 Q1298.44 73.8516 1299.06 78.401 Q1299.73 82.9504 1301.42 85.4927 Q1303.12 88.035 1306.29 89.6852 Q1309.5 91.3355 1314.14 91.3355 Q1320.07 91.3355 1324.75 88.7486 Q1329.43 86.1617 1331.13 82.1475 Q1332.87 78.0888 1332.87 68.4548 L1332.87 43.9684 Q1332.87 38.304 1331.62 36.8767 Q1329.88 34.9143 1326.45 34.9143 L1324.17 34.9143 Z" fill="#000000" fill-rule="nonzero" fill-opacity="1"></path><path clip-path="url(#clip580)" d="M1388.75 62.8796 Q1395.04 64.2176 1398.17 67.1613 Q1402.49 71.2647 1402.49 77.1967 Q1402.49 81.7015 1399.64 85.8495 Q1396.78 89.9528 1391.79 91.8707 Q1386.84 93.744 1376.62 93.744 L1348.08 93.744 L1348.08 92.0937 L1350.35 92.0937 Q1354.14 92.0937 1355.79 89.6852 Q1356.82 88.1242 1356.82 83.0396 L1356.82 43.9684 Q1356.82 38.3486 1355.53 36.8767 Q1353.79 34.9143 1350.35 34.9143 L1348.08 34.9143 L1348.08 33.264 L1374.21 33.264 Q1381.53 33.264 1385.94 34.3344 Q1392.64 35.9401 1396.16 40.0435 Q1399.68 44.1022 1399.68 49.4098 Q1399.68 53.9592 1396.92 57.572 Q1394.15 61.1401 1388.75 62.8796 M1365.38 60.4711 Q1367.03 60.7833 1369.13 60.9617 Q1371.27 61.0955 1373.81 61.0955 Q1380.33 61.0955 1383.58 59.7128 Q1386.88 58.2856 1388.62 55.3865 Q1390.36 52.4874 1390.36 49.053 Q1390.36 43.7454 1386.03 39.9989 Q1381.71 36.2523 1373.41 36.2523 Q1368.95 36.2523 1365.38 37.2336 L1365.38 60.4711 M1365.38 89.373 Q1370.56 90.5773 1375.6 90.5773 Q1383.67 90.5773 1387.91 86.9645 Q1392.14 83.3072 1392.14 77.955 Q1392.14 74.4314 1390.23 71.1755 Q1388.31 67.9196 1383.98 66.0463 Q1379.66 64.173 1373.28 64.173 Q1370.51 64.173 1368.55 64.2622 Q1366.59 64.3514 1365.38 64.5744 L1365.38 89.373 Z" fill="#000000" fill-rule="nonzero" fill-opacity="1"></path><path clip-path="url(#clip580)" d="M1431.08 52.8888 L1450.31 52.8888 L1450.31 54.539 L1449.06 54.539 Q1447.32 54.539 1446.38 55.3865 Q1445.49 56.2339 1445.49 57.6612 Q1445.49 59.2222 1446.42 61.3631 L1455.93 83.9316 L1465.47 60.5157 Q1466.5 58.018 1466.5 56.7245 Q1466.5 56.1001 1466.14 55.6987 Q1465.65 55.0297 1464.89 54.8067 Q1464.13 54.539 1461.81 54.539 L1461.81 52.8888 L1475.15 52.8888 L1475.15 54.539 Q1472.83 54.7175 1471.94 55.4757 Q1470.38 56.8137 1469.13 59.9359 L1454.63 94.9928 L1452.8 94.9928 L1438.22 60.5157 Q1437.24 58.1072 1436.34 57.0813 Q1435.45 56.0109 1434.07 55.2973 Q1433.31 54.8959 1431.08 54.539 L1431.08 52.8888 Z" fill="#000000" fill-rule="nonzero" fill-opacity="1"></path><path clip-path="url(#clip580)" d="M1505.25 51.6845 L1505.25 65.6003 L1503.78 65.6003 Q1502.09 59.0438 1499.41 56.6799 Q1496.78 54.316 1492.68 54.316 Q1489.55 54.316 1487.64 55.9663 Q1485.72 57.6166 1485.72 59.6236 Q1485.72 62.1213 1487.15 63.9054 Q1488.53 65.7341 1492.77 67.7858 L1499.28 70.9525 Q1508.33 75.3681 1508.33 82.5936 Q1508.33 88.1688 1504.1 91.6031 Q1499.9 94.9928 1494.68 94.9928 Q1490.94 94.9928 1486.12 93.6548 Q1484.65 93.2088 1483.71 93.2088 Q1482.69 93.2088 1482.11 94.3684 L1480.63 94.3684 L1480.63 79.7836 L1482.11 79.7836 Q1483.36 86.0279 1486.88 89.1946 Q1490.4 92.3613 1494.77 92.3613 Q1497.85 92.3613 1499.77 90.5773 Q1501.73 88.7486 1501.73 86.2063 Q1501.73 83.1288 1499.55 81.0325 Q1497.4 78.9362 1490.94 75.7249 Q1484.47 72.5136 1482.46 69.9267 Q1480.46 67.3844 1480.46 63.504 Q1480.46 58.464 1483.89 55.0743 Q1487.37 51.6845 1492.86 51.6845 Q1495.26 51.6845 1498.7 52.7104 Q1500.97 53.3794 1501.73 53.3794 Q1502.44 53.3794 1502.85 53.0672 Q1503.25 52.755 1503.78 51.6845 L1505.25 51.6845 Z" fill="#000000" fill-rule="nonzero" fill-opacity="1"></path><path clip-path="url(#clip580)" d="M1522.96 85.0913 Q1525.06 85.0913 1526.49 86.5631 Q1527.91 87.9904 1527.91 90.0421 Q1527.91 92.0937 1526.44 93.5656 Q1525.01 94.9928 1522.96 94.9928 Q1520.91 94.9928 1519.44 93.5656 Q1518.01 92.0937 1518.01 90.0421 Q1518.01 87.9458 1519.44 86.5185 Q1520.91 85.0913 1522.96 85.0913 Z" fill="#000000" fill-rule="nonzero" fill-opacity="1"></path><path clip-path="url(#clip580)" d="M1609.58 77.0183 L1611.05 77.3305 L1605.88 93.744 L1559.04 93.744 L1559.04 92.0937 L1561.32 92.0937 Q1565.15 92.0937 1566.81 89.596 Q1567.74 88.1688 1567.74 82.995 L1567.74 43.9684 Q1567.74 38.304 1566.49 36.8767 Q1564.75 34.9143 1561.32 34.9143 L1559.04 34.9143 L1559.04 33.264 L1586.43 33.264 L1586.43 34.9143 Q1581.61 34.8697 1579.65 35.8063 Q1577.73 36.7429 1577.02 38.1702 Q1576.31 39.5975 1576.31 44.9943 L1576.31 82.995 Q1576.31 86.6969 1577.02 88.0796 Q1577.55 89.0162 1578.67 89.4622 Q1579.78 89.9082 1585.63 89.9082 L1590.04 89.9082 Q1597 89.9082 1599.81 88.8824 Q1602.62 87.8566 1604.94 85.2697 Q1607.26 82.6382 1609.58 77.0183 Z" fill="#000000" fill-rule="nonzero" fill-opacity="1"></path><path clip-path="url(#clip580)" d="M1655.21 62.8796 Q1661.49 64.2176 1664.62 67.1613 Q1668.94 71.2647 1668.94 77.1967 Q1668.94 81.7015 1666.09 85.8495 Q1663.23 89.9528 1658.24 91.8707 Q1653.29 93.744 1643.07 93.744 L1614.53 93.744 L1614.53 92.0937 L1616.8 92.0937 Q1620.59 92.0937 1622.25 89.6852 Q1623.27 88.1242 1623.27 83.0396 L1623.27 43.9684 Q1623.27 38.3486 1621.98 36.8767 Q1620.24 34.9143 1616.8 34.9143 L1614.53 34.9143 L1614.53 33.264 L1640.67 33.264 Q1647.98 33.264 1652.4 34.3344 Q1659.09 35.9401 1662.61 40.0435 Q1666.13 44.1022 1666.13 49.4098 Q1666.13 53.9592 1663.37 57.572 Q1660.6 61.1401 1655.21 62.8796 M1631.83 60.4711 Q1633.48 60.7833 1635.58 60.9617 Q1637.72 61.0955 1640.26 61.0955 Q1646.78 61.0955 1650.03 59.7128 Q1653.33 58.2856 1655.07 55.3865 Q1656.81 52.4874 1656.81 49.053 Q1656.81 43.7454 1652.49 39.9989 Q1648.16 36.2523 1639.86 36.2523 Q1635.4 36.2523 1631.83 37.2336 L1631.83 60.4711 M1631.83 89.373 Q1637.01 90.5773 1642.05 90.5773 Q1650.12 90.5773 1654.36 86.9645 Q1658.6 83.3072 1658.6 77.955 Q1658.6 74.4314 1656.68 71.1755 Q1654.76 67.9196 1650.43 66.0463 Q1646.11 64.173 1639.73 64.173 Q1636.96 64.173 1635 64.2622 Q1633.04 64.3514 1631.83 64.5744 L1631.83 89.373 Z" fill="#000000" fill-rule="nonzero" fill-opacity="1"></path><path clip-path="url(#clip580)" d="M1675.99 32.1936 L1675.99 30.3203 Q1682.77 33.6654 1687.27 38.2148 Q1693.65 44.7267 1697.13 53.5132 Q1700.61 62.2552 1700.61 71.7553 Q1700.61 85.5819 1693.79 96.9553 Q1687.01 108.373 1675.99 113.28 L1675.99 111.629 Q1681.48 108.552 1685 103.289 Q1688.57 98.0704 1690.26 89.9975 Q1692 81.8799 1692 73.0934 Q1692 63.5932 1690.53 55.7433 Q1689.42 49.5882 1687.72 45.8863 Q1686.07 42.1844 1683.3 38.75 Q1680.54 35.3157 1675.99 32.1936 Z" fill="#000000" fill-rule="nonzero" fill-opacity="1"></path><path clip-path="url(#clip580)" d="M976.835 151.057 Q984.016 142.405 990.528 142.405 Q993.873 142.405 996.282 144.099 Q998.69 145.75 1000.12 149.585 Q1001.1 152.262 1001.1 157.792 L1001.1 175.231 Q1001.1 179.112 1001.72 180.494 Q1002.21 181.609 1003.28 182.234 Q1004.4 182.858 1007.34 182.858 L1007.34 184.464 L987.138 184.464 L987.138 182.858 L987.986 182.858 Q990.84 182.858 991.955 182.011 Q993.115 181.119 993.561 179.424 Q993.739 178.755 993.739 175.231 L993.739 158.506 Q993.739 152.931 992.267 150.433 Q990.84 147.891 987.406 147.891 Q982.098 147.891 976.835 153.689 L976.835 175.231 Q976.835 179.379 977.326 180.361 Q977.95 181.654 979.021 182.279 Q980.136 182.858 983.481 182.858 L983.481 184.464 L963.276 184.464 L963.276 182.858 L964.168 182.858 Q967.29 182.858 968.361 181.297 Q969.476 179.692 969.476 175.231 L969.476 160.067 Q969.476 152.708 969.119 151.102 Q968.807 149.496 968.093 148.916 Q967.424 148.337 966.265 148.337 Q965.016 148.337 963.276 149.006 L962.607 147.4 L974.917 142.405 L976.835 142.405 L976.835 151.057 Z" fill="#000000" fill-rule="nonzero" fill-opacity="1"></path><path clip-path="url(#clip580)" d="M1032.23 145.081 L1080.36 145.081 L1080.36 148.738 L1032.23 148.738 L1032.23 145.081 M1032.23 159.621 L1080.36 159.621 L1080.36 163.278 L1032.23 163.278 L1032.23 159.621 Z" fill="#000000" fill-rule="nonzero" fill-opacity="1"></path><path clip-path="url(#clip580)" d="M1146.81 172.823 L1142.58 184.464 L1106.89 184.464 L1106.89 182.814 Q1122.64 168.452 1129.06 159.353 Q1135.48 150.254 1135.48 142.717 Q1135.48 136.963 1131.96 133.261 Q1128.44 129.559 1123.53 129.559 Q1119.07 129.559 1115.5 132.191 Q1111.98 134.778 1110.28 139.818 L1108.63 139.818 Q1109.75 131.566 1114.34 127.151 Q1118.98 122.735 1125.89 122.735 Q1133.25 122.735 1138.16 127.463 Q1143.11 132.191 1143.11 138.613 Q1143.11 143.207 1140.97 147.801 Q1137.67 155.027 1130.27 163.1 Q1119.16 175.231 1116.39 177.729 L1132.18 177.729 Q1137 177.729 1138.92 177.372 Q1140.88 177.016 1142.44 175.945 Q1144 174.83 1145.16 172.823 L1146.81 172.823 Z" fill="#000000" fill-rule="nonzero" fill-opacity="1"></path><path clip-path="url(#clip580)" d="M1153.9 154.581 Q1153.9 144.233 1157.03 136.785 Q1160.15 129.292 1165.32 125.634 Q1169.34 122.735 1173.62 122.735 Q1180.58 122.735 1186.11 129.827 Q1193.02 138.613 1193.02 153.644 Q1193.02 164.17 1189.99 171.529 Q1186.95 178.889 1182.23 182.234 Q1177.54 185.534 1173.17 185.534 Q1164.52 185.534 1158.77 175.321 Q1153.9 166.712 1153.9 154.581 M1162.65 155.696 Q1162.65 168.184 1165.72 176.079 Q1168.27 182.725 1173.31 182.725 Q1175.71 182.725 1178.3 180.584 Q1180.89 178.398 1182.23 173.314 Q1184.28 165.642 1184.28 151.682 Q1184.28 141.334 1182.14 134.421 Q1180.53 129.292 1177.99 127.151 Q1176.16 125.679 1173.57 125.679 Q1170.54 125.679 1168.18 128.4 Q1164.97 132.102 1163.81 140.041 Q1162.65 147.98 1162.65 155.696 Z" fill="#000000" fill-rule="nonzero" fill-opacity="1"></path><path clip-path="url(#clip580)" d="M1199.58 154.581 Q1199.58 144.233 1202.7 136.785 Q1205.82 129.292 1210.99 125.634 Q1215.01 122.735 1219.29 122.735 Q1226.25 122.735 1231.78 129.827 Q1238.69 138.613 1238.69 153.644 Q1238.69 164.17 1235.66 171.529 Q1232.63 178.889 1227.9 182.234 Q1223.22 185.534 1218.84 185.534 Q1210.19 185.534 1204.44 175.321 Q1199.58 166.712 1199.58 154.581 M1208.32 155.696 Q1208.32 168.184 1211.4 176.079 Q1213.94 182.725 1218.98 182.725 Q1221.39 182.725 1223.97 180.584 Q1226.56 178.398 1227.9 173.314 Q1229.95 165.642 1229.95 151.682 Q1229.95 141.334 1227.81 134.421 Q1226.2 129.292 1223.66 127.151 Q1221.83 125.679 1219.25 125.679 Q1216.21 125.679 1213.85 128.4 Q1210.64 132.102 1209.48 140.041 Q1208.32 147.98 1208.32 155.696 Z" fill="#000000" fill-rule="nonzero" fill-opacity="1"></path><path clip-path="url(#clip580)" d="M1246.85 199.673 L1246.85 197.711 Q1251.45 196.194 1253.95 192.983 Q1256.49 189.816 1256.49 186.248 Q1256.49 185.401 1256.09 184.821 Q1255.77 184.419 1255.46 184.419 Q1254.97 184.419 1253.32 185.311 Q1252.52 185.713 1251.63 185.713 Q1249.44 185.713 1248.15 184.419 Q1246.85 183.126 1246.85 180.851 Q1246.85 178.666 1248.5 177.105 Q1250.2 175.544 1252.61 175.544 Q1255.55 175.544 1257.83 178.131 Q1260.15 180.673 1260.15 184.91 Q1260.15 189.504 1256.93 193.429 Q1253.77 197.399 1246.85 199.673 Z" fill="#000000" fill-rule="nonzero" fill-opacity="1"></path><path clip-path="url(#clip580)" d="M1301.67 150.656 Q1307.6 142.405 1314.47 142.405 Q1320.76 142.405 1325.44 147.801 Q1330.13 153.154 1330.13 162.475 Q1330.13 173.358 1322.9 180.004 Q1316.7 185.713 1309.07 185.713 Q1305.51 185.713 1301.8 184.419 Q1298.15 183.126 1294.31 180.539 L1294.31 138.212 Q1294.31 131.254 1293.95 129.648 Q1293.64 128.043 1292.93 127.463 Q1292.21 126.883 1291.14 126.883 Q1289.9 126.883 1288.02 127.597 L1287.4 126.036 L1299.66 121.04 L1301.67 121.04 L1301.67 150.656 M1301.67 153.51 L1301.67 177.952 Q1303.94 180.182 1306.35 181.342 Q1308.81 182.457 1311.35 182.457 Q1315.41 182.457 1318.89 177.997 Q1322.41 173.537 1322.41 165.018 Q1322.41 157.168 1318.89 152.975 Q1315.41 148.738 1310.95 148.738 Q1308.58 148.738 1306.22 149.942 Q1304.44 150.834 1301.67 153.51 Z" fill="#000000" fill-rule="nonzero" fill-opacity="1"></path><path clip-path="url(#clip580)" d="M1357.78 145.081 L1405.9 145.081 L1405.9 148.738 L1357.78 148.738 L1357.78 145.081 M1357.78 159.621 L1405.9 159.621 L1405.9 163.278 L1357.78 163.278 L1357.78 159.621 Z" fill="#000000" fill-rule="nonzero" fill-opacity="1"></path><path clip-path="url(#clip580)" d="M1435.12 135.491 Q1437.71 129.381 1441.63 126.08 Q1445.6 122.735 1451.49 122.735 Q1458.76 122.735 1462.64 127.463 Q1465.58 130.986 1465.58 135.001 Q1465.58 141.602 1457.29 148.649 Q1462.86 150.834 1465.72 154.893 Q1468.57 158.952 1468.57 164.438 Q1468.57 172.288 1463.57 178.041 Q1457.06 185.534 1444.71 185.534 Q1438.6 185.534 1436.37 184.018 Q1434.18 182.502 1434.18 180.762 Q1434.18 179.469 1435.21 178.487 Q1436.28 177.506 1437.75 177.506 Q1438.86 177.506 1440.02 177.863 Q1440.78 178.086 1443.46 179.513 Q1446.14 180.896 1447.16 181.163 Q1448.81 181.654 1450.68 181.654 Q1455.23 181.654 1458.58 178.131 Q1461.97 174.607 1461.97 169.79 Q1461.97 166.266 1460.41 162.921 Q1459.25 160.424 1457.87 159.13 Q1455.95 157.346 1452.6 155.919 Q1449.26 154.447 1445.78 154.447 L1444.35 154.447 L1444.35 153.109 Q1447.87 152.663 1451.4 150.567 Q1454.97 148.47 1456.57 145.527 Q1458.18 142.583 1458.18 139.059 Q1458.18 134.465 1455.28 131.656 Q1452.42 128.801 1448.14 128.801 Q1441.23 128.801 1436.59 136.205 L1435.12 135.491 Z" fill="#000000" fill-rule="nonzero" fill-opacity="1"></path><path clip-path="url(#clip580)" d="M1479.45 154.581 Q1479.45 144.233 1482.57 136.785 Q1485.7 129.292 1490.87 125.634 Q1494.88 122.735 1499.17 122.735 Q1506.12 122.735 1511.66 129.827 Q1518.57 138.613 1518.57 153.644 Q1518.57 164.17 1515.54 171.529 Q1512.5 178.889 1507.77 182.234 Q1503.09 185.534 1498.72 185.534 Q1490.07 185.534 1484.31 175.321 Q1479.45 166.712 1479.45 154.581 M1488.19 155.696 Q1488.19 168.184 1491.27 176.079 Q1493.81 182.725 1498.85 182.725 Q1501.26 182.725 1503.85 180.584 Q1506.44 178.398 1507.77 173.314 Q1509.83 165.642 1509.83 151.682 Q1509.83 141.334 1507.69 134.421 Q1506.08 129.292 1503.54 127.151 Q1501.71 125.679 1499.12 125.679 Q1496.09 125.679 1493.73 128.4 Q1490.51 132.102 1489.35 140.041 Q1488.19 147.98 1488.19 155.696 Z" fill="#000000" fill-rule="nonzero" fill-opacity="1"></path><path clip-path="url(#clip580)" d="M1526.73 199.673 L1526.73 197.711 Q1531.32 196.194 1533.82 192.983 Q1536.36 189.816 1536.36 186.248 Q1536.36 185.401 1535.96 184.821 Q1535.65 184.419 1535.34 184.419 Q1534.85 184.419 1533.2 185.311 Q1532.39 185.713 1531.5 185.713 Q1529.32 185.713 1528.02 184.419 Q1526.73 183.126 1526.73 180.851 Q1526.73 178.666 1528.38 177.105 Q1530.08 175.544 1532.48 175.544 Q1535.43 175.544 1537.7 178.131 Q1540.02 180.673 1540.02 184.91 Q1540.02 189.504 1536.81 193.429 Q1533.64 197.399 1526.73 199.673 Z" fill="#000000" fill-rule="nonzero" fill-opacity="1"></path><path clip-path="url(#clip580)" d="M1614.91 143.609 L1614.91 150.121 L1597.51 150.121 Q1603.22 153.377 1606.84 158.372 Q1610.45 163.323 1610.45 168.898 Q1610.45 176.168 1604.69 180.94 Q1598.99 185.713 1591.72 185.713 Q1583.11 185.713 1576.86 178.978 Q1570.62 172.199 1570.62 163.234 Q1570.62 156.9 1573.87 152.039 Q1577.18 147.177 1581.5 145.393 Q1585.87 143.609 1593.28 143.609 L1614.91 143.609 M1594.53 150.121 L1592.96 150.121 Q1586.27 150.121 1582.26 153.466 Q1578.29 156.766 1578.29 163.858 Q1578.29 171.396 1582.48 177.194 Q1586.68 182.948 1592.3 182.948 Q1596.8 182.948 1599.74 178.621 Q1602.69 174.25 1602.69 168.095 Q1602.69 158.327 1594.53 150.121 Z" fill="#000000" fill-rule="nonzero" fill-opacity="1"></path><path clip-path="url(#clip580)" d="M1641.22 145.081 L1689.35 145.081 L1689.35 148.738 L1641.22 148.738 L1641.22 145.081 M1641.22 159.621 L1689.35 159.621 L1689.35 163.278 L1641.22 163.278 L1641.22 159.621 Z" fill="#000000" fill-rule="nonzero" fill-opacity="1"></path><path clip-path="url(#clip580)" d="M1718.56 135.491 Q1721.15 129.381 1725.07 126.08 Q1729.04 122.735 1734.93 122.735 Q1742.2 122.735 1746.08 127.463 Q1749.03 130.986 1749.03 135.001 Q1749.03 141.602 1740.73 148.649 Q1746.3 150.834 1749.16 154.893 Q1752.01 158.952 1752.01 164.438 Q1752.01 172.288 1747.02 178.041 Q1740.51 185.534 1728.15 185.534 Q1722.04 185.534 1719.81 184.018 Q1717.63 182.502 1717.63 180.762 Q1717.63 179.469 1718.65 178.487 Q1719.72 177.506 1721.19 177.506 Q1722.31 177.506 1723.47 177.863 Q1724.23 178.086 1726.9 179.513 Q1729.58 180.896 1730.61 181.163 Q1732.26 181.654 1734.13 181.654 Q1738.68 181.654 1742.02 178.131 Q1745.41 174.607 1745.41 169.79 Q1745.41 166.266 1743.85 162.921 Q1742.69 160.424 1741.31 159.13 Q1739.39 157.346 1736.05 155.919 Q1732.7 154.447 1729.22 154.447 L1727.8 154.447 L1727.8 153.109 Q1731.32 152.663 1734.84 150.567 Q1738.41 148.47 1740.02 145.527 Q1741.62 142.583 1741.62 139.059 Q1741.62 134.465 1738.72 131.656 Q1735.87 128.801 1731.59 128.801 Q1724.67 128.801 1720.03 136.205 L1718.56 135.491 Z" fill="#000000" fill-rule="nonzero" fill-opacity="1"></path><polyline clip-path="url(#clip582)" style="stroke:#009af9; stroke-linecap:round; stroke-linejoin:round; stroke-width:4; stroke-opacity:1; fill:none" points="836.238,278.451 922.947,278.451 922.947,328.806 923.083,328.806 923.083,443.747 934.554,443.747 934.554,518.276 946.297,518.276 959.133,518.276 959.133,520.374 959.133,525.117 959.133,548.014 1042.7,548.014 1047.48,548.014 1047.48,551.937 1049.8,551.937 1049.8,557.958 1059.22,557.958 1061.27,557.958 1061.27,559.052 1061.82,559.052 1064.41,559.052 1067.42,559.052 1067.42,559.6 1067.55,559.6 1067.55,562.063 1068.1,562.063 1072.06,562.063 1074.79,562.063 1076.57,562.063 1079.43,562.063 1082.57,562.063 1084.89,562.063 1084.89,576.293 1089.26,576.293 1092,576.293 1093.22,576.293 1096.5,576.293 1105.24,576.293 1107.83,576.293 1107.83,584.23 1109.06,584.23 1110.02,584.23 1111.79,584.23 1113.57,584.23 1113.57,594.355 1119.03,594.355 1121.08,594.355 1122.04,594.355 1123.26,594.355 1125.04,594.355 1130.09,594.355 1131.18,594.355 1131.87,594.355 1132.41,594.355 1134.46,594.355 1134.46,601.653 1171.74,601.653 1171.74,667.972 1172.42,667.972 1174.33,667.972 1184.99,667.972 1184.99,727.723 1186.9,727.723 1189.49,727.723 1190.17,727.723 1190.72,727.723 1192.91,727.723 1195.23,727.723 1195.23,764.212 1196.87,764.212 1198.91,764.212 1200.69,764.212 1351.44,764.212 1352.12,764.212 1352.12,770.142 1357.99,770.142 1365.37,770.142 1374.65,770.142 1382.03,770.142 1386.94,770.142 1397.05,770.142 1402.78,770.142 1406.88,770.142 1406.88,810.462 1412.34,810.462 1417.26,810.462 1420.94,810.462 1425.18,810.462 1431.05,810.462 1436.24,810.462 1443.2,810.462 1443.2,811.009 1443.2,820.679 1451.53,820.679 1457.81,820.679 1463.55,820.679 1468.33,820.679 1474.61,820.679 1474.61,822.047 1474.61,831.534 1481.57,831.534 1487.58,831.534 1493.72,831.534 1502.87,831.534 1502.87,842.299 1508.33,842.299 1515.43,842.299 1562.68,842.299 1577.16,842.299 1577.16,842.481 1577.16,848.411 1584.53,848.411 1592.18,848.411 1599.28,848.411 1607.06,848.411 1613.61,848.411 1619.49,848.411 1626.45,848.411 1634.92,848.411 1641.06,848.411 1651.57,848.411 1659.36,848.411 1666.46,848.411 1675.33,848.411 1684.62,848.411 1694.18,848.411 1704.69,848.411 1716.03,848.411 1728.18,848.411 1738.42,848.411 1749.21,848.411 1760.4,848.411 1773.38,848.411 1785.53,848.411 1797.14,848.411 1809.7,848.411 1824.31,848.411 1840.01,848.411 1855.99,848.411 1871.15,848.411 1886.44,848.411 1904.33,848.411 1922.22,848.411 1939.28,848.411 1958.95,848.411 1978.47,848.411 2000.59,848.411 2023.26,848.411 2044.84,848.411 2069.01,848.411 2092.22,848.411 2092.22,848.776 2117.48,848.776 2145.06,848.776 2169.92,848.776 2169.92,850.509 2204.6,850.509 2237.24,850.509 2265.91,850.509 2302.51,850.509 2328.18,850.509 "></polyline>
<polyline clip-path="url(#clip582)" style="stroke:#000000; stroke-linecap:round; stroke-linejoin:round; stroke-width:4; stroke-opacity:1; fill:none" stroke-dasharray="16, 10" points="363.641,1328.68 363.777,1328.68 363.914,1328.68 363.914,1328.68 363.914,1328.66 363.914,1328.64 364.05,1328.64 364.05,1328.62 364.05,1328.59 364.05,1328.55 364.05,1328.52 364.187,1328.52 364.187,1328.49 368.693,1328.49 368.693,1289.67 368.829,1289.67 368.829,1289.6 368.829,1289.53 368.966,1289.53 368.966,1289.44 369.103,1289.44 369.103,1288.68 369.239,1288.68 369.239,1288.57 369.376,1288.57 369.376,1288.45 369.376,1288.33 369.512,1288.33 369.512,1288.21 369.649,1288.21 369.649,1288.11 369.785,1288.11 369.785,1288.03 373.745,1288.03 373.745,1269.17 373.745,1269.12 373.745,1269.05 373.882,1269.05 373.882,1268.96 374.018,1268.96 374.018,1268.67 374.428,1268.67 374.428,1267.84 374.428,1267.83 374.428,1267.83 374.701,1267.83 374.701,1267.53 374.838,1267.53 374.838,1267.46 378.798,1267.46 378.798,1245.28 381.255,1245.28 381.255,1236.42 382.211,1236.42 382.211,1233.65 382.894,1233.65 382.894,1233.12 383.031,1233.12 383.031,1233.09 386.171,1233.09 386.171,1223.69 390.268,1223.69 390.268,1217.78 391.633,1217.78 391.633,1215.94 391.77,1215.94 391.77,1215.93 391.77,1215.92 391.906,1215.92 391.906,1215.92 391.906,1215.91 391.906,1215.9 392.043,1215.9 392.043,1215.89 392.043,1215.88 392.179,1215.88 392.179,1215.87 392.179,1215.87 392.726,1215.87 392.726,1215.66 392.726,1215.66 392.726,1215.66 392.726,1215.66 392.726,1215.65 392.862,1215.65 392.862,1215.65 392.862,1215.65 392.862,1215.65 395.047,1215.65 395.047,1210.24 396.959,1210.24 396.959,1208.54 398.051,1208.54 398.051,1208.09 398.324,1208.09 398.324,1208.04 401.192,1208.04 401.192,1203.95 401.192,1203.94 401.328,1203.94 401.328,1203.94 401.465,1203.94 401.465,1203.94 401.465,1203.94 401.465,1203.94 401.465,1203.94 401.601,1203.94 401.601,1203.94 402.557,1203.94 402.557,1203.39 402.557,1203.39 404.196,1203.39 404.196,1202.16 407.063,1202.16 407.063,1202.12 408.838,1202.12 408.838,1200.82 408.838,1200.82 408.838,1200.82 408.975,1200.82 408.975,1200.82 409.521,1200.82 409.521,1200.7 410.477,1200.7 410.477,1200.12 410.887,1200.12 450.759,1200.12 455.675,1200.12 459.908,1200.12 459.908,1199.33 464.824,1199.33 464.824,1197.56 474.246,1197.56 479.844,1197.56 479.844,1196.71 483.667,1196.71 486.125,1196.71 486.125,1195.41 492.816,1195.41 502.375,1195.41 502.375,1194.67 507.291,1194.67 512.889,1194.67 512.889,1194.08 519.034,1194.08 524.086,1194.08 530.094,1194.08 536.922,1194.08 541.701,1194.08 550.167,1194.08 556.312,1194.08 562.866,1194.08 566.826,1194.08 572.698,1194.08 581.027,1194.08 587.035,1194.08 593.453,1194.08 601.237,1194.08 608.474,1194.08 615.711,1194.08 623.084,1194.08 631.004,1194.08 638.515,1194.08 645.615,1194.08 652.716,1194.08 659.543,1194.08 666.371,1194.08 673.062,1194.08 680.572,1194.08 688.492,1194.08 695.729,1194.08 703.375,1194.08 711.022,1194.08 718.396,1194.08 725.633,1194.08 733.28,1194.08 741.063,1194.08 749.12,1194.08 757.449,1194.08 765.915,1194.08 774.654,1194.08 783.257,1194.08 792.133,1194.08 800.599,1194.08 809.065,1194.08 817.258,1194.08 825.86,1194.08 836.238,1194.08 922.947,1194.08 923.083,1194.08 934.554,1194.08 946.297,1194.08 946.297,1193.38 959.133,1193.38 1042.7,1193.38 1047.48,1193.38 1049.8,1193.38 1059.22,1193.38 1061.27,1193.38 1061.82,1193.38 1064.41,1193.38 1067.42,1193.38 1067.55,1193.38 1068.1,1193.38 1072.06,1193.38 1074.79,1193.38 1076.57,1193.38 1079.43,1193.38 1082.57,1193.38 1084.89,1193.38 1089.26,1193.38 1092,1193.38 1093.22,1193.38 1096.5,1193.38 1105.24,1193.38 1107.83,1193.38 1109.06,1193.38 1110.02,1193.38 1111.79,1193.38 1113.57,1193.38 1119.03,1193.38 1121.08,1193.38 1122.04,1193.38 1123.26,1193.38 1125.04,1193.38 1130.09,1193.38 1131.18,1193.38 1131.87,1193.38 1132.41,1193.38 1134.46,1193.38 1171.74,1193.38 1172.42,1193.38 1174.33,1193.38 1184.99,1193.38 1186.9,1193.38 1189.49,1193.38 1190.17,1193.38 1190.72,1193.38 1192.91,1193.38 1195.23,1193.38 1196.87,1193.38 1198.91,1193.38 1200.69,1193.38 1351.44,1193.38 1351.44,1187.17 1352.12,1187.17 1357.99,1187.17 1365.37,1187.17 1374.65,1187.17 1382.03,1187.17 1386.94,1187.17 1397.05,1187.17 1402.78,1187.17 1406.88,1187.17 1412.34,1187.17 1417.26,1187.17 1420.94,1187.17 1425.18,1187.17 1431.05,1187.17 1436.24,1187.17 1443.2,1187.17 1451.53,1187.17 1457.81,1187.17 1463.55,1187.17 1468.33,1187.17 1474.61,1187.17 1481.57,1187.17 1487.58,1187.17 1493.72,1187.17 1502.87,1187.17 1508.33,1187.17 1515.43,1187.17 1562.68,1187.17 1577.16,1187.17 1584.53,1187.17 1592.18,1187.17 1599.28,1187.17 1607.06,1187.17 1613.61,1187.17 1619.49,1187.17 1626.45,1187.17 1634.92,1187.17 1641.06,1187.17 1651.57,1187.17 1659.36,1187.17 1666.46,1187.17 1675.33,1187.17 1684.62,1187.17 1694.18,1187.17 1704.69,1187.17 1716.03,1187.17 1728.18,1187.17 1738.42,1187.17 1749.21,1187.17 1760.4,1187.17 1773.38,1187.17 1785.53,1187.17 1797.14,1187.17 1809.7,1187.17 1824.31,1187.17 1840.01,1187.17 1855.99,1187.17 1871.15,1187.17 1886.44,1187.17 1904.33,1187.17 1922.22,1187.17 1939.28,1187.17 1958.95,1187.17 1978.47,1187.17 2000.59,1187.17 2023.26,1187.17 2044.84,1187.17 2069.01,1187.17 2069.01,1184.8 2092.22,1184.8 2117.48,1184.8 2145.06,1184.8 2169.92,1184.8 2169.92,1183.93 2204.6,1183.93 2237.24,1183.93 2237.24,1182.45 2265.91,1182.45 2302.51,1182.45 2302.51,1182.09 2328.18,1182.09 "></polyline>
<path clip-path="url(#clip580)" d="M2017.93 439.572 L2286.39 439.572 L2286.39 284.052 L2017.93 284.052  Z" fill="#ffffff" fill-rule="evenodd" fill-opacity="1"></path>
<polyline clip-path="url(#clip580)" style="stroke:#000000; stroke-linecap:round; stroke-linejoin:round; stroke-width:4; stroke-opacity:1; fill:none" points="2017.93,439.572 2286.39,439.572 2286.39,284.052 2017.93,284.052 2017.93,439.572 "></polyline>
<polyline clip-path="url(#clip580)" style="stroke:#009af9; stroke-linecap:round; stroke-linejoin:round; stroke-width:4; stroke-opacity:1; fill:none" points="2040.05,335.892 2172.78,335.892 "></polyline>
<path clip-path="url(#clip580)" d="M2219.52 319.555 L2219.52 318.612 L2231.75 318.612 L2231.75 319.555 L2230.45 319.555 Q2228.41 319.555 2227.32 321.263 Q2226.78 322.053 2226.78 324.933 L2226.78 338.951 Q2226.78 344.15 2225.74 347.03 Q2224.72 349.885 2221.68 351.949 Q2218.68 353.988 2213.48 353.988 Q2207.82 353.988 2204.89 352.025 Q2201.96 350.063 2200.73 346.75 Q2199.92 344.481 2199.92 338.237 L2199.92 324.729 Q2199.92 321.543 2199.03 320.549 Q2198.16 319.555 2196.2 319.555 L2194.9 319.555 L2194.9 318.612 L2209.83 318.612 L2209.83 319.555 L2208.51 319.555 Q2206.37 319.555 2205.45 320.906 Q2204.81 321.824 2204.81 324.729 L2204.81 339.792 Q2204.81 341.805 2205.17 344.405 Q2205.55 347.005 2206.52 348.457 Q2207.49 349.91 2209.3 350.853 Q2211.13 351.796 2213.78 351.796 Q2217.17 351.796 2219.85 350.318 Q2222.52 348.84 2223.49 346.546 Q2224.49 344.227 2224.49 338.721 L2224.49 324.729 Q2224.49 321.492 2223.77 320.677 Q2222.78 319.555 2220.82 319.555 L2219.52 319.555 Z" fill="#000000" fill-rule="nonzero" fill-opacity="1"></path><path clip-path="url(#clip580)" d="M2256.42 335.536 Q2260.02 336.3 2261.8 337.982 Q2264.27 340.327 2264.27 343.717 Q2264.27 346.291 2262.64 348.661 Q2261.01 351.006 2258.16 352.102 Q2255.33 353.172 2249.49 353.172 L2233.18 353.172 L2233.18 352.229 L2234.48 352.229 Q2236.64 352.229 2237.59 350.853 Q2238.17 349.961 2238.17 347.056 L2238.17 324.729 Q2238.17 321.518 2237.43 320.677 Q2236.44 319.555 2234.48 319.555 L2233.18 319.555 L2233.18 318.612 L2248.11 318.612 Q2252.29 318.612 2254.82 319.224 Q2258.64 320.142 2260.65 322.486 Q2262.67 324.806 2262.67 327.839 Q2262.67 330.438 2261.09 332.503 Q2259.51 334.542 2256.42 335.536 M2243.07 334.159 Q2244.01 334.338 2245.21 334.44 Q2246.43 334.516 2247.88 334.516 Q2251.6 334.516 2253.47 333.726 Q2255.35 332.91 2256.35 331.254 Q2257.34 329.597 2257.34 327.635 Q2257.34 324.602 2254.87 322.461 Q2252.4 320.32 2247.65 320.32 Q2245.11 320.32 2243.07 320.881 L2243.07 334.159 M2243.07 350.675 Q2246.02 351.363 2248.9 351.363 Q2253.52 351.363 2255.94 349.298 Q2258.36 347.208 2258.36 344.15 Q2258.36 342.137 2257.26 340.276 Q2256.17 338.416 2253.69 337.345 Q2251.22 336.275 2247.58 336.275 Q2246 336.275 2244.88 336.326 Q2243.76 336.377 2243.07 336.504 L2243.07 350.675 Z" fill="#000000" fill-rule="nonzero" fill-opacity="1"></path><polyline clip-path="url(#clip580)" style="stroke:#000000; stroke-linecap:round; stroke-linejoin:round; stroke-width:4; stroke-opacity:1; fill:none" stroke-dasharray="16, 10" points="2040.05,387.732 2172.78,387.732 "></polyline>
<path clip-path="url(#clip580)" d="M2223.77 395.455 L2224.61 395.633 L2221.66 405.012 L2194.9 405.012 L2194.9 404.069 L2196.2 404.069 Q2198.39 404.069 2199.33 402.642 Q2199.87 401.827 2199.87 398.87 L2199.87 376.569 Q2199.87 373.332 2199.15 372.517 Q2198.16 371.395 2196.2 371.395 L2194.9 371.395 L2194.9 370.452 L2210.55 370.452 L2210.55 371.395 Q2207.79 371.37 2206.67 371.905 Q2205.58 372.44 2205.17 373.256 Q2204.76 374.071 2204.76 377.155 L2204.76 398.87 Q2204.76 400.985 2205.17 401.776 Q2205.47 402.311 2206.11 402.566 Q2206.75 402.821 2210.09 402.821 L2212.61 402.821 Q2216.59 402.821 2218.19 402.234 Q2219.8 401.648 2221.12 400.17 Q2222.45 398.666 2223.77 395.455 Z" fill="#000000" fill-rule="nonzero" fill-opacity="1"></path><path clip-path="url(#clip580)" d="M2249.85 387.376 Q2253.44 388.14 2255.22 389.822 Q2257.7 392.167 2257.7 395.557 Q2257.7 398.131 2256.07 400.501 Q2254.43 402.846 2251.58 403.942 Q2248.75 405.012 2242.91 405.012 L2226.6 405.012 L2226.6 404.069 L2227.9 404.069 Q2230.07 404.069 2231.01 402.693 Q2231.6 401.801 2231.6 398.896 L2231.6 376.569 Q2231.6 373.358 2230.86 372.517 Q2229.86 371.395 2227.9 371.395 L2226.6 371.395 L2226.6 370.452 L2241.54 370.452 Q2245.72 370.452 2248.24 371.064 Q2252.06 371.982 2254.08 374.326 Q2256.09 376.646 2256.09 379.679 Q2256.09 382.278 2254.51 384.343 Q2252.93 386.382 2249.85 387.376 M2236.49 385.999 Q2237.43 386.178 2238.63 386.28 Q2239.86 386.356 2241.31 386.356 Q2245.03 386.356 2246.89 385.566 Q2248.78 384.75 2249.77 383.094 Q2250.76 381.437 2250.76 379.475 Q2250.76 376.442 2248.29 374.301 Q2245.82 372.16 2241.08 372.16 Q2238.53 372.16 2236.49 372.721 L2236.49 385.999 M2236.49 402.515 Q2239.45 403.203 2242.33 403.203 Q2246.94 403.203 2249.36 401.138 Q2251.78 399.048 2251.78 395.99 Q2251.78 393.977 2250.69 392.116 Q2249.59 390.256 2247.12 389.185 Q2244.65 388.115 2241 388.115 Q2239.42 388.115 2238.3 388.166 Q2237.18 388.217 2236.49 388.344 L2236.49 402.515 Z" fill="#000000" fill-rule="nonzero" fill-opacity="1"></path></svg>