<svg xmlns="http://www.w3.org/2000/svg" xmlns:xlink="http://www.w3.org/1999/xlink" width="600" height="400" viewBox="0 0 2400 1600">
<defs>
  <clipPath id="clip600">
    <rect x="0" y="0" width="2400" height="1600"></rect>
  </clipPath>
</defs>
<path clip-path="url(#clip600)" d="M0 1600 L2400 1600 L2400 0 L0 0  Z" fill="#ffffff" fill-rule="evenodd" fill-opacity="1"></path>
<defs>
  <clipPath id="clip601">
    <rect x="480" y="0" width="1681" height="1600"></rect>
  </clipPath>
</defs>
<path clip-path="url(#clip600)" d="M275.136 1486.45 L2352.76 1486.45 L2352.76 47.2441 L275.136 47.2441  Z" fill="#ffffff" fill-rule="evenodd" fill-opacity="1"></path>
<defs>
  <clipPath id="clip602">
    <rect x="275" y="47" width="2079" height="1440"></rect>
  </clipPath>
</defs>
<polyline clip-path="url(#clip602)" style="stroke:#000000; stroke-linecap:round; stroke-linejoin:round; stroke-width:2; stroke-opacity:0.1; fill:none" points="325.068,1486.45 325.068,47.2441 "></polyline>
<polyline clip-path="url(#clip602)" style="stroke:#000000; stroke-linecap:round; stroke-linejoin:round; stroke-width:2; stroke-opacity:0.1; fill:none" points="997.17,1486.45 997.17,47.2441 "></polyline>
<polyline clip-path="url(#clip602)" style="stroke:#000000; stroke-linecap:round; stroke-linejoin:round; stroke-width:2; stroke-opacity:0.1; fill:none" points="1669.27,1486.45 1669.27,47.2441 "></polyline>
<polyline clip-path="url(#clip602)" style="stroke:#000000; stroke-linecap:round; stroke-linejoin:round; stroke-width:2; stroke-opacity:0.1; fill:none" points="2341.37,1486.45 2341.37,47.2441 "></polyline>
<polyline clip-path="url(#clip600)" style="stroke:#000000; stroke-linecap:round; stroke-linejoin:round; stroke-width:4; stroke-opacity:1; fill:none" points="275.136,1486.45 2352.76,1486.45 "></polyline>
<polyline clip-path="url(#clip600)" style="stroke:#000000; stroke-linecap:round; stroke-linejoin:round; stroke-width:4; stroke-opacity:1; fill:none" points="325.068,1486.45 325.068,1467.55 "></polyline>
<polyline clip-path="url(#clip600)" style="stroke:#000000; stroke-linecap:round; stroke-linejoin:round; stroke-width:4; stroke-opacity:1; fill:none" points="997.17,1486.45 997.17,1467.55 "></polyline>
<polyline clip-path="url(#clip600)" style="stroke:#000000; stroke-linecap:round; stroke-linejoin:round; stroke-width:4; stroke-opacity:1; fill:none" points="1669.27,1486.45 1669.27,1467.55 "></polyline>
<polyline clip-path="url(#clip600)" style="stroke:#000000; stroke-linecap:round; stroke-linejoin:round; stroke-width:4; stroke-opacity:1; fill:none" points="2341.37,1486.45 2341.37,1467.55 "></polyline>
<path clip-path="url(#clip600)" d="M325.068 1517.37 Q321.457 1517.37 319.628 1520.93 Q317.823 1524.47 317.823 1531.6 Q317.823 1538.71 319.628 1542.27 Q321.457 1545.82 325.068 1545.82 Q328.702 1545.82 330.508 1542.27 Q332.337 1538.71 332.337 1531.6 Q332.337 1524.47 330.508 1520.93 Q328.702 1517.37 325.068 1517.37 M325.068 1513.66 Q330.878 1513.66 333.934 1518.27 Q337.013 1522.85 337.013 1531.6 Q337.013 1540.33 333.934 1544.94 Q330.878 1549.52 325.068 1549.52 Q319.258 1549.52 316.179 1544.94 Q313.124 1540.33 313.124 1531.6 Q313.124 1522.85 316.179 1518.27 Q319.258 1513.66 325.068 1513.66 Z" fill="#000000" fill-rule="nonzero" fill-opacity="1"></path><path clip-path="url(#clip600)" d="M956.777 1544.91 L964.415 1544.91 L964.415 1518.55 L956.105 1520.21 L956.105 1515.95 L964.369 1514.29 L969.045 1514.29 L969.045 1544.91 L976.684 1544.91 L976.684 1548.85 L956.777 1548.85 L956.777 1544.91 Z" fill="#000000" fill-rule="nonzero" fill-opacity="1"></path><path clip-path="url(#clip600)" d="M996.128 1517.37 Q992.517 1517.37 990.688 1520.93 Q988.883 1524.47 988.883 1531.6 Q988.883 1538.71 990.688 1542.27 Q992.517 1545.82 996.128 1545.82 Q999.762 1545.82 1001.57 1542.27 Q1003.4 1538.71 1003.4 1531.6 Q1003.4 1524.47 1001.57 1520.93 Q999.762 1517.37 996.128 1517.37 M996.128 1513.66 Q1001.94 1513.66 1004.99 1518.27 Q1008.07 1522.85 1008.07 1531.6 Q1008.07 1540.33 1004.99 1544.94 Q1001.94 1549.52 996.128 1549.52 Q990.318 1549.52 987.239 1544.94 Q984.184 1540.33 984.184 1531.6 Q984.184 1522.85 987.239 1518.27 Q990.318 1513.66 996.128 1513.66 Z" fill="#000000" fill-rule="nonzero" fill-opacity="1"></path><path clip-path="url(#clip600)" d="M1026.29 1517.37 Q1022.68 1517.37 1020.85 1520.93 Q1019.04 1524.47 1019.04 1531.6 Q1019.04 1538.71 1020.85 1542.27 Q1022.68 1545.82 1026.29 1545.82 Q1029.92 1545.82 1031.73 1542.27 Q1033.56 1538.71 1033.56 1531.6 Q1033.56 1524.47 1031.73 1520.93 Q1029.92 1517.37 1026.29 1517.37 M1026.29 1513.66 Q1032.1 1513.66 1035.16 1518.27 Q1038.23 1522.85 1038.23 1531.6 Q1038.23 1540.33 1035.16 1544.94 Q1032.1 1549.52 1026.29 1549.52 Q1020.48 1549.52 1017.4 1544.94 Q1014.35 1540.33 1014.35 1531.6 Q1014.35 1522.85 1017.4 1518.27 Q1020.48 1513.66 1026.29 1513.66 Z" fill="#000000" fill-rule="nonzero" fill-opacity="1"></path><path clip-path="url(#clip600)" d="M1632.96 1544.91 L1649.28 1544.91 L1649.28 1548.85 L1627.34 1548.85 L1627.34 1544.91 Q1630 1542.16 1634.58 1537.53 Q1639.19 1532.88 1640.37 1531.53 Q1642.62 1529.01 1643.5 1527.27 Q1644.4 1525.51 1644.4 1523.82 Q1644.4 1521.07 1642.45 1519.33 Q1640.53 1517.6 1637.43 1517.6 Q1635.23 1517.6 1632.78 1518.36 Q1630.35 1519.13 1627.57 1520.68 L1627.57 1515.95 Q1630.39 1514.82 1632.85 1514.24 Q1635.3 1513.66 1637.34 1513.66 Q1642.71 1513.66 1645.9 1516.35 Q1649.1 1519.03 1649.1 1523.52 Q1649.1 1525.65 1648.29 1527.57 Q1647.5 1529.47 1645.39 1532.07 Q1644.82 1532.74 1641.71 1535.95 Q1638.61 1539.15 1632.96 1544.91 Z" fill="#000000" fill-rule="nonzero" fill-opacity="1"></path><path clip-path="url(#clip600)" d="M1669.1 1517.37 Q1665.49 1517.37 1663.66 1520.93 Q1661.85 1524.47 1661.85 1531.6 Q1661.85 1538.71 1663.66 1542.27 Q1665.49 1545.82 1669.1 1545.82 Q1672.73 1545.82 1674.54 1542.27 Q1676.37 1538.71 1676.37 1531.6 Q1676.37 1524.47 1674.54 1520.93 Q1672.73 1517.37 1669.1 1517.37 M1669.1 1513.66 Q1674.91 1513.66 1677.96 1518.27 Q1681.04 1522.85 1681.04 1531.6 Q1681.04 1540.33 1677.96 1544.94 Q1674.91 1549.52 1669.1 1549.52 Q1663.29 1549.52 1660.21 1544.94 Q1657.15 1540.33 1657.15 1531.6 Q1657.15 1522.85 1660.21 1518.27 Q1663.29 1513.66 1669.1 1513.66 Z" fill="#000000" fill-rule="nonzero" fill-opacity="1"></path><path clip-path="url(#clip600)" d="M1699.26 1517.37 Q1695.65 1517.37 1693.82 1520.93 Q1692.01 1524.47 1692.01 1531.6 Q1692.01 1538.71 1693.82 1542.27 Q1695.65 1545.82 1699.26 1545.82 Q1702.89 1545.82 1704.7 1542.27 Q1706.53 1538.71 1706.53 1531.6 Q1706.53 1524.47 1704.7 1520.93 Q1702.89 1517.37 1699.26 1517.37 M1699.26 1513.66 Q1705.07 1513.66 1708.13 1518.27 Q1711.2 1522.85 1711.2 1531.6 Q1711.2 1540.33 1708.13 1544.94 Q1705.07 1549.52 1699.26 1549.52 Q1693.45 1549.52 1690.37 1544.94 Q1687.32 1540.33 1687.32 1531.6 Q1687.32 1522.85 1690.37 1518.27 Q1693.45 1513.66 1699.26 1513.66 Z" fill="#000000" fill-rule="nonzero" fill-opacity="1"></path><path clip-path="url(#clip600)" d="M2315.14 1530.21 Q2318.49 1530.93 2320.37 1533.2 Q2322.26 1535.47 2322.26 1538.8 Q2322.26 1543.92 2318.75 1546.72 Q2315.23 1549.52 2308.75 1549.52 Q2306.57 1549.52 2304.26 1549.08 Q2301.96 1548.66 2299.51 1547.81 L2299.51 1543.29 Q2301.45 1544.43 2303.77 1545.01 Q2306.08 1545.58 2308.61 1545.58 Q2313.01 1545.58 2315.3 1543.85 Q2317.61 1542.11 2317.61 1538.8 Q2317.61 1535.75 2315.46 1534.03 Q2313.33 1532.3 2309.51 1532.3 L2305.48 1532.3 L2305.48 1528.45 L2309.7 1528.45 Q2313.14 1528.45 2314.97 1527.09 Q2316.8 1525.7 2316.8 1523.11 Q2316.8 1520.45 2314.9 1519.03 Q2313.03 1517.6 2309.51 1517.6 Q2307.59 1517.6 2305.39 1518.01 Q2303.19 1518.43 2300.55 1519.31 L2300.55 1515.14 Q2303.21 1514.4 2305.53 1514.03 Q2307.87 1513.66 2309.93 1513.66 Q2315.25 1513.66 2318.35 1516.09 Q2321.45 1518.5 2321.45 1522.62 Q2321.45 1525.49 2319.81 1527.48 Q2318.17 1529.45 2315.14 1530.21 Z" fill="#000000" fill-rule="nonzero" fill-opacity="1"></path><path clip-path="url(#clip600)" d="M2341.13 1517.37 Q2337.52 1517.37 2335.69 1520.93 Q2333.88 1524.47 2333.88 1531.6 Q2333.88 1538.71 2335.69 1542.27 Q2337.52 1545.82 2341.13 1545.82 Q2344.76 1545.82 2346.57 1542.27 Q2348.4 1538.71 2348.4 1531.6 Q2348.4 1524.47 2346.57 1520.93 Q2344.76 1517.37 2341.13 1517.37 M2341.13 1513.66 Q2346.94 1513.66 2350 1518.27 Q2353.07 1522.85 2353.07 1531.6 Q2353.07 1540.33 2350 1544.94 Q2346.94 1549.52 2341.13 1549.52 Q2335.32 1549.52 2332.24 1544.94 Q2329.19 1540.33 2329.19 1531.6 Q2329.19 1522.85 2332.24 1518.27 Q2335.32 1513.66 2341.13 1513.66 Z" fill="#000000" fill-rule="nonzero" fill-opacity="1"></path><path clip-path="url(#clip600)" d="M2371.29 1517.37 Q2367.68 1517.37 2365.85 1520.93 Q2364.05 1524.47 2364.05 1531.6 Q2364.05 1538.71 2365.85 1542.27 Q2367.68 1545.82 2371.29 1545.82 Q2374.93 1545.82 2376.73 1542.27 Q2378.56 1538.71 2378.56 1531.6 Q2378.56 1524.47 2376.73 1520.93 Q2374.93 1517.37 2371.29 1517.37 M2371.29 1513.66 Q2377.1 1513.66 2380.16 1518.27 Q2383.24 1522.85 2383.24 1531.6 Q2383.24 1540.33 2380.16 1544.94 Q2377.1 1549.52 2371.29 1549.52 Q2365.48 1549.52 2362.4 1544.94 Q2359.35 1540.33 2359.35 1531.6 Q2359.35 1522.85 2362.4 1518.27 Q2365.48 1513.66 2371.29 1513.66 Z" fill="#000000" fill-rule="nonzero" fill-opacity="1"></path><polyline clip-path="url(#clip602)" style="stroke:#000000; stroke-linecap:round; stroke-linejoin:round; stroke-width:2; stroke-opacity:0.1; fill:none" points="275.136,1249.89 2352.76,1249.89 "></polyline>
<polyline clip-path="url(#clip602)" style="stroke:#000000; stroke-linecap:round; stroke-linejoin:round; stroke-width:2; stroke-opacity:0.1; fill:none" points="275.136,966.398 2352.76,966.398 "></polyline>
<polyline clip-path="url(#clip602)" style="stroke:#000000; stroke-linecap:round; stroke-linejoin:round; stroke-width:2; stroke-opacity:0.1; fill:none" points="275.136,682.905 2352.76,682.905 "></polyline>
<polyline clip-path="url(#clip602)" style="stroke:#000000; stroke-linecap:round; stroke-linejoin:round; stroke-width:2; stroke-opacity:0.1; fill:none" points="275.136,399.413 2352.76,399.413 "></polyline>
<polyline clip-path="url(#clip602)" style="stroke:#000000; stroke-linecap:round; stroke-linejoin:round; stroke-width:2; stroke-opacity:0.1; fill:none" points="275.136,115.92 2352.76,115.92 "></polyline>
<polyline clip-path="url(#clip600)" style="stroke:#000000; stroke-linecap:round; stroke-linejoin:round; stroke-width:4; stroke-opacity:1; fill:none" points="275.136,1486.45 275.136,47.2441 "></polyline>
<polyline clip-path="url(#clip600)" style="stroke:#000000; stroke-linecap:round; stroke-linejoin:round; stroke-width:4; stroke-opacity:1; fill:none" points="275.136,1249.89 294.034,1249.89 "></polyline>
<polyline clip-path="url(#clip600)" style="stroke:#000000; stroke-linecap:round; stroke-linejoin:round; stroke-width:4; stroke-opacity:1; fill:none" points="275.136,966.398 294.034,966.398 "></polyline>
<polyline clip-path="url(#clip600)" style="stroke:#000000; stroke-linecap:round; stroke-linejoin:round; stroke-width:4; stroke-opacity:1; fill:none" points="275.136,682.905 294.034,682.905 "></polyline>
<polyline clip-path="url(#clip600)" style="stroke:#000000; stroke-linecap:round; stroke-linejoin:round; stroke-width:4; stroke-opacity:1; fill:none" points="275.136,399.413 294.034,399.413 "></polyline>
<polyline clip-path="url(#clip600)" style="stroke:#000000; stroke-linecap:round; stroke-linejoin:round; stroke-width:4; stroke-opacity:1; fill:none" points="275.136,115.92 294.034,115.92 "></polyline>
<path clip-path="url(#clip600)" d="M67.9133 1254.98 Q71.2698 1255.7 73.1448 1257.97 Q75.0429 1260.24 75.0429 1263.57 Q75.0429 1268.69 71.5244 1271.49 Q68.0059 1274.29 61.5245 1274.29 Q59.3486 1274.29 57.0338 1273.85 Q54.7421 1273.43 52.2884 1272.58 L52.2884 1268.06 Q54.2328 1269.2 56.5477 1269.78 Q58.8625 1270.35 61.3856 1270.35 Q65.7837 1270.35 68.0754 1268.62 Q70.3902 1266.88 70.3902 1263.57 Q70.3902 1260.52 68.2374 1258.8 Q66.1078 1257.07 62.2884 1257.07 L58.2606 1257.07 L58.2606 1253.22 L62.4735 1253.22 Q65.9226 1253.22 67.7513 1251.86 Q69.58 1250.47 69.58 1247.88 Q69.58 1245.22 67.6819 1243.8 Q65.8069 1242.37 62.2884 1242.37 Q60.3671 1242.37 58.168 1242.78 Q55.969 1243.2 53.3301 1244.08 L53.3301 1239.91 Q55.9921 1239.17 58.3069 1238.8 Q60.6449 1238.43 62.705 1238.43 Q68.0291 1238.43 71.1309 1240.86 Q74.2327 1243.27 74.2327 1247.39 Q74.2327 1250.26 72.5892 1252.25 Q70.9457 1254.22 67.9133 1254.98 Z" fill="#000000" fill-rule="nonzero" fill-opacity="1"></path><path clip-path="url(#clip600)" d="M83.9086 1267.74 L88.7928 1267.74 L88.7928 1273.62 L83.9086 1273.62 L83.9086 1267.74 Z" fill="#000000" fill-rule="nonzero" fill-opacity="1"></path><path clip-path="url(#clip600)" d="M108.978 1242.14 Q105.367 1242.14 103.538 1245.7 Q101.733 1249.24 101.733 1256.37 Q101.733 1263.48 103.538 1267.04 Q105.367 1270.59 108.978 1270.59 Q112.612 1270.59 114.418 1267.04 Q116.246 1263.48 116.246 1256.37 Q116.246 1249.24 114.418 1245.7 Q112.612 1242.14 108.978 1242.14 M108.978 1238.43 Q114.788 1238.43 117.844 1243.04 Q120.922 1247.62 120.922 1256.37 Q120.922 1265.1 117.844 1269.71 Q114.788 1274.29 108.978 1274.29 Q103.168 1274.29 100.089 1269.71 Q97.0335 1265.1 97.0335 1256.37 Q97.0335 1247.62 100.089 1243.04 Q103.168 1238.43 108.978 1238.43 Z" fill="#000000" fill-rule="nonzero" fill-opacity="1"></path><path clip-path="url(#clip600)" d="M157.311 1248.16 L146.732 1258.78 L157.311 1269.36 L154.556 1272.16 L143.931 1261.53 L133.306 1272.16 L130.575 1269.36 L141.131 1258.78 L130.575 1248.16 L133.306 1245.35 L143.931 1255.98 L154.556 1245.35 L157.311 1248.16 Z" fill="#000000" fill-rule="nonzero" fill-opacity="1"></path><path clip-path="url(#clip600)" d="M169.672 1269.68 L177.311 1269.68 L177.311 1243.32 L169.001 1244.98 L169.001 1240.72 L177.265 1239.06 L181.94 1239.06 L181.94 1269.68 L189.579 1269.68 L189.579 1273.62 L169.672 1273.62 L169.672 1269.68 Z" fill="#000000" fill-rule="nonzero" fill-opacity="1"></path><path clip-path="url(#clip600)" d="M209.024 1242.14 Q205.413 1242.14 203.584 1245.7 Q201.778 1249.24 201.778 1256.37 Q201.778 1263.48 203.584 1267.04 Q205.413 1270.59 209.024 1270.59 Q212.658 1270.59 214.463 1267.04 Q216.292 1263.48 216.292 1256.37 Q216.292 1249.24 214.463 1245.7 Q212.658 1242.14 209.024 1242.14 M209.024 1238.43 Q214.834 1238.43 217.889 1243.04 Q220.968 1247.62 220.968 1256.37 Q220.968 1265.1 217.889 1269.71 Q214.834 1274.29 209.024 1274.29 Q203.214 1274.29 200.135 1269.71 Q197.079 1265.1 197.079 1256.37 Q197.079 1247.62 200.135 1243.04 Q203.214 1238.43 209.024 1238.43 Z" fill="#000000" fill-rule="nonzero" fill-opacity="1"></path><path clip-path="url(#clip600)" d="M222.153 1218.13 L237.068 1218.13 L237.068 1221.32 L225.632 1221.32 L225.632 1228.21 Q226.46 1227.93 227.287 1227.79 Q228.115 1227.64 228.943 1227.64 Q233.645 1227.64 236.39 1230.22 Q239.136 1232.8 239.136 1237.2 Q239.136 1241.73 236.315 1244.25 Q233.494 1246.75 228.36 1246.75 Q226.592 1246.75 224.748 1246.45 Q222.924 1246.15 220.968 1245.55 L220.968 1241.73 Q222.661 1242.65 224.466 1243.1 Q226.272 1243.56 228.284 1243.56 Q231.538 1243.56 233.438 1241.84 Q235.337 1240.13 235.337 1237.2 Q235.337 1234.26 233.438 1232.55 Q231.538 1230.84 228.284 1230.84 Q226.761 1230.84 225.237 1231.18 Q223.733 1231.52 222.153 1232.23 L222.153 1218.13 Z" fill="#000000" fill-rule="nonzero" fill-opacity="1"></path><path clip-path="url(#clip600)" d="M66.5939 959.639 L54.7884 978.088 L66.5939 978.088 L66.5939 959.639 M65.367 955.565 L71.2466 955.565 L71.2466 978.088 L76.1772 978.088 L76.1772 981.977 L71.2466 981.977 L71.2466 990.125 L66.5939 990.125 L66.5939 981.977 L50.9921 981.977 L50.9921 977.463 L65.367 955.565 Z" fill="#000000" fill-rule="nonzero" fill-opacity="1"></path><path clip-path="url(#clip600)" d="M83.9086 984.246 L88.7928 984.246 L88.7928 990.125 L83.9086 990.125 L83.9086 984.246 Z" fill="#000000" fill-rule="nonzero" fill-opacity="1"></path><path clip-path="url(#clip600)" d="M108.978 958.644 Q105.367 958.644 103.538 962.209 Q101.733 965.751 101.733 972.88 Q101.733 979.987 103.538 983.551 Q105.367 987.093 108.978 987.093 Q112.612 987.093 114.418 983.551 Q116.246 979.987 116.246 972.88 Q116.246 965.751 114.418 962.209 Q112.612 958.644 108.978 958.644 M108.978 954.94 Q114.788 954.94 117.844 959.547 Q120.922 964.13 120.922 972.88 Q120.922 981.607 117.844 986.213 Q114.788 990.797 108.978 990.797 Q103.168 990.797 100.089 986.213 Q97.0335 981.607 97.0335 972.88 Q97.0335 964.13 100.089 959.547 Q103.168 954.94 108.978 954.94 Z" fill="#000000" fill-rule="nonzero" fill-opacity="1"></path><path clip-path="url(#clip600)" d="M157.311 964.663 L146.732 975.288 L157.311 985.866 L154.556 988.667 L143.931 978.042 L133.306 988.667 L130.575 985.866 L141.131 975.288 L130.575 964.663 L133.306 961.862 L143.931 972.487 L154.556 961.862 L157.311 964.663 Z" fill="#000000" fill-rule="nonzero" fill-opacity="1"></path><path clip-path="url(#clip600)" d="M169.672 986.19 L177.311 986.19 L177.311 959.825 L169.001 961.491 L169.001 957.232 L177.265 955.565 L181.94 955.565 L181.94 986.19 L189.579 986.19 L189.579 990.125 L169.672 990.125 L169.672 986.19 Z" fill="#000000" fill-rule="nonzero" fill-opacity="1"></path><path clip-path="url(#clip600)" d="M209.024 958.644 Q205.413 958.644 203.584 962.209 Q201.778 965.751 201.778 972.88 Q201.778 979.987 203.584 983.551 Q205.413 987.093 209.024 987.093 Q212.658 987.093 214.463 983.551 Q216.292 979.987 216.292 972.88 Q216.292 965.751 214.463 962.209 Q212.658 958.644 209.024 958.644 M209.024 954.94 Q214.834 954.94 217.889 959.547 Q220.968 964.13 220.968 972.88 Q220.968 981.607 217.889 986.213 Q214.834 990.797 209.024 990.797 Q203.214 990.797 200.135 986.213 Q197.079 981.607 197.079 972.88 Q197.079 964.13 200.135 959.547 Q203.214 954.94 209.024 954.94 Z" fill="#000000" fill-rule="nonzero" fill-opacity="1"></path><path clip-path="url(#clip600)" d="M222.153 934.635 L237.068 934.635 L237.068 937.832 L225.632 937.832 L225.632 944.716 Q226.46 944.434 227.287 944.302 Q228.115 944.152 228.943 944.152 Q233.645 944.152 236.39 946.728 Q239.136 949.305 239.136 953.706 Q239.136 958.239 236.315 960.759 Q233.494 963.26 228.36 963.26 Q226.592 963.26 224.748 962.96 Q222.924 962.659 220.968 962.057 L220.968 958.239 Q222.661 959.16 224.466 959.612 Q226.272 960.063 228.284 960.063 Q231.538 960.063 233.438 958.352 Q235.337 956.64 235.337 953.706 Q235.337 950.772 233.438 949.061 Q231.538 947.349 228.284 947.349 Q226.761 947.349 225.237 947.688 Q223.733 948.026 222.153 948.741 L222.153 934.635 Z" fill="#000000" fill-rule="nonzero" fill-opacity="1"></path><path clip-path="url(#clip600)" d="M53.793 672.073 L72.1494 672.073 L72.1494 676.008 L58.0754 676.008 L58.0754 684.48 Q59.0939 684.133 60.1124 683.971 Q61.131 683.786 62.1495 683.786 Q67.9365 683.786 71.3161 686.957 Q74.6957 690.128 74.6957 695.545 Q74.6957 701.124 71.2235 704.225 Q67.7513 707.304 61.4319 707.304 Q59.256 707.304 56.9875 706.934 Q54.7421 706.563 52.3347 705.823 L52.3347 701.124 Q54.418 702.258 56.6402 702.813 Q58.8625 703.369 61.3393 703.369 Q65.3439 703.369 67.6819 701.263 Q70.0198 699.156 70.0198 695.545 Q70.0198 691.934 67.6819 689.827 Q65.3439 687.721 61.3393 687.721 Q59.4643 687.721 57.5893 688.138 Q55.7375 688.554 53.793 689.434 L53.793 672.073 Z" fill="#000000" fill-rule="nonzero" fill-opacity="1"></path><path clip-path="url(#clip600)" d="M83.9086 700.753 L88.7928 700.753 L88.7928 706.633 L83.9086 706.633 L83.9086 700.753 Z" fill="#000000" fill-rule="nonzero" fill-opacity="1"></path><path clip-path="url(#clip600)" d="M108.978 675.152 Q105.367 675.152 103.538 678.716 Q101.733 682.258 101.733 689.388 Q101.733 696.494 103.538 700.059 Q105.367 703.6 108.978 703.6 Q112.612 703.6 114.418 700.059 Q116.246 696.494 116.246 689.388 Q116.246 682.258 114.418 678.716 Q112.612 675.152 108.978 675.152 M108.978 671.448 Q114.788 671.448 117.844 676.054 Q120.922 680.638 120.922 689.388 Q120.922 698.114 117.844 702.721 Q114.788 707.304 108.978 707.304 Q103.168 707.304 100.089 702.721 Q97.0335 698.114 97.0335 689.388 Q97.0335 680.638 100.089 676.054 Q103.168 671.448 108.978 671.448 Z" fill="#000000" fill-rule="nonzero" fill-opacity="1"></path><path clip-path="url(#clip600)" d="M157.311 681.17 L146.732 691.795 L157.311 702.374 L154.556 705.175 L143.931 694.55 L133.306 705.175 L130.575 702.374 L141.131 691.795 L130.575 681.17 L133.306 678.369 L143.931 688.994 L154.556 678.369 L157.311 681.17 Z" fill="#000000" fill-rule="nonzero" fill-opacity="1"></path><path clip-path="url(#clip600)" d="M169.672 702.698 L177.311 702.698 L177.311 676.332 L169.001 677.999 L169.001 673.74 L177.265 672.073 L181.94 672.073 L181.94 702.698 L189.579 702.698 L189.579 706.633 L169.672 706.633 L169.672 702.698 Z" fill="#000000" fill-rule="nonzero" fill-opacity="1"></path><path clip-path="url(#clip600)" d="M209.024 675.152 Q205.413 675.152 203.584 678.716 Q201.778 682.258 201.778 689.388 Q201.778 696.494 203.584 700.059 Q205.413 703.6 209.024 703.6 Q212.658 703.6 214.463 700.059 Q216.292 696.494 216.292 689.388 Q216.292 682.258 214.463 678.716 Q212.658 675.152 209.024 675.152 M209.024 671.448 Q214.834 671.448 217.889 676.054 Q220.968 680.638 220.968 689.388 Q220.968 698.114 217.889 702.721 Q214.834 707.304 209.024 707.304 Q203.214 707.304 200.135 702.721 Q197.079 698.114 197.079 689.388 Q197.079 680.638 200.135 676.054 Q203.214 671.448 209.024 671.448 Z" fill="#000000" fill-rule="nonzero" fill-opacity="1"></path><path clip-path="url(#clip600)" d="M222.153 651.142 L237.068 651.142 L237.068 654.34 L225.632 654.34 L225.632 661.223 Q226.46 660.941 227.287 660.81 Q228.115 660.659 228.943 660.659 Q233.645 660.659 236.39 663.236 Q239.136 665.813 239.136 670.214 Q239.136 674.746 236.315 677.266 Q233.494 679.768 228.36 679.768 Q226.592 679.768 224.748 679.467 Q222.924 679.166 220.968 678.564 L220.968 674.746 Q222.661 675.668 224.466 676.119 Q226.272 676.571 228.284 676.571 Q231.538 676.571 233.438 674.859 Q235.337 673.148 235.337 670.214 Q235.337 667.28 233.438 665.568 Q231.538 663.857 228.284 663.857 Q226.761 663.857 225.237 664.195 Q223.733 664.534 222.153 665.248 L222.153 651.142 Z" fill="#000000" fill-rule="nonzero" fill-opacity="1"></path><path clip-path="url(#clip600)" d="M64.3254 403.997 Q61.1773 403.997 59.3254 406.15 Q57.4967 408.302 57.4967 412.052 Q57.4967 415.779 59.3254 417.955 Q61.1773 420.108 64.3254 420.108 Q67.4735 420.108 69.3022 417.955 Q71.1541 415.779 71.1541 412.052 Q71.1541 408.302 69.3022 406.15 Q67.4735 403.997 64.3254 403.997 M73.6077 389.344 L73.6077 393.603 Q71.8485 392.77 70.0429 392.33 Q68.2606 391.89 66.5013 391.89 Q61.8717 391.89 59.418 395.015 Q56.9875 398.14 56.6402 404.46 Q58.006 402.446 60.0662 401.381 Q62.1263 400.293 64.6032 400.293 Q69.8115 400.293 72.8207 403.464 Q75.8531 406.613 75.8531 412.052 Q75.8531 417.376 72.705 420.594 Q69.5568 423.812 64.3254 423.812 Q58.33 423.812 55.1588 419.228 Q51.9875 414.622 51.9875 405.895 Q51.9875 397.701 55.8764 392.84 Q59.7652 387.955 66.3161 387.955 Q68.0754 387.955 69.8578 388.303 Q71.6633 388.65 73.6077 389.344 Z" fill="#000000" fill-rule="nonzero" fill-opacity="1"></path><path clip-path="url(#clip600)" d="M83.9086 417.261 L88.7928 417.261 L88.7928 423.14 L83.9086 423.14 L83.9086 417.261 Z" fill="#000000" fill-rule="nonzero" fill-opacity="1"></path><path clip-path="url(#clip600)" d="M108.978 391.659 Q105.367 391.659 103.538 395.224 Q101.733 398.765 101.733 405.895 Q101.733 413.001 103.538 416.566 Q105.367 420.108 108.978 420.108 Q112.612 420.108 114.418 416.566 Q116.246 413.001 116.246 405.895 Q116.246 398.765 114.418 395.224 Q112.612 391.659 108.978 391.659 M108.978 387.955 Q114.788 387.955 117.844 392.562 Q120.922 397.145 120.922 405.895 Q120.922 414.622 117.844 419.228 Q114.788 423.812 108.978 423.812 Q103.168 423.812 100.089 419.228 Q97.0335 414.622 97.0335 405.895 Q97.0335 397.145 100.089 392.562 Q103.168 387.955 108.978 387.955 Z" fill="#000000" fill-rule="nonzero" fill-opacity="1"></path><path clip-path="url(#clip600)" d="M157.311 397.677 L146.732 408.302 L157.311 418.881 L154.556 421.682 L143.931 411.057 L133.306 421.682 L130.575 418.881 L141.131 408.302 L130.575 397.677 L133.306 394.877 L143.931 405.502 L154.556 394.877 L157.311 397.677 Z" fill="#000000" fill-rule="nonzero" fill-opacity="1"></path><path clip-path="url(#clip600)" d="M169.672 419.205 L177.311 419.205 L177.311 392.84 L169.001 394.506 L169.001 390.247 L177.265 388.58 L181.94 388.58 L181.94 419.205 L189.579 419.205 L189.579 423.14 L169.672 423.14 L169.672 419.205 Z" fill="#000000" fill-rule="nonzero" fill-opacity="1"></path><path clip-path="url(#clip600)" d="M209.024 391.659 Q205.413 391.659 203.584 395.224 Q201.778 398.765 201.778 405.895 Q201.778 413.001 203.584 416.566 Q205.413 420.108 209.024 420.108 Q212.658 420.108 214.463 416.566 Q216.292 413.001 216.292 405.895 Q216.292 398.765 214.463 395.224 Q212.658 391.659 209.024 391.659 M209.024 387.955 Q214.834 387.955 217.889 392.562 Q220.968 397.145 220.968 405.895 Q220.968 414.622 217.889 419.228 Q214.834 423.812 209.024 423.812 Q203.214 423.812 200.135 419.228 Q197.079 414.622 197.079 405.895 Q197.079 397.145 200.135 392.562 Q203.214 387.955 209.024 387.955 Z" fill="#000000" fill-rule="nonzero" fill-opacity="1"></path><path clip-path="url(#clip600)" d="M222.153 367.65 L237.068 367.65 L237.068 370.847 L225.632 370.847 L225.632 377.731 Q226.46 377.449 227.287 377.317 Q228.115 377.167 228.943 377.167 Q233.645 377.167 236.39 379.743 Q239.136 382.32 239.136 386.721 Q239.136 391.254 236.315 393.774 Q233.494 396.275 228.36 396.275 Q226.592 396.275 224.748 395.974 Q222.924 395.673 220.968 395.072 L220.968 391.254 Q222.661 392.175 224.466 392.627 Q226.272 393.078 228.284 393.078 Q231.538 393.078 233.438 391.366 Q235.337 389.655 235.337 386.721 Q235.337 383.787 233.438 382.075 Q231.538 380.364 228.284 380.364 Q226.761 380.364 225.237 380.702 Q223.733 381.041 222.153 381.756 L222.153 367.65 Z" fill="#000000" fill-rule="nonzero" fill-opacity="1"></path><path clip-path="url(#clip600)" d="M52.5662 105.088 L74.7883 105.088 L74.7883 107.078 L62.2421 139.648 L57.3578 139.648 L69.1633 109.023 L52.5662 109.023 L52.5662 105.088 Z" fill="#000000" fill-rule="nonzero" fill-opacity="1"></path><path clip-path="url(#clip600)" d="M83.9086 133.768 L88.7928 133.768 L88.7928 139.648 L83.9086 139.648 L83.9086 133.768 Z" fill="#000000" fill-rule="nonzero" fill-opacity="1"></path><path clip-path="url(#clip600)" d="M108.978 108.166 Q105.367 108.166 103.538 111.731 Q101.733 115.273 101.733 122.402 Q101.733 129.509 103.538 133.074 Q105.367 136.615 108.978 136.615 Q112.612 136.615 114.418 133.074 Q116.246 129.509 116.246 122.402 Q116.246 115.273 114.418 111.731 Q112.612 108.166 108.978 108.166 M108.978 104.463 Q114.788 104.463 117.844 109.069 Q120.922 113.653 120.922 122.402 Q120.922 131.129 117.844 135.736 Q114.788 140.319 108.978 140.319 Q103.168 140.319 100.089 135.736 Q97.0335 131.129 97.0335 122.402 Q97.0335 113.653 100.089 109.069 Q103.168 104.463 108.978 104.463 Z" fill="#000000" fill-rule="nonzero" fill-opacity="1"></path><path clip-path="url(#clip600)" d="M157.311 114.185 L146.732 124.81 L157.311 135.389 L154.556 138.189 L143.931 127.564 L133.306 138.189 L130.575 135.389 L141.131 124.81 L130.575 114.185 L133.306 111.384 L143.931 122.009 L154.556 111.384 L157.311 114.185 Z" fill="#000000" fill-rule="nonzero" fill-opacity="1"></path><path clip-path="url(#clip600)" d="M169.672 135.713 L177.311 135.713 L177.311 109.347 L169.001 111.014 L169.001 106.754 L177.265 105.088 L181.94 105.088 L181.94 135.713 L189.579 135.713 L189.579 139.648 L169.672 139.648 L169.672 135.713 Z" fill="#000000" fill-rule="nonzero" fill-opacity="1"></path><path clip-path="url(#clip600)" d="M209.024 108.166 Q205.413 108.166 203.584 111.731 Q201.778 115.273 201.778 122.402 Q201.778 129.509 203.584 133.074 Q205.413 136.615 209.024 136.615 Q212.658 136.615 214.463 133.074 Q216.292 129.509 216.292 122.402 Q216.292 115.273 214.463 111.731 Q212.658 108.166 209.024 108.166 M209.024 104.463 Q214.834 104.463 217.889 109.069 Q220.968 113.653 220.968 122.402 Q220.968 131.129 217.889 135.736 Q214.834 140.319 209.024 140.319 Q203.214 140.319 200.135 135.736 Q197.079 131.129 197.079 122.402 Q197.079 113.653 200.135 109.069 Q203.214 104.463 209.024 104.463 Z" fill="#000000" fill-rule="nonzero" fill-opacity="1"></path><path clip-path="url(#clip600)" d="M222.153 84.1573 L237.068 84.1573 L237.068 87.3547 L225.632 87.3547 L225.632 94.2383 Q226.46 93.9562 227.287 93.8245 Q228.115 93.6741 228.943 93.6741 Q233.645 93.6741 236.39 96.2507 Q239.136 98.8274 239.136 103.228 Q239.136 107.761 236.315 110.281 Q233.494 112.783 228.36 112.783 Q226.592 112.783 224.748 112.482 Q222.924 112.181 220.968 111.579 L220.968 107.761 Q222.661 108.683 224.466 109.134 Q226.272 109.585 228.284 109.585 Q231.538 109.585 233.438 107.874 Q235.337 106.162 235.337 103.228 Q235.337 100.294 233.438 98.5829 Q231.538 96.8714 228.284 96.8714 Q226.761 96.8714 225.237 97.2099 Q223.733 97.5485 222.153 98.2632 L222.153 84.1573 Z" fill="#000000" fill-rule="nonzero" fill-opacity="1"></path><polyline clip-path="url(#clip602)" style="stroke:#009af9; stroke-linecap:round; stroke-linejoin:round; stroke-width:8; stroke-opacity:1; fill:none" points="333.937,87.9763 357.388,592.352 404.793,650.477 459.432,742.983 505.915,942.956 582.827,1102.05 742.031,1178.84 830.546,1265.72 1394.44,1341.02 1406.9,1344.26 1407.07,1350.34 1407.25,1391.56 1407.42,1420 1407.57,1430.68 1442.16,1433.25 1455.26,1434.13 1661.64,1439.32 1661.78,1439.44 1751.59,1441.5 2293.67,1442.32 2293.8,1443.22 2293.96,1445.72 "></polyline>
<polyline clip-path="url(#clip602)" style="stroke:#e26f46; stroke-linecap:round; stroke-linejoin:round; stroke-width:8; stroke-opacity:1; fill:none" points="398.026,1399.5 497.888,1399.5 915.794,1409.4 1340.2,1416.7 1759.12,1419.11 2181.26,1445.51 "></polyline>
<path clip-path="url(#clip600)" d="M1972.13 250.738 L2283.5 250.738 L2283.5 95.2176 L1972.13 95.2176  Z" fill="#ffffff" fill-rule="evenodd" fill-opacity="1"></path>
<polyline clip-path="url(#clip600)" style="stroke:#000000; stroke-linecap:round; stroke-linejoin:round; stroke-width:4; stroke-opacity:1; fill:none" points="1972.13,250.738 2283.5,250.738 2283.5,95.2176 1972.13,95.2176 1972.13,250.738 "></polyline>
<polyline clip-path="url(#clip600)" style="stroke:#009af9; stroke-linecap:round; stroke-linejoin:round; stroke-width:8; stroke-opacity:1; fill:none" points="1995.21,147.058 2133.72,147.058 "></polyline>
<path clip-path="url(#clip600)" d="M2156.81 129.778 L2163.77 129.778 L2172.59 153.296 L2181.46 129.778 L2188.43 129.778 L2188.43 164.338 L2183.87 164.338 L2183.87 133.99 L2174.95 157.694 L2170.26 157.694 L2161.34 133.99 L2161.34 164.338 L2156.81 164.338 L2156.81 129.778 Z" fill="#000000" fill-rule="nonzero" fill-opacity="1"></path><path clip-path="url(#clip600)" d="M2197.71 129.778 L2202.39 129.778 L2202.39 164.338 L2197.71 164.338 L2197.71 129.778 Z" fill="#000000" fill-rule="nonzero" fill-opacity="1"></path><path clip-path="url(#clip600)" d="M2211.69 129.778 L2216.37 129.778 L2216.37 160.402 L2233.2 160.402 L2233.2 164.338 L2211.69 164.338 L2211.69 129.778 Z" fill="#000000" fill-rule="nonzero" fill-opacity="1"></path><path clip-path="url(#clip600)" d="M2242.78 133.62 L2242.78 146.606 L2248.66 146.606 Q2251.92 146.606 2253.7 144.916 Q2255.49 143.227 2255.49 140.102 Q2255.49 137 2253.7 135.31 Q2251.92 133.62 2248.66 133.62 L2242.78 133.62 M2238.1 129.778 L2248.66 129.778 Q2254.47 129.778 2257.43 132.416 Q2260.42 135.032 2260.42 140.102 Q2260.42 145.217 2257.43 147.833 Q2254.47 150.449 2248.66 150.449 L2242.78 150.449 L2242.78 164.338 L2238.1 164.338 L2238.1 129.778 Z" fill="#000000" fill-rule="nonzero" fill-opacity="1"></path><polyline clip-path="url(#clip600)" style="stroke:#e26f46; stroke-linecap:round; stroke-linejoin:round; stroke-width:8; stroke-opacity:1; fill:none" points="1995.21,198.898 2133.72,198.898 "></polyline>
<path clip-path="url(#clip600)" d="M2156.81 181.618 L2161.48 181.618 L2161.48 216.178 L2156.81 216.178 L2156.81 181.618 Z" fill="#000000" fill-rule="nonzero" fill-opacity="1"></path><path clip-path="url(#clip600)" d="M2175.46 185.46 L2175.46 198.446 L2181.34 198.446 Q2184.61 198.446 2186.39 196.756 Q2188.17 195.067 2188.17 191.942 Q2188.17 188.84 2186.39 187.15 Q2184.61 185.46 2181.34 185.46 L2175.46 185.46 M2170.79 181.618 L2181.34 181.618 Q2187.15 181.618 2190.12 184.256 Q2193.1 186.872 2193.1 191.942 Q2193.1 197.057 2190.12 199.673 Q2187.15 202.289 2181.34 202.289 L2175.46 202.289 L2175.46 216.178 L2170.79 216.178 L2170.79 181.618 Z" fill="#000000" fill-rule="nonzero" fill-opacity="1"></path><path clip-path="url(#clip600)" d="M2204.05 199.673 L2204.05 212.335 L2211.55 212.335 Q2215.32 212.335 2217.13 210.784 Q2218.96 209.21 2218.96 205.992 Q2218.96 202.752 2217.13 201.224 Q2215.32 199.673 2211.55 199.673 L2204.05 199.673 M2204.05 185.46 L2204.05 195.877 L2210.97 195.877 Q2214.4 195.877 2216.07 194.604 Q2217.76 193.307 2217.76 190.668 Q2217.76 188.053 2216.07 186.756 Q2214.4 185.46 2210.97 185.46 L2204.05 185.46 M2199.38 181.618 L2211.32 181.618 Q2216.67 181.618 2219.56 183.84 Q2222.45 186.062 2222.45 190.159 Q2222.45 193.33 2220.97 195.205 Q2219.49 197.08 2216.62 197.543 Q2220.07 198.284 2221.97 200.645 Q2223.89 202.983 2223.89 206.502 Q2223.89 211.131 2220.74 213.654 Q2217.59 216.178 2211.78 216.178 L2199.38 216.178 L2199.38 181.618 Z" fill="#000000" fill-rule="nonzero" fill-opacity="1"></path></svg>