<svg xmlns="http://www.w3.org/2000/svg" xmlns:xlink="http://www.w3.org/1999/xlink" width="600" height="400" viewBox="0 0 2400 1600">
<defs>
  <clipPath id="clip560">
    <rect x="0" y="0" width="2400" height="1600"></rect>
  </clipPath>
</defs>
<path clip-path="url(#clip560)" d="M0 1600 L2400 1600 L2400 0 L0 0  Z" fill="#ffffff" fill-rule="evenodd" fill-opacity="1"></path>
<defs>
  <clipPath id="clip561">
    <rect x="480" y="0" width="1681" height="1600"></rect>
  </clipPath>
</defs>
<path clip-path="url(#clip560)" d="M275.136 1486.45 L2352.76 1486.45 L2352.76 47.2441 L275.136 47.2441  Z" fill="#ffffff" fill-rule="evenodd" fill-opacity="1"></path>
<defs>
  <clipPath id="clip562">
    <rect x="275" y="47" width="2079" height="1440"></rect>
  </clipPath>
</defs>
<polyline clip-path="url(#clip562)" style="stroke:#000000; stroke-linecap:round; stroke-linejoin:round; stroke-width:2; stroke-opacity:0.1; fill:none" points="329.548,1486.45 329.548,47.2441 "></polyline>
<polyline clip-path="url(#clip562)" style="stroke:#000000; stroke-linecap:round; stroke-linejoin:round; stroke-width:2; stroke-opacity:0.1; fill:none" points="662.12,1486.45 662.12,47.2441 "></polyline>
<polyline clip-path="url(#clip562)" style="stroke:#000000; stroke-linecap:round; stroke-linejoin:round; stroke-width:2; stroke-opacity:0.1; fill:none" points="994.692,1486.45 994.692,47.2441 "></polyline>
<polyline clip-path="url(#clip562)" style="stroke:#000000; stroke-linecap:round; stroke-linejoin:round; stroke-width:2; stroke-opacity:0.1; fill:none" points="1327.26,1486.45 1327.26,47.2441 "></polyline>
<polyline clip-path="url(#clip562)" style="stroke:#000000; stroke-linecap:round; stroke-linejoin:round; stroke-width:2; stroke-opacity:0.1; fill:none" points="1659.84,1486.45 1659.84,47.2441 "></polyline>
<polyline clip-path="url(#clip562)" style="stroke:#000000; stroke-linecap:round; stroke-linejoin:round; stroke-width:2; stroke-opacity:0.1; fill:none" points="1992.41,1486.45 1992.41,47.2441 "></polyline>
<polyline clip-path="url(#clip562)" style="stroke:#000000; stroke-linecap:round; stroke-linejoin:round; stroke-width:2; stroke-opacity:0.1; fill:none" points="2324.98,1486.45 2324.98,47.2441 "></polyline>
<polyline clip-path="url(#clip560)" style="stroke:#000000; stroke-linecap:round; stroke-linejoin:round; stroke-width:4; stroke-opacity:1; fill:none" points="275.136,1486.45 2352.76,1486.45 "></polyline>
<polyline clip-path="url(#clip560)" style="stroke:#000000; stroke-linecap:round; stroke-linejoin:round; stroke-width:4; stroke-opacity:1; fill:none" points="329.548,1486.45 329.548,1467.55 "></polyline>
<polyline clip-path="url(#clip560)" style="stroke:#000000; stroke-linecap:round; stroke-linejoin:round; stroke-width:4; stroke-opacity:1; fill:none" points="662.12,1486.45 662.12,1467.55 "></polyline>
<polyline clip-path="url(#clip560)" style="stroke:#000000; stroke-linecap:round; stroke-linejoin:round; stroke-width:4; stroke-opacity:1; fill:none" points="994.692,1486.45 994.692,1467.55 "></polyline>
<polyline clip-path="url(#clip560)" style="stroke:#000000; stroke-linecap:round; stroke-linejoin:round; stroke-width:4; stroke-opacity:1; fill:none" points="1327.26,1486.45 1327.26,1467.55 "></polyline>
<polyline clip-path="url(#clip560)" style="stroke:#000000; stroke-linecap:round; stroke-linejoin:round; stroke-width:4; stroke-opacity:1; fill:none" points="1659.84,1486.45 1659.84,1467.55 "></polyline>
<polyline clip-path="url(#clip560)" style="stroke:#000000; stroke-linecap:round; stroke-linejoin:round; stroke-width:4; stroke-opacity:1; fill:none" points="1992.41,1486.45 1992.41,1467.55 "></polyline>
<polyline clip-path="url(#clip560)" style="stroke:#000000; stroke-linecap:round; stroke-linejoin:round; stroke-width:4; stroke-opacity:1; fill:none" points="2324.98,1486.45 2324.98,1467.55 "></polyline>
<path clip-path="url(#clip560)" d="M329.548 1517.37 Q325.937 1517.37 324.109 1520.93 Q322.303 1524.47 322.303 1531.6 Q322.303 1538.71 324.109 1542.27 Q325.937 1545.82 329.548 1545.82 Q333.183 1545.82 334.988 1542.27 Q336.817 1538.71 336.817 1531.6 Q336.817 1524.47 334.988 1520.93 Q333.183 1517.37 329.548 1517.37 M329.548 1513.66 Q335.359 1513.66 338.414 1518.27 Q341.493 1522.85 341.493 1531.6 Q341.493 1540.33 338.414 1544.94 Q335.359 1549.52 329.548 1549.52 Q323.738 1549.52 320.66 1544.94 Q317.604 1540.33 317.604 1531.6 Q317.604 1522.85 320.66 1518.27 Q323.738 1513.66 329.548 1513.66 Z" fill="#000000" fill-rule="nonzero" fill-opacity="1"></path><path clip-path="url(#clip560)" d="M621.727 1544.91 L629.366 1544.91 L629.366 1518.55 L621.056 1520.21 L621.056 1515.95 L629.32 1514.29 L633.996 1514.29 L633.996 1544.91 L641.634 1544.91 L641.634 1548.85 L621.727 1548.85 L621.727 1544.91 Z" fill="#000000" fill-rule="nonzero" fill-opacity="1"></path><path clip-path="url(#clip560)" d="M661.079 1517.37 Q657.468 1517.37 655.639 1520.93 Q653.833 1524.47 653.833 1531.6 Q653.833 1538.71 655.639 1542.27 Q657.468 1545.82 661.079 1545.82 Q664.713 1545.82 666.519 1542.27 Q668.347 1538.71 668.347 1531.6 Q668.347 1524.47 666.519 1520.93 Q664.713 1517.37 661.079 1517.37 M661.079 1513.66 Q666.889 1513.66 669.944 1518.27 Q673.023 1522.85 673.023 1531.6 Q673.023 1540.33 669.944 1544.94 Q666.889 1549.52 661.079 1549.52 Q655.269 1549.52 652.19 1544.94 Q649.134 1540.33 649.134 1531.6 Q649.134 1522.85 652.19 1518.27 Q655.269 1513.66 661.079 1513.66 Z" fill="#000000" fill-rule="nonzero" fill-opacity="1"></path><path clip-path="url(#clip560)" d="M691.241 1517.37 Q687.63 1517.37 685.801 1520.93 Q683.995 1524.47 683.995 1531.6 Q683.995 1538.71 685.801 1542.27 Q687.63 1545.82 691.241 1545.82 Q694.875 1545.82 696.68 1542.27 Q698.509 1538.71 698.509 1531.6 Q698.509 1524.47 696.68 1520.93 Q694.875 1517.37 691.241 1517.37 M691.241 1513.66 Q697.051 1513.66 700.106 1518.27 Q703.185 1522.85 703.185 1531.6 Q703.185 1540.33 700.106 1544.94 Q697.051 1549.52 691.241 1549.52 Q685.43 1549.52 682.352 1544.94 Q679.296 1540.33 679.296 1531.6 Q679.296 1522.85 682.352 1518.27 Q685.43 1513.66 691.241 1513.66 Z" fill="#000000" fill-rule="nonzero" fill-opacity="1"></path><path clip-path="url(#clip560)" d="M958.385 1544.91 L974.704 1544.91 L974.704 1548.85 L952.76 1548.85 L952.76 1544.91 Q955.422 1542.16 960.005 1537.53 Q964.612 1532.88 965.792 1531.53 Q968.037 1529.01 968.917 1527.27 Q969.82 1525.51 969.82 1523.82 Q969.82 1521.07 967.875 1519.33 Q965.954 1517.6 962.852 1517.6 Q960.653 1517.6 958.2 1518.36 Q955.769 1519.13 952.991 1520.68 L952.991 1515.95 Q955.815 1514.82 958.269 1514.24 Q960.723 1513.66 962.76 1513.66 Q968.13 1513.66 971.324 1516.35 Q974.519 1519.03 974.519 1523.52 Q974.519 1525.65 973.709 1527.57 Q972.922 1529.47 970.815 1532.07 Q970.237 1532.74 967.135 1535.95 Q964.033 1539.15 958.385 1544.91 Z" fill="#000000" fill-rule="nonzero" fill-opacity="1"></path><path clip-path="url(#clip560)" d="M994.519 1517.37 Q990.908 1517.37 989.079 1520.93 Q987.273 1524.47 987.273 1531.6 Q987.273 1538.71 989.079 1542.27 Q990.908 1545.82 994.519 1545.82 Q998.153 1545.82 999.959 1542.27 Q1001.79 1538.71 1001.79 1531.6 Q1001.79 1524.47 999.959 1520.93 Q998.153 1517.37 994.519 1517.37 M994.519 1513.66 Q1000.33 1513.66 1003.38 1518.27 Q1006.46 1522.85 1006.46 1531.6 Q1006.46 1540.33 1003.38 1544.94 Q1000.33 1549.52 994.519 1549.52 Q988.709 1549.52 985.63 1544.94 Q982.574 1540.33 982.574 1531.6 Q982.574 1522.85 985.63 1518.27 Q988.709 1513.66 994.519 1513.66 Z" fill="#000000" fill-rule="nonzero" fill-opacity="1"></path><path clip-path="url(#clip560)" d="M1024.68 1517.37 Q1021.07 1517.37 1019.24 1520.93 Q1017.44 1524.47 1017.44 1531.6 Q1017.44 1538.71 1019.24 1542.27 Q1021.07 1545.82 1024.68 1545.82 Q1028.31 1545.82 1030.12 1542.27 Q1031.95 1538.71 1031.95 1531.6 Q1031.95 1524.47 1030.12 1520.93 Q1028.31 1517.37 1024.68 1517.37 M1024.68 1513.66 Q1030.49 1513.66 1033.55 1518.27 Q1036.63 1522.85 1036.63 1531.6 Q1036.63 1540.33 1033.55 1544.94 Q1030.49 1549.52 1024.68 1549.52 Q1018.87 1549.52 1015.79 1544.94 Q1012.74 1540.33 1012.74 1531.6 Q1012.74 1522.85 1015.79 1518.27 Q1018.87 1513.66 1024.68 1513.66 Z" fill="#000000" fill-rule="nonzero" fill-opacity="1"></path><path clip-path="url(#clip560)" d="M1301.03 1530.21 Q1304.38 1530.93 1306.26 1533.2 Q1308.16 1535.47 1308.16 1538.8 Q1308.16 1543.92 1304.64 1546.72 Q1301.12 1549.52 1294.64 1549.52 Q1292.46 1549.52 1290.15 1549.08 Q1287.85 1548.66 1285.4 1547.81 L1285.4 1543.29 Q1287.35 1544.43 1289.66 1545.01 Q1291.98 1545.58 1294.5 1545.58 Q1298.9 1545.58 1301.19 1543.85 Q1303.5 1542.11 1303.5 1538.8 Q1303.5 1535.75 1301.35 1534.03 Q1299.22 1532.3 1295.4 1532.3 L1291.37 1532.3 L1291.37 1528.45 L1295.59 1528.45 Q1299.04 1528.45 1300.86 1527.09 Q1302.69 1525.7 1302.69 1523.11 Q1302.69 1520.45 1300.79 1519.03 Q1298.92 1517.6 1295.4 1517.6 Q1293.48 1517.6 1291.28 1518.01 Q1289.08 1518.43 1286.44 1519.31 L1286.44 1515.14 Q1289.1 1514.4 1291.42 1514.03 Q1293.76 1513.66 1295.82 1513.66 Q1301.14 1513.66 1304.24 1516.09 Q1307.35 1518.5 1307.35 1522.62 Q1307.35 1525.49 1305.7 1527.48 Q1304.06 1529.45 1301.03 1530.21 Z" fill="#000000" fill-rule="nonzero" fill-opacity="1"></path><path clip-path="url(#clip560)" d="M1327.02 1517.37 Q1323.41 1517.37 1321.58 1520.93 Q1319.78 1524.47 1319.78 1531.6 Q1319.78 1538.71 1321.58 1542.27 Q1323.41 1545.82 1327.02 1545.82 Q1330.66 1545.82 1332.46 1542.27 Q1334.29 1538.71 1334.29 1531.6 Q1334.29 1524.47 1332.46 1520.93 Q1330.66 1517.37 1327.02 1517.37 M1327.02 1513.66 Q1332.83 1513.66 1335.89 1518.27 Q1338.97 1522.85 1338.97 1531.6 Q1338.97 1540.33 1335.89 1544.94 Q1332.83 1549.52 1327.02 1549.52 Q1321.21 1549.52 1318.13 1544.94 Q1315.08 1540.33 1315.08 1531.6 Q1315.08 1522.85 1318.13 1518.27 Q1321.21 1513.66 1327.02 1513.66 Z" fill="#000000" fill-rule="nonzero" fill-opacity="1"></path><path clip-path="url(#clip560)" d="M1357.18 1517.37 Q1353.57 1517.37 1351.74 1520.93 Q1349.94 1524.47 1349.94 1531.6 Q1349.94 1538.71 1351.74 1542.27 Q1353.57 1545.82 1357.18 1545.82 Q1360.82 1545.82 1362.62 1542.27 Q1364.45 1538.71 1364.45 1531.6 Q1364.45 1524.47 1362.62 1520.93 Q1360.82 1517.37 1357.18 1517.37 M1357.18 1513.66 Q1362.99 1513.66 1366.05 1518.27 Q1369.13 1522.85 1369.13 1531.6 Q1369.13 1540.33 1366.05 1544.94 Q1362.99 1549.52 1357.18 1549.52 Q1351.37 1549.52 1348.29 1544.94 Q1345.24 1540.33 1345.24 1531.6 Q1345.24 1522.85 1348.29 1518.27 Q1351.37 1513.66 1357.18 1513.66 Z" fill="#000000" fill-rule="nonzero" fill-opacity="1"></path><path clip-path="url(#clip560)" d="M1632.93 1518.36 L1621.12 1536.81 L1632.93 1536.81 L1632.93 1518.36 M1631.7 1514.29 L1637.58 1514.29 L1637.58 1536.81 L1642.51 1536.81 L1642.51 1540.7 L1637.58 1540.7 L1637.58 1548.85 L1632.93 1548.85 L1632.93 1540.7 L1617.32 1540.7 L1617.32 1536.19 L1631.7 1514.29 Z" fill="#000000" fill-rule="nonzero" fill-opacity="1"></path><path clip-path="url(#clip560)" d="M1660.24 1517.37 Q1656.63 1517.37 1654.8 1520.93 Q1653 1524.47 1653 1531.6 Q1653 1538.71 1654.8 1542.27 Q1656.63 1545.82 1660.24 1545.82 Q1663.88 1545.82 1665.68 1542.27 Q1667.51 1538.71 1667.51 1531.6 Q1667.51 1524.47 1665.68 1520.93 Q1663.88 1517.37 1660.24 1517.37 M1660.24 1513.66 Q1666.05 1513.66 1669.11 1518.27 Q1672.19 1522.85 1672.19 1531.6 Q1672.19 1540.33 1669.11 1544.94 Q1666.05 1549.52 1660.24 1549.52 Q1654.43 1549.52 1651.35 1544.94 Q1648.3 1540.33 1648.3 1531.6 Q1648.3 1522.85 1651.35 1518.27 Q1654.43 1513.66 1660.24 1513.66 Z" fill="#000000" fill-rule="nonzero" fill-opacity="1"></path><path clip-path="url(#clip560)" d="M1690.4 1517.37 Q1686.79 1517.37 1684.96 1520.93 Q1683.16 1524.47 1683.16 1531.6 Q1683.16 1538.71 1684.96 1542.27 Q1686.79 1545.82 1690.4 1545.82 Q1694.04 1545.82 1695.84 1542.27 Q1697.67 1538.71 1697.67 1531.6 Q1697.67 1524.47 1695.84 1520.93 Q1694.04 1517.37 1690.4 1517.37 M1690.4 1513.66 Q1696.21 1513.66 1699.27 1518.27 Q1702.35 1522.85 1702.35 1531.6 Q1702.35 1540.33 1699.27 1544.94 Q1696.21 1549.52 1690.4 1549.52 Q1684.59 1549.52 1681.51 1544.94 Q1678.46 1540.33 1678.46 1531.6 Q1678.46 1522.85 1681.51 1518.27 Q1684.59 1513.66 1690.4 1513.66 Z" fill="#000000" fill-rule="nonzero" fill-opacity="1"></path><path clip-path="url(#clip560)" d="M1952.03 1514.29 L1970.38 1514.29 L1970.38 1518.22 L1956.31 1518.22 L1956.31 1526.7 Q1957.33 1526.35 1958.35 1526.19 Q1959.36 1526 1960.38 1526 Q1966.17 1526 1969.55 1529.17 Q1972.93 1532.34 1972.93 1537.76 Q1972.93 1543.34 1969.46 1546.44 Q1965.98 1549.52 1959.67 1549.52 Q1957.49 1549.52 1955.22 1549.15 Q1952.98 1548.78 1950.57 1548.04 L1950.57 1543.34 Q1952.65 1544.47 1954.87 1545.03 Q1957.1 1545.58 1959.57 1545.58 Q1963.58 1545.58 1965.92 1543.48 Q1968.25 1541.37 1968.25 1537.76 Q1968.25 1534.15 1965.92 1532.04 Q1963.58 1529.94 1959.57 1529.94 Q1957.7 1529.94 1955.82 1530.35 Q1953.97 1530.77 1952.03 1531.65 L1952.03 1514.29 Z" fill="#000000" fill-rule="nonzero" fill-opacity="1"></path><path clip-path="url(#clip560)" d="M1992.14 1517.37 Q1988.53 1517.37 1986.7 1520.93 Q1984.9 1524.47 1984.9 1531.6 Q1984.9 1538.71 1986.7 1542.27 Q1988.53 1545.82 1992.14 1545.82 Q1995.78 1545.82 1997.58 1542.27 Q1999.41 1538.71 1999.41 1531.6 Q1999.41 1524.47 1997.58 1520.93 Q1995.78 1517.37 1992.14 1517.37 M1992.14 1513.66 Q1997.95 1513.66 2001.01 1518.27 Q2004.09 1522.85 2004.09 1531.6 Q2004.09 1540.33 2001.01 1544.94 Q1997.95 1549.52 1992.14 1549.52 Q1986.33 1549.52 1983.25 1544.94 Q1980.2 1540.33 1980.2 1531.6 Q1980.2 1522.85 1983.25 1518.27 Q1986.33 1513.66 1992.14 1513.66 Z" fill="#000000" fill-rule="nonzero" fill-opacity="1"></path><path clip-path="url(#clip560)" d="M2022.3 1517.37 Q2018.69 1517.37 2016.86 1520.93 Q2015.06 1524.47 2015.06 1531.6 Q2015.06 1538.71 2016.86 1542.27 Q2018.69 1545.82 2022.3 1545.82 Q2025.94 1545.82 2027.74 1542.27 Q2029.57 1538.71 2029.57 1531.6 Q2029.57 1524.47 2027.74 1520.93 Q2025.94 1517.37 2022.3 1517.37 M2022.3 1513.66 Q2028.11 1513.66 2031.17 1518.27 Q2034.25 1522.85 2034.25 1531.6 Q2034.25 1540.33 2031.17 1544.94 Q2028.11 1549.52 2022.3 1549.52 Q2016.49 1549.52 2013.42 1544.94 Q2010.36 1540.33 2010.36 1531.6 Q2010.36 1522.85 2013.42 1518.27 Q2016.49 1513.66 2022.3 1513.66 Z" fill="#000000" fill-rule="nonzero" fill-opacity="1"></path><path clip-path="url(#clip560)" d="M2295.3 1529.7 Q2292.16 1529.7 2290.3 1531.86 Q2288.48 1534.01 2288.48 1537.76 Q2288.48 1541.49 2290.3 1543.66 Q2292.16 1545.82 2295.3 1545.82 Q2298.45 1545.82 2300.28 1543.66 Q2302.13 1541.49 2302.13 1537.76 Q2302.13 1534.01 2300.28 1531.86 Q2298.45 1529.7 2295.3 1529.7 M2304.59 1515.05 L2304.59 1519.31 Q2302.83 1518.48 2301.02 1518.04 Q2299.24 1517.6 2297.48 1517.6 Q2292.85 1517.6 2290.4 1520.72 Q2287.97 1523.85 2287.62 1530.17 Q2288.99 1528.15 2291.05 1527.09 Q2293.11 1526 2295.58 1526 Q2300.79 1526 2303.8 1529.17 Q2306.83 1532.32 2306.83 1537.76 Q2306.83 1543.08 2303.68 1546.3 Q2300.54 1549.52 2295.3 1549.52 Q2289.31 1549.52 2286.14 1544.94 Q2282.97 1540.33 2282.97 1531.6 Q2282.97 1523.41 2286.86 1518.55 Q2290.74 1513.66 2297.3 1513.66 Q2299.05 1513.66 2300.84 1514.01 Q2302.64 1514.36 2304.59 1515.05 Z" fill="#000000" fill-rule="nonzero" fill-opacity="1"></path><path clip-path="url(#clip560)" d="M2324.89 1517.37 Q2321.28 1517.37 2319.45 1520.93 Q2317.64 1524.47 2317.64 1531.6 Q2317.64 1538.71 2319.45 1542.27 Q2321.28 1545.82 2324.89 1545.82 Q2328.52 1545.82 2330.33 1542.27 Q2332.16 1538.71 2332.16 1531.6 Q2332.16 1524.47 2330.33 1520.93 Q2328.52 1517.37 2324.89 1517.37 M2324.89 1513.66 Q2330.7 1513.66 2333.75 1518.27 Q2336.83 1522.85 2336.83 1531.6 Q2336.83 1540.33 2333.75 1544.94 Q2330.7 1549.52 2324.89 1549.52 Q2319.08 1549.52 2316 1544.94 Q2312.94 1540.33 2312.94 1531.6 Q2312.94 1522.85 2316 1518.27 Q2319.08 1513.66 2324.89 1513.66 Z" fill="#000000" fill-rule="nonzero" fill-opacity="1"></path><path clip-path="url(#clip560)" d="M2355.05 1517.37 Q2351.44 1517.37 2349.61 1520.93 Q2347.8 1524.47 2347.8 1531.6 Q2347.8 1538.71 2349.61 1542.27 Q2351.44 1545.82 2355.05 1545.82 Q2358.68 1545.82 2360.49 1542.27 Q2362.32 1538.71 2362.32 1531.6 Q2362.32 1524.47 2360.49 1520.93 Q2358.68 1517.37 2355.05 1517.37 M2355.05 1513.66 Q2360.86 1513.66 2363.92 1518.27 Q2366.99 1522.85 2366.99 1531.6 Q2366.99 1540.33 2363.92 1544.94 Q2360.86 1549.52 2355.05 1549.52 Q2349.24 1549.52 2346.16 1544.94 Q2343.11 1540.33 2343.11 1531.6 Q2343.11 1522.85 2346.16 1518.27 Q2349.24 1513.66 2355.05 1513.66 Z" fill="#000000" fill-rule="nonzero" fill-opacity="1"></path><polyline clip-path="url(#clip562)" style="stroke:#000000; stroke-linecap:round; stroke-linejoin:round; stroke-width:2; stroke-opacity:0.1; fill:none" points="275.136,1244.77 2352.76,1244.77 "></polyline>
<polyline clip-path="url(#clip562)" style="stroke:#000000; stroke-linecap:round; stroke-linejoin:round; stroke-width:2; stroke-opacity:0.1; fill:none" points="275.136,962.527 2352.76,962.527 "></polyline>
<polyline clip-path="url(#clip562)" style="stroke:#000000; stroke-linecap:round; stroke-linejoin:round; stroke-width:2; stroke-opacity:0.1; fill:none" points="275.136,680.283 2352.76,680.283 "></polyline>
<polyline clip-path="url(#clip562)" style="stroke:#000000; stroke-linecap:round; stroke-linejoin:round; stroke-width:2; stroke-opacity:0.1; fill:none" points="275.136,398.04 2352.76,398.04 "></polyline>
<polyline clip-path="url(#clip562)" style="stroke:#000000; stroke-linecap:round; stroke-linejoin:round; stroke-width:2; stroke-opacity:0.1; fill:none" points="275.136,115.797 2352.76,115.797 "></polyline>
<polyline clip-path="url(#clip560)" style="stroke:#000000; stroke-linecap:round; stroke-linejoin:round; stroke-width:4; stroke-opacity:1; fill:none" points="275.136,1486.45 275.136,47.2441 "></polyline>
<polyline clip-path="url(#clip560)" style="stroke:#000000; stroke-linecap:round; stroke-linejoin:round; stroke-width:4; stroke-opacity:1; fill:none" points="275.136,1244.77 294.034,1244.77 "></polyline>
<polyline clip-path="url(#clip560)" style="stroke:#000000; stroke-linecap:round; stroke-linejoin:round; stroke-width:4; stroke-opacity:1; fill:none" points="275.136,962.527 294.034,962.527 "></polyline>
<polyline clip-path="url(#clip560)" style="stroke:#000000; stroke-linecap:round; stroke-linejoin:round; stroke-width:4; stroke-opacity:1; fill:none" points="275.136,680.283 294.034,680.283 "></polyline>
<polyline clip-path="url(#clip560)" style="stroke:#000000; stroke-linecap:round; stroke-linejoin:round; stroke-width:4; stroke-opacity:1; fill:none" points="275.136,398.04 294.034,398.04 "></polyline>
<polyline clip-path="url(#clip560)" style="stroke:#000000; stroke-linecap:round; stroke-linejoin:round; stroke-width:4; stroke-opacity:1; fill:none" points="275.136,115.797 294.034,115.797 "></polyline>
<path clip-path="url(#clip560)" d="M67.9133 1249.86 Q71.2698 1250.58 73.1448 1252.85 Q75.0429 1255.12 75.0429 1258.45 Q75.0429 1263.57 71.5244 1266.37 Q68.0059 1269.17 61.5245 1269.17 Q59.3486 1269.17 57.0338 1268.73 Q54.7421 1268.31 52.2884 1267.46 L52.2884 1262.94 Q54.2328 1264.08 56.5477 1264.65 Q58.8625 1265.23 61.3856 1265.23 Q65.7837 1265.23 68.0754 1263.5 Q70.3902 1261.76 70.3902 1258.45 Q70.3902 1255.4 68.2374 1253.68 Q66.1078 1251.95 62.2884 1251.95 L58.2606 1251.95 L58.2606 1248.1 L62.4735 1248.1 Q65.9226 1248.1 67.7513 1246.74 Q69.58 1245.35 69.58 1242.76 Q69.58 1240.09 67.6819 1238.68 Q65.8069 1237.25 62.2884 1237.25 Q60.3671 1237.25 58.168 1237.66 Q55.969 1238.08 53.3301 1238.96 L53.3301 1234.79 Q55.9921 1234.05 58.3069 1233.68 Q60.6449 1233.31 62.705 1233.31 Q68.0291 1233.31 71.1309 1235.74 Q74.2327 1238.15 74.2327 1242.27 Q74.2327 1245.14 72.5892 1247.13 Q70.9457 1249.1 67.9133 1249.86 Z" fill="#000000" fill-rule="nonzero" fill-opacity="1"></path><path clip-path="url(#clip560)" d="M83.9086 1262.62 L88.7928 1262.62 L88.7928 1268.5 L83.9086 1268.5 L83.9086 1262.62 Z" fill="#000000" fill-rule="nonzero" fill-opacity="1"></path><path clip-path="url(#clip560)" d="M108.978 1237.02 Q105.367 1237.02 103.538 1240.58 Q101.733 1244.12 101.733 1251.25 Q101.733 1258.36 103.538 1261.92 Q105.367 1265.47 108.978 1265.47 Q112.612 1265.47 114.418 1261.92 Q116.246 1258.36 116.246 1251.25 Q116.246 1244.12 114.418 1240.58 Q112.612 1237.02 108.978 1237.02 M108.978 1233.31 Q114.788 1233.31 117.844 1237.92 Q120.922 1242.5 120.922 1251.25 Q120.922 1259.98 117.844 1264.59 Q114.788 1269.17 108.978 1269.17 Q103.168 1269.17 100.089 1264.59 Q97.0335 1259.98 97.0335 1251.25 Q97.0335 1242.5 100.089 1237.92 Q103.168 1233.31 108.978 1233.31 Z" fill="#000000" fill-rule="nonzero" fill-opacity="1"></path><path clip-path="url(#clip560)" d="M157.311 1243.03 L146.732 1253.66 L157.311 1264.24 L154.556 1267.04 L143.931 1256.41 L133.306 1267.04 L130.575 1264.24 L141.131 1253.66 L130.575 1243.03 L133.306 1240.23 L143.931 1250.86 L154.556 1240.23 L157.311 1243.03 Z" fill="#000000" fill-rule="nonzero" fill-opacity="1"></path><path clip-path="url(#clip560)" d="M169.672 1264.56 L177.311 1264.56 L177.311 1238.2 L169.001 1239.86 L169.001 1235.6 L177.265 1233.94 L181.94 1233.94 L181.94 1264.56 L189.579 1264.56 L189.579 1268.5 L169.672 1268.5 L169.672 1264.56 Z" fill="#000000" fill-rule="nonzero" fill-opacity="1"></path><path clip-path="url(#clip560)" d="M209.024 1237.02 Q205.413 1237.02 203.584 1240.58 Q201.778 1244.12 201.778 1251.25 Q201.778 1258.36 203.584 1261.92 Q205.413 1265.47 209.024 1265.47 Q212.658 1265.47 214.463 1261.92 Q216.292 1258.36 216.292 1251.25 Q216.292 1244.12 214.463 1240.58 Q212.658 1237.02 209.024 1237.02 M209.024 1233.31 Q214.834 1233.31 217.889 1237.92 Q220.968 1242.5 220.968 1251.25 Q220.968 1259.98 217.889 1264.59 Q214.834 1269.17 209.024 1269.17 Q203.214 1269.17 200.135 1264.59 Q197.079 1259.98 197.079 1251.25 Q197.079 1242.5 200.135 1237.92 Q203.214 1233.31 209.024 1233.31 Z" fill="#000000" fill-rule="nonzero" fill-opacity="1"></path><path clip-path="url(#clip560)" d="M222.153 1213.01 L237.068 1213.01 L237.068 1216.2 L225.632 1216.2 L225.632 1223.09 Q226.46 1222.81 227.287 1222.67 Q228.115 1222.52 228.943 1222.52 Q233.645 1222.52 236.39 1225.1 Q239.136 1227.68 239.136 1232.08 Q239.136 1236.61 236.315 1239.13 Q233.494 1241.63 228.36 1241.63 Q226.592 1241.63 224.748 1241.33 Q222.924 1241.03 220.968 1240.43 L220.968 1236.61 Q222.661 1237.53 224.466 1237.98 Q226.272 1238.44 228.284 1238.44 Q231.538 1238.44 233.438 1236.72 Q235.337 1235.01 235.337 1232.08 Q235.337 1229.14 233.438 1227.43 Q231.538 1225.72 228.284 1225.72 Q226.761 1225.72 225.237 1226.06 Q223.733 1226.4 222.153 1227.11 L222.153 1213.01 Z" fill="#000000" fill-rule="nonzero" fill-opacity="1"></path><path clip-path="url(#clip560)" d="M66.5939 955.768 L54.7884 974.217 L66.5939 974.217 L66.5939 955.768 M65.367 951.694 L71.2466 951.694 L71.2466 974.217 L76.1772 974.217 L76.1772 978.106 L71.2466 978.106 L71.2466 986.254 L66.5939 986.254 L66.5939 978.106 L50.9921 978.106 L50.9921 973.592 L65.367 951.694 Z" fill="#000000" fill-rule="nonzero" fill-opacity="1"></path><path clip-path="url(#clip560)" d="M83.9086 980.375 L88.7928 980.375 L88.7928 986.254 L83.9086 986.254 L83.9086 980.375 Z" fill="#000000" fill-rule="nonzero" fill-opacity="1"></path><path clip-path="url(#clip560)" d="M108.978 954.773 Q105.367 954.773 103.538 958.338 Q101.733 961.879 101.733 969.009 Q101.733 976.115 103.538 979.68 Q105.367 983.222 108.978 983.222 Q112.612 983.222 114.418 979.68 Q116.246 976.115 116.246 969.009 Q116.246 961.879 114.418 958.338 Q112.612 954.773 108.978 954.773 M108.978 951.069 Q114.788 951.069 117.844 955.676 Q120.922 960.259 120.922 969.009 Q120.922 977.736 117.844 982.342 Q114.788 986.926 108.978 986.926 Q103.168 986.926 100.089 982.342 Q97.0335 977.736 97.0335 969.009 Q97.0335 960.259 100.089 955.676 Q103.168 951.069 108.978 951.069 Z" fill="#000000" fill-rule="nonzero" fill-opacity="1"></path><path clip-path="url(#clip560)" d="M157.311 960.791 L146.732 971.416 L157.311 981.995 L154.556 984.796 L143.931 974.171 L133.306 984.796 L130.575 981.995 L141.131 971.416 L130.575 960.791 L133.306 957.99 L143.931 968.615 L154.556 957.99 L157.311 960.791 Z" fill="#000000" fill-rule="nonzero" fill-opacity="1"></path><path clip-path="url(#clip560)" d="M169.672 982.319 L177.311 982.319 L177.311 955.953 L169.001 957.62 L169.001 953.361 L177.265 951.694 L181.94 951.694 L181.94 982.319 L189.579 982.319 L189.579 986.254 L169.672 986.254 L169.672 982.319 Z" fill="#000000" fill-rule="nonzero" fill-opacity="1"></path><path clip-path="url(#clip560)" d="M209.024 954.773 Q205.413 954.773 203.584 958.338 Q201.778 961.879 201.778 969.009 Q201.778 976.115 203.584 979.68 Q205.413 983.222 209.024 983.222 Q212.658 983.222 214.463 979.68 Q216.292 976.115 216.292 969.009 Q216.292 961.879 214.463 958.338 Q212.658 954.773 209.024 954.773 M209.024 951.069 Q214.834 951.069 217.889 955.676 Q220.968 960.259 220.968 969.009 Q220.968 977.736 217.889 982.342 Q214.834 986.926 209.024 986.926 Q203.214 986.926 200.135 982.342 Q197.079 977.736 197.079 969.009 Q197.079 960.259 200.135 955.676 Q203.214 951.069 209.024 951.069 Z" fill="#000000" fill-rule="nonzero" fill-opacity="1"></path><path clip-path="url(#clip560)" d="M222.153 930.764 L237.068 930.764 L237.068 933.961 L225.632 933.961 L225.632 940.845 Q226.46 940.563 227.287 940.431 Q228.115 940.281 228.943 940.281 Q233.645 940.281 236.39 942.857 Q239.136 945.434 239.136 949.835 Q239.136 954.368 236.315 956.888 Q233.494 959.389 228.36 959.389 Q226.592 959.389 224.748 959.088 Q222.924 958.787 220.968 958.186 L220.968 954.368 Q222.661 955.289 224.466 955.741 Q226.272 956.192 228.284 956.192 Q231.538 956.192 233.438 954.48 Q235.337 952.769 235.337 949.835 Q235.337 946.901 233.438 945.189 Q231.538 943.478 228.284 943.478 Q226.761 943.478 225.237 943.816 Q223.733 944.155 222.153 944.87 L222.153 930.764 Z" fill="#000000" fill-rule="nonzero" fill-opacity="1"></path><path clip-path="url(#clip560)" d="M53.793 669.451 L72.1494 669.451 L72.1494 673.386 L58.0754 673.386 L58.0754 681.858 Q59.0939 681.511 60.1124 681.349 Q61.131 681.164 62.1495 681.164 Q67.9365 681.164 71.3161 684.335 Q74.6957 687.506 74.6957 692.923 Q74.6957 698.502 71.2235 701.604 Q67.7513 704.682 61.4319 704.682 Q59.256 704.682 56.9875 704.312 Q54.7421 703.942 52.3347 703.201 L52.3347 698.502 Q54.418 699.636 56.6402 700.192 Q58.8625 700.747 61.3393 700.747 Q65.3439 700.747 67.6819 698.641 Q70.0198 696.534 70.0198 692.923 Q70.0198 689.312 67.6819 687.206 Q65.3439 685.099 61.3393 685.099 Q59.4643 685.099 57.5893 685.516 Q55.7375 685.932 53.793 686.812 L53.793 669.451 Z" fill="#000000" fill-rule="nonzero" fill-opacity="1"></path><path clip-path="url(#clip560)" d="M83.9086 698.131 L88.7928 698.131 L88.7928 704.011 L83.9086 704.011 L83.9086 698.131 Z" fill="#000000" fill-rule="nonzero" fill-opacity="1"></path><path clip-path="url(#clip560)" d="M108.978 672.53 Q105.367 672.53 103.538 676.094 Q101.733 679.636 101.733 686.766 Q101.733 693.872 103.538 697.437 Q105.367 700.979 108.978 700.979 Q112.612 700.979 114.418 697.437 Q116.246 693.872 116.246 686.766 Q116.246 679.636 114.418 676.094 Q112.612 672.53 108.978 672.53 M108.978 668.826 Q114.788 668.826 117.844 673.432 Q120.922 678.016 120.922 686.766 Q120.922 695.493 117.844 700.099 Q114.788 704.682 108.978 704.682 Q103.168 704.682 100.089 700.099 Q97.0335 695.493 97.0335 686.766 Q97.0335 678.016 100.089 673.432 Q103.168 668.826 108.978 668.826 Z" fill="#000000" fill-rule="nonzero" fill-opacity="1"></path><path clip-path="url(#clip560)" d="M157.311 678.548 L146.732 689.173 L157.311 699.752 L154.556 702.553 L143.931 691.928 L133.306 702.553 L130.575 699.752 L141.131 689.173 L130.575 678.548 L133.306 675.747 L143.931 686.372 L154.556 675.747 L157.311 678.548 Z" fill="#000000" fill-rule="nonzero" fill-opacity="1"></path><path clip-path="url(#clip560)" d="M169.672 700.076 L177.311 700.076 L177.311 673.71 L169.001 675.377 L169.001 671.118 L177.265 669.451 L181.94 669.451 L181.94 700.076 L189.579 700.076 L189.579 704.011 L169.672 704.011 L169.672 700.076 Z" fill="#000000" fill-rule="nonzero" fill-opacity="1"></path><path clip-path="url(#clip560)" d="M209.024 672.53 Q205.413 672.53 203.584 676.094 Q201.778 679.636 201.778 686.766 Q201.778 693.872 203.584 697.437 Q205.413 700.979 209.024 700.979 Q212.658 700.979 214.463 697.437 Q216.292 693.872 216.292 686.766 Q216.292 679.636 214.463 676.094 Q212.658 672.53 209.024 672.53 M209.024 668.826 Q214.834 668.826 217.889 673.432 Q220.968 678.016 220.968 686.766 Q220.968 695.493 217.889 700.099 Q214.834 704.682 209.024 704.682 Q203.214 704.682 200.135 700.099 Q197.079 695.493 197.079 686.766 Q197.079 678.016 200.135 673.432 Q203.214 668.826 209.024 668.826 Z" fill="#000000" fill-rule="nonzero" fill-opacity="1"></path><path clip-path="url(#clip560)" d="M222.153 648.521 L237.068 648.521 L237.068 651.718 L225.632 651.718 L225.632 658.602 Q226.46 658.319 227.287 658.188 Q228.115 658.037 228.943 658.037 Q233.645 658.037 236.39 660.614 Q239.136 663.191 239.136 667.592 Q239.136 672.124 236.315 674.645 Q233.494 677.146 228.36 677.146 Q226.592 677.146 224.748 676.845 Q222.924 676.544 220.968 675.942 L220.968 672.124 Q222.661 673.046 224.466 673.497 Q226.272 673.949 228.284 673.949 Q231.538 673.949 233.438 672.237 Q235.337 670.526 235.337 667.592 Q235.337 664.658 233.438 662.946 Q231.538 661.235 228.284 661.235 Q226.761 661.235 225.237 661.573 Q223.733 661.912 222.153 662.626 L222.153 648.521 Z" fill="#000000" fill-rule="nonzero" fill-opacity="1"></path><path clip-path="url(#clip560)" d="M64.3254 402.624 Q61.1773 402.624 59.3254 404.777 Q57.4967 406.93 57.4967 410.68 Q57.4967 414.407 59.3254 416.583 Q61.1773 418.735 64.3254 418.735 Q67.4735 418.735 69.3022 416.583 Q71.1541 414.407 71.1541 410.68 Q71.1541 406.93 69.3022 404.777 Q67.4735 402.624 64.3254 402.624 M73.6077 387.972 L73.6077 392.231 Q71.8485 391.398 70.0429 390.958 Q68.2606 390.518 66.5013 390.518 Q61.8717 390.518 59.418 393.643 Q56.9875 396.768 56.6402 403.087 Q58.006 401.073 60.0662 400.009 Q62.1263 398.921 64.6032 398.921 Q69.8115 398.921 72.8207 402.092 Q75.8531 405.24 75.8531 410.68 Q75.8531 416.004 72.705 419.222 Q69.5568 422.439 64.3254 422.439 Q58.33 422.439 55.1588 417.856 Q51.9875 413.249 51.9875 404.523 Q51.9875 396.328 55.8764 391.467 Q59.7652 386.583 66.3161 386.583 Q68.0754 386.583 69.8578 386.93 Q71.6633 387.277 73.6077 387.972 Z" fill="#000000" fill-rule="nonzero" fill-opacity="1"></path><path clip-path="url(#clip560)" d="M83.9086 415.888 L88.7928 415.888 L88.7928 421.768 L83.9086 421.768 L83.9086 415.888 Z" fill="#000000" fill-rule="nonzero" fill-opacity="1"></path><path clip-path="url(#clip560)" d="M108.978 390.286 Q105.367 390.286 103.538 393.851 Q101.733 397.393 101.733 404.523 Q101.733 411.629 103.538 415.194 Q105.367 418.735 108.978 418.735 Q112.612 418.735 114.418 415.194 Q116.246 411.629 116.246 404.523 Q116.246 397.393 114.418 393.851 Q112.612 390.286 108.978 390.286 M108.978 386.583 Q114.788 386.583 117.844 391.189 Q120.922 395.773 120.922 404.523 Q120.922 413.249 117.844 417.856 Q114.788 422.439 108.978 422.439 Q103.168 422.439 100.089 417.856 Q97.0335 413.249 97.0335 404.523 Q97.0335 395.773 100.089 391.189 Q103.168 386.583 108.978 386.583 Z" fill="#000000" fill-rule="nonzero" fill-opacity="1"></path><path clip-path="url(#clip560)" d="M157.311 396.305 L146.732 406.93 L157.311 417.509 L154.556 420.309 L143.931 409.685 L133.306 420.309 L130.575 417.509 L141.131 406.93 L130.575 396.305 L133.306 393.504 L143.931 404.129 L154.556 393.504 L157.311 396.305 Z" fill="#000000" fill-rule="nonzero" fill-opacity="1"></path><path clip-path="url(#clip560)" d="M169.672 417.833 L177.311 417.833 L177.311 391.467 L169.001 393.134 L169.001 388.874 L177.265 387.208 L181.94 387.208 L181.94 417.833 L189.579 417.833 L189.579 421.768 L169.672 421.768 L169.672 417.833 Z" fill="#000000" fill-rule="nonzero" fill-opacity="1"></path><path clip-path="url(#clip560)" d="M209.024 390.286 Q205.413 390.286 203.584 393.851 Q201.778 397.393 201.778 404.523 Q201.778 411.629 203.584 415.194 Q205.413 418.735 209.024 418.735 Q212.658 418.735 214.463 415.194 Q216.292 411.629 216.292 404.523 Q216.292 397.393 214.463 393.851 Q212.658 390.286 209.024 390.286 M209.024 386.583 Q214.834 386.583 217.889 391.189 Q220.968 395.773 220.968 404.523 Q220.968 413.249 217.889 417.856 Q214.834 422.439 209.024 422.439 Q203.214 422.439 200.135 417.856 Q197.079 413.249 197.079 404.523 Q197.079 395.773 200.135 391.189 Q203.214 386.583 209.024 386.583 Z" fill="#000000" fill-rule="nonzero" fill-opacity="1"></path><path clip-path="url(#clip560)" d="M222.153 366.277 L237.068 366.277 L237.068 369.475 L225.632 369.475 L225.632 376.358 Q226.46 376.076 227.287 375.945 Q228.115 375.794 228.943 375.794 Q233.645 375.794 236.39 378.371 Q239.136 380.947 239.136 385.348 Q239.136 389.881 236.315 392.401 Q233.494 394.903 228.36 394.903 Q226.592 394.903 224.748 394.602 Q222.924 394.301 220.968 393.699 L220.968 389.881 Q222.661 390.803 224.466 391.254 Q226.272 391.706 228.284 391.706 Q231.538 391.706 233.438 389.994 Q235.337 388.282 235.337 385.348 Q235.337 382.414 233.438 380.703 Q231.538 378.991 228.284 378.991 Q226.761 378.991 225.237 379.33 Q223.733 379.669 222.153 380.383 L222.153 366.277 Z" fill="#000000" fill-rule="nonzero" fill-opacity="1"></path><path clip-path="url(#clip560)" d="M52.5662 104.965 L74.7883 104.965 L74.7883 106.955 L62.2421 139.525 L57.3578 139.525 L69.1633 108.9 L52.5662 108.9 L52.5662 104.965 Z" fill="#000000" fill-rule="nonzero" fill-opacity="1"></path><path clip-path="url(#clip560)" d="M83.9086 133.645 L88.7928 133.645 L88.7928 139.525 L83.9086 139.525 L83.9086 133.645 Z" fill="#000000" fill-rule="nonzero" fill-opacity="1"></path><path clip-path="url(#clip560)" d="M108.978 108.043 Q105.367 108.043 103.538 111.608 Q101.733 115.15 101.733 122.279 Q101.733 129.386 103.538 132.951 Q105.367 136.492 108.978 136.492 Q112.612 136.492 114.418 132.951 Q116.246 129.386 116.246 122.279 Q116.246 115.15 114.418 111.608 Q112.612 108.043 108.978 108.043 M108.978 104.34 Q114.788 104.34 117.844 108.946 Q120.922 113.529 120.922 122.279 Q120.922 131.006 117.844 135.613 Q114.788 140.196 108.978 140.196 Q103.168 140.196 100.089 135.613 Q97.0335 131.006 97.0335 122.279 Q97.0335 113.529 100.089 108.946 Q103.168 104.34 108.978 104.34 Z" fill="#000000" fill-rule="nonzero" fill-opacity="1"></path><path clip-path="url(#clip560)" d="M157.311 114.062 L146.732 124.687 L157.311 135.265 L154.556 138.066 L143.931 127.441 L133.306 138.066 L130.575 135.265 L141.131 124.687 L130.575 114.062 L133.306 111.261 L143.931 121.886 L154.556 111.261 L157.311 114.062 Z" fill="#000000" fill-rule="nonzero" fill-opacity="1"></path><path clip-path="url(#clip560)" d="M169.672 135.589 L177.311 135.589 L177.311 109.224 L169.001 110.89 L169.001 106.631 L177.265 104.965 L181.94 104.965 L181.94 135.589 L189.579 135.589 L189.579 139.525 L169.672 139.525 L169.672 135.589 Z" fill="#000000" fill-rule="nonzero" fill-opacity="1"></path><path clip-path="url(#clip560)" d="M209.024 108.043 Q205.413 108.043 203.584 111.608 Q201.778 115.15 201.778 122.279 Q201.778 129.386 203.584 132.951 Q205.413 136.492 209.024 136.492 Q212.658 136.492 214.463 132.951 Q216.292 129.386 216.292 122.279 Q216.292 115.15 214.463 111.608 Q212.658 108.043 209.024 108.043 M209.024 104.34 Q214.834 104.34 217.889 108.946 Q220.968 113.529 220.968 122.279 Q220.968 131.006 217.889 135.613 Q214.834 140.196 209.024 140.196 Q203.214 140.196 200.135 135.613 Q197.079 131.006 197.079 122.279 Q197.079 113.529 200.135 108.946 Q203.214 104.34 209.024 104.34 Z" fill="#000000" fill-rule="nonzero" fill-opacity="1"></path><path clip-path="url(#clip560)" d="M222.153 84.0342 L237.068 84.0342 L237.068 87.2315 L225.632 87.2315 L225.632 94.1152 Q226.46 93.833 227.287 93.7014 Q228.115 93.5509 228.943 93.5509 Q233.645 93.5509 236.39 96.1276 Q239.136 98.7043 239.136 103.105 Q239.136 107.638 236.315 110.158 Q233.494 112.66 228.36 112.66 Q226.592 112.66 224.748 112.359 Q222.924 112.058 220.968 111.456 L220.968 107.638 Q222.661 108.56 224.466 109.011 Q226.272 109.462 228.284 109.462 Q231.538 109.462 233.438 107.751 Q235.337 106.039 235.337 103.105 Q235.337 100.171 233.438 98.4597 Q231.538 96.7482 228.284 96.7482 Q226.761 96.7482 225.237 97.0868 Q223.733 97.4253 222.153 98.14 L222.153 84.0342 Z" fill="#000000" fill-rule="nonzero" fill-opacity="1"></path><polyline clip-path="url(#clip562)" style="stroke:#009af9; stroke-linecap:round; stroke-linejoin:round; stroke-width:8; stroke-opacity:1; fill:none" points="333.937,87.9763 345.541,590.129 368.998,647.998 396.035,740.096 419.036,939.188 457.094,1097.58 535.872,1174.03 579.671,1260.53 858.699,1335.5 864.866,1338.72 864.95,1344.78 865.038,1385.82 865.12,1414.13 865.198,1424.76 882.312,1427.32 888.796,1428.19 990.914,1433.36 990.987,1433.48 1035.43,1435.54 1303.66,1436.35 1303.73,1437.24 1303.8,1439.73 1978.36,1442.65 2060.62,1444.55 2060.69,1445.12 2276.55,1445.72 "></polyline>
<polyline clip-path="url(#clip562)" style="stroke:#e26f46; stroke-linecap:round; stroke-linejoin:round; stroke-width:8; stroke-opacity:1; fill:none" points="365.65,1393.72 415.064,1393.72 621.854,1403.58 831.86,1410.84 1039.15,1413.24 1248.04,1439.53 1456.91,1439.68 1665.98,1439.68 1873.92,1440.2 2079.97,1440.62 2293.96,1440.68 "></polyline>
<path clip-path="url(#clip560)" d="M1972.13 250.738 L2283.5 250.738 L2283.5 95.2176 L1972.13 95.2176  Z" fill="#ffffff" fill-rule="evenodd" fill-opacity="1"></path>
<polyline clip-path="url(#clip560)" style="stroke:#000000; stroke-linecap:round; stroke-linejoin:round; stroke-width:4; stroke-opacity:1; fill:none" points="1972.13,250.738 2283.5,250.738 2283.5,95.2176 1972.13,95.2176 1972.13,250.738 "></polyline>
<polyline clip-path="url(#clip560)" style="stroke:#009af9; stroke-linecap:round; stroke-linejoin:round; stroke-width:8; stroke-opacity:1; fill:none" points="1995.21,147.058 2133.72,147.058 "></polyline>
<path clip-path="url(#clip560)" d="M2156.81 129.778 L2163.77 129.778 L2172.59 153.296 L2181.46 129.778 L2188.43 129.778 L2188.43 164.338 L2183.87 164.338 L2183.87 133.99 L2174.95 157.694 L2170.26 157.694 L2161.34 133.99 L2161.34 164.338 L2156.81 164.338 L2156.81 129.778 Z" fill="#000000" fill-rule="nonzero" fill-opacity="1"></path><path clip-path="url(#clip560)" d="M2197.71 129.778 L2202.39 129.778 L2202.39 164.338 L2197.71 164.338 L2197.71 129.778 Z" fill="#000000" fill-rule="nonzero" fill-opacity="1"></path><path clip-path="url(#clip560)" d="M2211.69 129.778 L2216.37 129.778 L2216.37 160.402 L2233.2 160.402 L2233.2 164.338 L2211.69 164.338 L2211.69 129.778 Z" fill="#000000" fill-rule="nonzero" fill-opacity="1"></path><path clip-path="url(#clip560)" d="M2242.78 133.62 L2242.78 146.606 L2248.66 146.606 Q2251.92 146.606 2253.7 144.916 Q2255.49 143.227 2255.49 140.102 Q2255.49 137 2253.7 135.31 Q2251.92 133.62 2248.66 133.62 L2242.78 133.62 M2238.1 129.778 L2248.66 129.778 Q2254.47 129.778 2257.43 132.416 Q2260.42 135.032 2260.42 140.102 Q2260.42 145.217 2257.43 147.833 Q2254.47 150.449 2248.66 150.449 L2242.78 150.449 L2242.78 164.338 L2238.1 164.338 L2238.1 129.778 Z" fill="#000000" fill-rule="nonzero" fill-opacity="1"></path><polyline clip-path="url(#clip560)" style="stroke:#e26f46; stroke-linecap:round; stroke-linejoin:round; stroke-width:8; stroke-opacity:1; fill:none" points="1995.21,198.898 2133.72,198.898 "></polyline>
<path clip-path="url(#clip560)" d="M2156.81 181.618 L2161.48 181.618 L2161.48 216.178 L2156.81 216.178 L2156.81 181.618 Z" fill="#000000" fill-rule="nonzero" fill-opacity="1"></path><path clip-path="url(#clip560)" d="M2175.46 185.46 L2175.46 198.446 L2181.34 198.446 Q2184.61 198.446 2186.39 196.756 Q2188.17 195.067 2188.17 191.942 Q2188.17 188.84 2186.39 187.15 Q2184.61 185.46 2181.34 185.46 L2175.46 185.46 M2170.79 181.618 L2181.34 181.618 Q2187.15 181.618 2190.12 184.256 Q2193.1 186.872 2193.1 191.942 Q2193.1 197.057 2190.12 199.673 Q2187.15 202.289 2181.34 202.289 L2175.46 202.289 L2175.46 216.178 L2170.79 216.178 L2170.79 181.618 Z" fill="#000000" fill-rule="nonzero" fill-opacity="1"></path><path clip-path="url(#clip560)" d="M2204.05 199.673 L2204.05 212.335 L2211.55 212.335 Q2215.32 212.335 2217.13 210.784 Q2218.96 209.21 2218.96 205.992 Q2218.96 202.752 2217.13 201.224 Q2215.32 199.673 2211.55 199.673 L2204.05 199.673 M2204.05 185.46 L2204.05 195.877 L2210.97 195.877 Q2214.4 195.877 2216.07 194.604 Q2217.76 193.307 2217.76 190.668 Q2217.76 188.053 2216.07 186.756 Q2214.4 185.46 2210.97 185.46 L2204.05 185.46 M2199.38 181.618 L2211.32 181.618 Q2216.67 181.618 2219.56 183.84 Q2222.45 186.062 2222.45 190.159 Q2222.45 193.33 2220.97 195.205 Q2219.49 197.08 2216.62 197.543 Q2220.07 198.284 2221.97 200.645 Q2223.89 202.983 2223.89 206.502 Q2223.89 211.131 2220.74 213.654 Q2217.59 216.178 2211.78 216.178 L2199.38 216.178 L2199.38 181.618 Z" fill="#000000" fill-rule="nonzero" fill-opacity="1"></path></svg>