<svg xmlns="http://www.w3.org/2000/svg" xmlns:xlink="http://www.w3.org/1999/xlink" width="600" height="400" viewBox="0 0 2400 1600">
<defs>
  <clipPath id="clip700">
    <rect x="0" y="0" width="2400" height="1600"></rect>
  </clipPath>
</defs>
<path clip-path="url(#clip700)" d="M0 1600 L2400 1600 L2400 0 L0 0  Z" fill="#ffffff" fill-rule="evenodd" fill-opacity="1"></path>
<defs>
  <clipPath id="clip701">
    <rect x="480" y="0" width="1681" height="1600"></rect>
  </clipPath>
</defs>
<path clip-path="url(#clip700)" d="M298.873 1423.18 L2352.76 1423.18 L2352.76 123.472 L298.873 123.472  Z" fill="#ffffff" fill-rule="evenodd" fill-opacity="1"></path>
<defs>
  <clipPath id="clip702">
    <rect x="298" y="123" width="2055" height="1301"></rect>
  </clipPath>
</defs>
<polyline clip-path="url(#clip702)" style="stroke:#000000; stroke-linecap:round; stroke-linejoin:round; stroke-width:2; stroke-opacity:0.1; fill:none" points="326.302,1423.18 326.302,123.472 "></polyline>
<polyline clip-path="url(#clip702)" style="stroke:#000000; stroke-linecap:round; stroke-linejoin:round; stroke-width:2; stroke-opacity:0.1; fill:none" points="667.411,1423.18 667.411,123.472 "></polyline>
<polyline clip-path="url(#clip702)" style="stroke:#000000; stroke-linecap:round; stroke-linejoin:round; stroke-width:2; stroke-opacity:0.1; fill:none" points="1008.52,1423.18 1008.52,123.472 "></polyline>
<polyline clip-path="url(#clip702)" style="stroke:#000000; stroke-linecap:round; stroke-linejoin:round; stroke-width:2; stroke-opacity:0.1; fill:none" points="1349.63,1423.18 1349.63,123.472 "></polyline>
<polyline clip-path="url(#clip702)" style="stroke:#000000; stroke-linecap:round; stroke-linejoin:round; stroke-width:2; stroke-opacity:0.1; fill:none" points="1690.74,1423.18 1690.74,123.472 "></polyline>
<polyline clip-path="url(#clip702)" style="stroke:#000000; stroke-linecap:round; stroke-linejoin:round; stroke-width:2; stroke-opacity:0.1; fill:none" points="2031.84,1423.18 2031.84,123.472 "></polyline>
<polyline clip-path="url(#clip700)" style="stroke:#000000; stroke-linecap:round; stroke-linejoin:round; stroke-width:4; stroke-opacity:1; fill:none" points="298.873,1423.18 2352.76,1423.18 "></polyline>
<polyline clip-path="url(#clip700)" style="stroke:#000000; stroke-linecap:round; stroke-linejoin:round; stroke-width:4; stroke-opacity:1; fill:none" points="326.302,1423.18 326.302,1404.28 "></polyline>
<polyline clip-path="url(#clip700)" style="stroke:#000000; stroke-linecap:round; stroke-linejoin:round; stroke-width:4; stroke-opacity:1; fill:none" points="667.411,1423.18 667.411,1404.28 "></polyline>
<polyline clip-path="url(#clip700)" style="stroke:#000000; stroke-linecap:round; stroke-linejoin:round; stroke-width:4; stroke-opacity:1; fill:none" points="1008.52,1423.18 1008.52,1404.28 "></polyline>
<polyline clip-path="url(#clip700)" style="stroke:#000000; stroke-linecap:round; stroke-linejoin:round; stroke-width:4; stroke-opacity:1; fill:none" points="1349.63,1423.18 1349.63,1404.28 "></polyline>
<polyline clip-path="url(#clip700)" style="stroke:#000000; stroke-linecap:round; stroke-linejoin:round; stroke-width:4; stroke-opacity:1; fill:none" points="1690.74,1423.18 1690.74,1404.28 "></polyline>
<polyline clip-path="url(#clip700)" style="stroke:#000000; stroke-linecap:round; stroke-linejoin:round; stroke-width:4; stroke-opacity:1; fill:none" points="2031.84,1423.18 2031.84,1404.28 "></polyline>
<path clip-path="url(#clip700)" d="M315.126 1468.5 Q315.126 1462.59 316.91 1458.33 Q318.694 1454.05 321.651 1451.96 Q323.945 1450.31 326.391 1450.31 Q330.367 1450.31 333.528 1454.36 Q337.478 1459.38 337.478 1467.97 Q337.478 1473.98 335.745 1478.19 Q334.012 1482.39 331.31 1484.31 Q328.634 1486.19 326.137 1486.19 Q321.192 1486.19 317.904 1480.36 Q315.126 1475.44 315.126 1468.5 M320.122 1469.14 Q320.122 1476.28 321.88 1480.79 Q323.333 1484.59 326.213 1484.59 Q327.589 1484.59 329.068 1483.36 Q330.546 1482.11 331.31 1479.21 Q332.483 1474.82 332.483 1466.85 Q332.483 1460.93 331.259 1456.98 Q330.342 1454.05 328.889 1452.83 Q327.844 1451.99 326.366 1451.99 Q324.633 1451.99 323.282 1453.54 Q321.447 1455.66 320.784 1460.2 Q320.122 1464.73 320.122 1469.14 Z" fill="#000000" fill-rule="nonzero" fill-opacity="1"></path><path clip-path="url(#clip700)" d="M632.252 1454.41 L640.662 1450.31 L641.503 1450.31 L641.503 1479.49 Q641.503 1482.39 641.733 1483.11 Q641.988 1483.82 642.752 1484.2 Q643.517 1484.59 645.862 1484.64 L645.862 1485.58 L632.863 1485.58 L632.863 1484.64 Q635.31 1484.59 636.024 1484.23 Q636.737 1483.85 637.018 1483.24 Q637.298 1482.6 637.298 1479.49 L637.298 1460.83 Q637.298 1457.06 637.043 1455.99 Q636.865 1455.17 636.38 1454.79 Q635.922 1454.41 635.259 1454.41 Q634.316 1454.41 632.634 1455.2 L632.252 1454.41 Z" fill="#000000" fill-rule="nonzero" fill-opacity="1"></path><path clip-path="url(#clip700)" d="M654.119 1468.5 Q654.119 1462.59 655.903 1458.33 Q657.687 1454.05 660.644 1451.96 Q662.938 1450.31 665.384 1450.31 Q669.36 1450.31 672.521 1454.36 Q676.471 1459.38 676.471 1467.97 Q676.471 1473.98 674.738 1478.19 Q673.005 1482.39 670.303 1484.31 Q667.627 1486.19 665.13 1486.19 Q660.185 1486.19 656.897 1480.36 Q654.119 1475.44 654.119 1468.5 M659.115 1469.14 Q659.115 1476.28 660.873 1480.79 Q662.326 1484.59 665.206 1484.59 Q666.582 1484.59 668.06 1483.36 Q669.539 1482.11 670.303 1479.21 Q671.476 1474.82 671.476 1466.85 Q671.476 1460.93 670.252 1456.98 Q669.335 1454.05 667.882 1452.83 Q666.837 1451.99 665.359 1451.99 Q663.626 1451.99 662.275 1453.54 Q660.44 1455.66 659.777 1460.2 Q659.115 1464.73 659.115 1469.14 Z" fill="#000000" fill-rule="nonzero" fill-opacity="1"></path><path clip-path="url(#clip700)" d="M680.218 1468.5 Q680.218 1462.59 682.002 1458.33 Q683.786 1454.05 686.742 1451.96 Q689.036 1450.31 691.483 1450.31 Q695.459 1450.31 698.619 1454.36 Q702.57 1459.38 702.57 1467.97 Q702.57 1473.98 700.836 1478.19 Q699.103 1482.39 696.402 1484.31 Q693.726 1486.19 691.228 1486.19 Q686.283 1486.19 682.996 1480.36 Q680.218 1475.44 680.218 1468.5 M685.213 1469.14 Q685.213 1476.28 686.972 1480.79 Q688.424 1484.59 691.304 1484.59 Q692.681 1484.59 694.159 1483.36 Q695.637 1482.11 696.402 1479.21 Q697.574 1474.82 697.574 1466.85 Q697.574 1460.93 696.351 1456.98 Q695.433 1454.05 693.98 1452.83 Q692.936 1451.99 691.457 1451.99 Q689.724 1451.99 688.373 1453.54 Q686.538 1455.66 685.876 1460.2 Q685.213 1464.73 685.213 1469.14 Z" fill="#000000" fill-rule="nonzero" fill-opacity="1"></path><path clip-path="url(#clip700)" d="M993.673 1478.93 L991.252 1485.58 L970.862 1485.58 L970.862 1484.64 Q979.859 1476.43 983.529 1471.23 Q987.199 1466.03 987.199 1461.72 Q987.199 1458.44 985.186 1456.32 Q983.172 1454.21 980.369 1454.21 Q977.82 1454.21 975.781 1455.71 Q973.768 1457.19 972.799 1460.07 L971.856 1460.07 Q972.493 1455.35 975.119 1452.83 Q977.769 1450.31 981.72 1450.31 Q985.925 1450.31 988.728 1453.01 Q991.557 1455.71 991.557 1459.38 Q991.557 1462 990.334 1464.63 Q988.448 1468.76 984.217 1473.37 Q977.871 1480.3 976.291 1481.73 L985.313 1481.73 Q988.066 1481.73 989.162 1481.53 Q990.283 1481.32 991.175 1480.71 Q992.067 1480.07 992.73 1478.93 L993.673 1478.93 Z" fill="#000000" fill-rule="nonzero" fill-opacity="1"></path><path clip-path="url(#clip700)" d="M997.725 1468.5 Q997.725 1462.59 999.509 1458.33 Q1001.29 1454.05 1004.25 1451.96 Q1006.54 1450.31 1008.99 1450.31 Q1012.97 1450.31 1016.13 1454.36 Q1020.08 1459.38 1020.08 1467.97 Q1020.08 1473.98 1018.34 1478.19 Q1016.61 1482.39 1013.91 1484.31 Q1011.23 1486.19 1008.74 1486.19 Q1003.79 1486.19 1000.5 1480.36 Q997.725 1475.44 997.725 1468.5 M1002.72 1469.14 Q1002.72 1476.28 1004.48 1480.79 Q1005.93 1484.59 1008.81 1484.59 Q1010.19 1484.59 1011.67 1483.36 Q1013.14 1482.11 1013.91 1479.21 Q1015.08 1474.82 1015.08 1466.85 Q1015.08 1460.93 1013.86 1456.98 Q1012.94 1454.05 1011.49 1452.83 Q1010.44 1451.99 1008.96 1451.99 Q1007.23 1451.99 1005.88 1453.54 Q1004.05 1455.66 1003.38 1460.2 Q1002.72 1464.73 1002.72 1469.14 Z" fill="#000000" fill-rule="nonzero" fill-opacity="1"></path><path clip-path="url(#clip700)" d="M1023.82 1468.5 Q1023.82 1462.59 1025.61 1458.33 Q1027.39 1454.05 1030.35 1451.96 Q1032.64 1450.31 1035.09 1450.31 Q1039.06 1450.31 1042.23 1454.36 Q1046.18 1459.38 1046.18 1467.97 Q1046.18 1473.98 1044.44 1478.19 Q1042.71 1482.39 1040.01 1484.31 Q1037.33 1486.19 1034.83 1486.19 Q1029.89 1486.19 1026.6 1480.36 Q1023.82 1475.44 1023.82 1468.5 M1028.82 1469.14 Q1028.82 1476.28 1030.58 1480.79 Q1032.03 1484.59 1034.91 1484.59 Q1036.29 1484.59 1037.76 1483.36 Q1039.24 1482.11 1040.01 1479.21 Q1041.18 1474.82 1041.18 1466.85 Q1041.18 1460.93 1039.96 1456.98 Q1039.04 1454.05 1037.59 1452.83 Q1036.54 1451.99 1035.06 1451.99 Q1033.33 1451.99 1031.98 1453.54 Q1030.14 1455.66 1029.48 1460.2 Q1028.82 1464.73 1028.82 1469.14 Z" fill="#000000" fill-rule="nonzero" fill-opacity="1"></path><path clip-path="url(#clip700)" d="M1313 1457.6 Q1314.48 1454.1 1316.72 1452.22 Q1318.99 1450.31 1322.36 1450.31 Q1326.51 1450.31 1328.73 1453.01 Q1330.41 1455.02 1330.41 1457.32 Q1330.41 1461.09 1325.67 1465.11 Q1328.86 1466.36 1330.49 1468.68 Q1332.12 1471 1332.12 1474.14 Q1332.12 1478.62 1329.26 1481.91 Q1325.54 1486.19 1318.48 1486.19 Q1314.99 1486.19 1313.72 1485.32 Q1312.47 1484.46 1312.47 1483.46 Q1312.47 1482.73 1313.05 1482.16 Q1313.67 1481.6 1314.51 1481.6 Q1315.14 1481.6 1315.81 1481.81 Q1316.24 1481.94 1317.77 1482.75 Q1319.3 1483.54 1319.88 1483.69 Q1320.83 1483.97 1321.9 1483.97 Q1324.5 1483.97 1326.41 1481.96 Q1328.35 1479.95 1328.35 1477.19 Q1328.35 1475.18 1327.45 1473.27 Q1326.79 1471.84 1326 1471.1 Q1324.91 1470.08 1322.99 1469.27 Q1321.08 1468.43 1319.09 1468.43 L1318.28 1468.43 L1318.28 1467.66 Q1320.29 1467.41 1322.31 1466.21 Q1324.34 1465.01 1325.26 1463.33 Q1326.18 1461.65 1326.18 1459.63 Q1326.18 1457.01 1324.52 1455.4 Q1322.89 1453.77 1320.44 1453.77 Q1316.49 1453.77 1313.84 1458 L1313 1457.6 Z" fill="#000000" fill-rule="nonzero" fill-opacity="1"></path><path clip-path="url(#clip700)" d="M1338.34 1468.5 Q1338.34 1462.59 1340.12 1458.33 Q1341.9 1454.05 1344.86 1451.96 Q1347.15 1450.31 1349.6 1450.31 Q1353.58 1450.31 1356.74 1454.36 Q1360.69 1459.38 1360.69 1467.97 Q1360.69 1473.98 1358.96 1478.19 Q1357.22 1482.39 1354.52 1484.31 Q1351.84 1486.19 1349.35 1486.19 Q1344.4 1486.19 1341.11 1480.36 Q1338.34 1475.44 1338.34 1468.5 M1343.33 1469.14 Q1343.33 1476.28 1345.09 1480.79 Q1346.54 1484.59 1349.42 1484.59 Q1350.8 1484.59 1352.28 1483.36 Q1353.76 1482.11 1354.52 1479.21 Q1355.69 1474.82 1355.69 1466.85 Q1355.69 1460.93 1354.47 1456.98 Q1353.55 1454.05 1352.1 1452.83 Q1351.05 1451.99 1349.58 1451.99 Q1347.84 1451.99 1346.49 1453.54 Q1344.66 1455.66 1343.99 1460.2 Q1343.33 1464.73 1343.33 1469.14 Z" fill="#000000" fill-rule="nonzero" fill-opacity="1"></path><path clip-path="url(#clip700)" d="M1364.43 1468.5 Q1364.43 1462.59 1366.22 1458.33 Q1368 1454.05 1370.96 1451.96 Q1373.25 1450.31 1375.7 1450.31 Q1379.68 1450.31 1382.84 1454.36 Q1386.79 1459.38 1386.79 1467.97 Q1386.79 1473.98 1385.05 1478.19 Q1383.32 1482.39 1380.62 1484.31 Q1377.94 1486.19 1375.45 1486.19 Q1370.5 1486.19 1367.21 1480.36 Q1364.43 1475.44 1364.43 1468.5 M1369.43 1469.14 Q1369.43 1476.28 1371.19 1480.79 Q1372.64 1484.59 1375.52 1484.59 Q1376.9 1484.59 1378.38 1483.36 Q1379.85 1482.11 1380.62 1479.21 Q1381.79 1474.82 1381.79 1466.85 Q1381.79 1460.93 1380.57 1456.98 Q1379.65 1454.05 1378.2 1452.83 Q1377.15 1451.99 1375.67 1451.99 Q1373.94 1451.99 1372.59 1453.54 Q1370.76 1455.66 1370.09 1460.2 Q1369.43 1464.73 1369.43 1469.14 Z" fill="#000000" fill-rule="nonzero" fill-opacity="1"></path><path clip-path="url(#clip700)" d="M1676.4 1472.84 L1676.4 1476.46 L1671.76 1476.46 L1671.76 1485.58 L1667.56 1485.58 L1667.56 1476.46 L1652.93 1476.46 L1652.93 1473.19 L1668.96 1450.31 L1671.76 1450.31 L1671.76 1472.84 L1676.4 1472.84 M1667.56 1472.84 L1667.56 1455.68 L1655.42 1472.84 L1667.56 1472.84 Z" fill="#000000" fill-rule="nonzero" fill-opacity="1"></path><path clip-path="url(#clip700)" d="M1680.09 1468.5 Q1680.09 1462.59 1681.88 1458.33 Q1683.66 1454.05 1686.62 1451.96 Q1688.91 1450.31 1691.36 1450.31 Q1695.34 1450.31 1698.5 1454.36 Q1702.45 1459.38 1702.45 1467.97 Q1702.45 1473.98 1700.71 1478.19 Q1698.98 1482.39 1696.28 1484.31 Q1693.6 1486.19 1691.11 1486.19 Q1686.16 1486.19 1682.87 1480.36 Q1680.09 1475.44 1680.09 1468.5 M1685.09 1469.14 Q1685.09 1476.28 1686.85 1480.79 Q1688.3 1484.59 1691.18 1484.59 Q1692.56 1484.59 1694.04 1483.36 Q1695.51 1482.11 1696.28 1479.21 Q1697.45 1474.82 1697.45 1466.85 Q1697.45 1460.93 1696.23 1456.98 Q1695.31 1454.05 1693.86 1452.83 Q1692.81 1451.99 1691.33 1451.99 Q1689.6 1451.99 1688.25 1453.54 Q1686.42 1455.66 1685.75 1460.2 Q1685.09 1464.73 1685.09 1469.14 Z" fill="#000000" fill-rule="nonzero" fill-opacity="1"></path><path clip-path="url(#clip700)" d="M1706.19 1468.5 Q1706.19 1462.59 1707.98 1458.33 Q1709.76 1454.05 1712.72 1451.96 Q1715.01 1450.31 1717.46 1450.31 Q1721.43 1450.31 1724.59 1454.36 Q1728.55 1459.38 1728.55 1467.97 Q1728.55 1473.98 1726.81 1478.19 Q1725.08 1482.39 1722.38 1484.31 Q1719.7 1486.19 1717.2 1486.19 Q1712.26 1486.19 1708.97 1480.36 Q1706.19 1475.44 1706.19 1468.5 M1711.19 1469.14 Q1711.19 1476.28 1712.95 1480.79 Q1714.4 1484.59 1717.28 1484.59 Q1718.66 1484.59 1720.13 1483.36 Q1721.61 1482.11 1722.38 1479.21 Q1723.55 1474.82 1723.55 1466.85 Q1723.55 1460.93 1722.33 1456.98 Q1721.41 1454.05 1719.96 1452.83 Q1718.91 1451.99 1717.43 1451.99 Q1715.7 1451.99 1714.35 1453.54 Q1712.51 1455.66 1711.85 1460.2 Q1711.19 1464.73 1711.19 1469.14 Z" fill="#000000" fill-rule="nonzero" fill-opacity="1"></path><path clip-path="url(#clip700)" d="M2015.04 1451.02 L2013.05 1455.35 L2002.65 1455.35 L2000.38 1459.99 Q2007.13 1460.99 2011.08 1465.01 Q2014.47 1468.48 2014.47 1473.17 Q2014.47 1475.89 2013.35 1478.21 Q2012.26 1480.53 2010.58 1482.16 Q2008.89 1483.8 2006.83 1484.79 Q2003.9 1486.19 2000.81 1486.19 Q1997.7 1486.19 1996.28 1485.15 Q1994.88 1484.08 1994.88 1482.8 Q1994.88 1482.09 1995.46 1481.55 Q1996.05 1480.99 1996.94 1480.99 Q1997.6 1480.99 1998.09 1481.2 Q1998.6 1481.4 1999.79 1482.24 Q2001.71 1483.57 2003.67 1483.57 Q2006.65 1483.57 2008.89 1481.32 Q2011.16 1479.06 2011.16 1475.82 Q2011.16 1472.68 2009.15 1469.98 Q2007.13 1467.25 2003.59 1465.78 Q2000.81 1464.63 1996.02 1464.45 L2002.65 1451.02 L2015.04 1451.02 Z" fill="#000000" fill-rule="nonzero" fill-opacity="1"></path><path clip-path="url(#clip700)" d="M2020.36 1468.5 Q2020.36 1462.59 2022.15 1458.33 Q2023.93 1454.05 2026.89 1451.96 Q2029.18 1450.31 2031.63 1450.31 Q2035.6 1450.31 2038.76 1454.36 Q2042.71 1459.38 2042.71 1467.97 Q2042.71 1473.98 2040.98 1478.19 Q2039.25 1482.39 2036.55 1484.31 Q2033.87 1486.19 2031.37 1486.19 Q2026.43 1486.19 2023.14 1480.36 Q2020.36 1475.44 2020.36 1468.5 M2025.36 1469.14 Q2025.36 1476.28 2027.12 1480.79 Q2028.57 1484.59 2031.45 1484.59 Q2032.83 1484.59 2034.3 1483.36 Q2035.78 1482.11 2036.55 1479.21 Q2037.72 1474.82 2037.72 1466.85 Q2037.72 1460.93 2036.5 1456.98 Q2035.58 1454.05 2034.12 1452.83 Q2033.08 1451.99 2031.6 1451.99 Q2029.87 1451.99 2028.52 1453.54 Q2026.68 1455.66 2026.02 1460.2 Q2025.36 1464.73 2025.36 1469.14 Z" fill="#000000" fill-rule="nonzero" fill-opacity="1"></path><path clip-path="url(#clip700)" d="M2046.46 1468.5 Q2046.46 1462.59 2048.24 1458.33 Q2050.03 1454.05 2052.99 1451.96 Q2055.28 1450.31 2057.73 1450.31 Q2061.7 1450.31 2064.86 1454.36 Q2068.81 1459.38 2068.81 1467.97 Q2068.81 1473.98 2067.08 1478.19 Q2065.35 1482.39 2062.64 1484.31 Q2059.97 1486.19 2057.47 1486.19 Q2052.53 1486.19 2049.24 1480.36 Q2046.46 1475.44 2046.46 1468.5 M2051.46 1469.14 Q2051.46 1476.28 2053.21 1480.79 Q2054.67 1484.59 2057.55 1484.59 Q2058.92 1484.59 2060.4 1483.36 Q2061.88 1482.11 2062.64 1479.21 Q2063.82 1474.82 2063.82 1466.85 Q2063.82 1460.93 2062.59 1456.98 Q2061.68 1454.05 2060.22 1452.83 Q2059.18 1451.99 2057.7 1451.99 Q2055.97 1451.99 2054.62 1453.54 Q2052.78 1455.66 2052.12 1460.2 Q2051.46 1464.73 2051.46 1469.14 Z" fill="#000000" fill-rule="nonzero" fill-opacity="1"></path><path clip-path="url(#clip700)" d="M1103.49 1520.52 L1104.02 1531.67 L1102.69 1531.67 Q1102.3 1528.72 1101.64 1527.46 Q1100.55 1525.43 1098.73 1524.48 Q1096.94 1523.5 1094 1523.5 L1087.3 1523.5 L1087.3 1559.81 Q1087.3 1564.19 1088.25 1565.28 Q1089.58 1566.75 1092.35 1566.75 L1094 1566.75 L1094 1568.04 L1073.85 1568.04 L1073.85 1566.75 L1075.53 1566.75 Q1078.54 1566.75 1079.8 1564.92 Q1080.57 1563.8 1080.57 1559.81 L1080.57 1523.5 L1074.86 1523.5 Q1071.53 1523.5 1070.13 1523.99 Q1068.31 1524.66 1067.01 1526.55 Q1065.72 1528.44 1065.47 1531.67 L1064.14 1531.67 L1064.7 1520.52 L1103.49 1520.52 Z" fill="#000000" fill-rule="nonzero" fill-opacity="1"></path><path clip-path="url(#clip700)" d="M1118.74 1535 Q1126.03 1535 1130.44 1540.53 Q1134.19 1545.27 1134.19 1551.4 Q1134.19 1555.71 1132.13 1560.12 Q1130.06 1564.54 1126.41 1566.78 Q1122.8 1569.03 1118.35 1569.03 Q1111.1 1569.03 1106.82 1563.24 Q1103.21 1558.37 1103.21 1552.31 Q1103.21 1547.89 1105.39 1543.55 Q1107.59 1539.17 1111.17 1537.1 Q1114.74 1535 1118.74 1535 M1117.65 1537.27 Q1115.79 1537.27 1113.9 1538.4 Q1112.04 1539.48 1110.89 1542.25 Q1109.73 1545.02 1109.73 1549.37 Q1109.73 1556.37 1112.5 1561.46 Q1115.3 1566.54 1119.86 1566.54 Q1123.26 1566.54 1125.47 1563.73 Q1127.67 1560.93 1127.67 1554.1 Q1127.67 1545.55 1123.99 1540.64 Q1121.51 1537.27 1117.65 1537.27 Z" fill="#000000" fill-rule="nonzero" fill-opacity="1"></path><path clip-path="url(#clip700)" d="M1148.25 1525.39 L1148.25 1535.94 L1155.74 1535.94 L1155.74 1538.4 L1148.25 1538.4 L1148.25 1559.21 Q1148.25 1562.33 1149.12 1563.42 Q1150.03 1564.5 1151.43 1564.5 Q1152.59 1564.5 1153.68 1563.8 Q1154.76 1563.07 1155.36 1561.67 L1156.73 1561.67 Q1155.5 1565.1 1153.26 1566.85 Q1151.01 1568.57 1148.63 1568.57 Q1147.02 1568.57 1145.48 1567.69 Q1143.93 1566.78 1143.2 1565.14 Q1142.46 1563.45 1142.46 1559.98 L1142.46 1538.4 L1137.38 1538.4 L1137.38 1537.24 Q1139.31 1536.47 1141.31 1534.65 Q1143.34 1532.79 1144.92 1530.27 Q1145.72 1528.93 1147.16 1525.39 L1148.25 1525.39 Z" fill="#000000" fill-rule="nonzero" fill-opacity="1"></path><path clip-path="url(#clip700)" d="M1177.05 1563.42 Q1172.11 1567.24 1170.85 1567.83 Q1168.96 1568.71 1166.82 1568.71 Q1163.49 1568.71 1161.32 1566.43 Q1159.18 1564.15 1159.18 1560.44 Q1159.18 1558.09 1160.23 1556.37 Q1161.67 1553.99 1165.21 1551.89 Q1168.78 1549.79 1177.05 1546.77 L1177.05 1545.51 Q1177.05 1540.71 1175.51 1538.92 Q1174 1537.13 1171.09 1537.13 Q1168.89 1537.13 1167.59 1538.33 Q1166.26 1539.52 1166.26 1541.06 L1166.33 1543.09 Q1166.33 1544.7 1165.49 1545.58 Q1164.68 1546.46 1163.35 1546.46 Q1162.05 1546.46 1161.21 1545.55 Q1160.41 1544.63 1160.41 1543.06 Q1160.41 1540.04 1163.49 1537.52 Q1166.57 1535 1172.15 1535 Q1176.42 1535 1179.15 1536.43 Q1181.22 1537.52 1182.2 1539.83 Q1182.83 1541.34 1182.83 1546 L1182.83 1556.9 Q1182.83 1561.49 1183.01 1562.54 Q1183.18 1563.56 1183.57 1563.91 Q1183.99 1564.26 1184.52 1564.26 Q1185.08 1564.26 1185.5 1564.01 Q1186.23 1563.56 1188.34 1561.46 L1188.34 1563.42 Q1184.41 1568.67 1180.84 1568.67 Q1179.12 1568.67 1178.1 1567.48 Q1177.09 1566.29 1177.05 1563.42 M1177.05 1561.14 L1177.05 1548.91 Q1171.76 1551.01 1170.22 1551.89 Q1167.45 1553.43 1166.26 1555.11 Q1165.07 1556.79 1165.07 1558.79 Q1165.07 1561.32 1166.57 1563 Q1168.08 1564.64 1170.04 1564.64 Q1172.71 1564.64 1177.05 1561.14 Z" fill="#000000" fill-rule="nonzero" fill-opacity="1"></path><path clip-path="url(#clip700)" d="M1201.76 1518.21 L1201.76 1560.79 Q1201.76 1563.8 1202.18 1564.78 Q1202.63 1565.77 1203.55 1566.29 Q1204.46 1566.78 1206.94 1566.78 L1206.94 1568.04 L1191.21 1568.04 L1191.21 1566.78 Q1193.42 1566.78 1194.22 1566.33 Q1195.03 1565.87 1195.49 1564.82 Q1195.94 1563.77 1195.94 1560.79 L1195.94 1531.63 Q1195.94 1526.2 1195.7 1524.97 Q1195.45 1523.71 1194.89 1523.26 Q1194.36 1522.8 1193.52 1522.8 Q1192.61 1522.8 1191.21 1523.36 L1190.61 1522.14 L1200.18 1518.21 L1201.76 1518.21 Z" fill="#000000" fill-rule="nonzero" fill-opacity="1"></path><path clip-path="url(#clip700)" d="M1266.59 1520.52 L1267.12 1531.67 L1265.78 1531.67 Q1265.4 1528.72 1264.73 1527.46 Q1263.65 1525.43 1261.82 1524.48 Q1260.04 1523.5 1257.09 1523.5 L1250.4 1523.5 L1250.4 1559.81 Q1250.4 1564.19 1251.35 1565.28 Q1252.68 1566.75 1255.45 1566.75 L1257.09 1566.75 L1257.09 1568.04 L1236.94 1568.04 L1236.94 1566.75 L1238.62 1566.75 Q1241.64 1566.75 1242.9 1564.92 Q1243.67 1563.8 1243.67 1559.81 L1243.67 1523.5 L1237.96 1523.5 Q1234.63 1523.5 1233.23 1523.99 Q1231.41 1524.66 1230.11 1526.55 Q1228.81 1528.44 1228.57 1531.67 L1227.24 1531.67 L1227.8 1520.52 L1266.59 1520.52 Z" fill="#000000" fill-rule="nonzero" fill-opacity="1"></path><path clip-path="url(#clip700)" d="M1276.79 1518.21 Q1278.26 1518.21 1279.28 1519.26 Q1280.33 1520.28 1280.33 1521.75 Q1280.33 1523.22 1279.28 1524.27 Q1278.26 1525.32 1276.79 1525.32 Q1275.32 1525.32 1274.26 1524.27 Q1273.21 1523.22 1273.21 1521.75 Q1273.21 1520.28 1274.23 1519.26 Q1275.28 1518.21 1276.79 1518.21 M1279.7 1535 L1279.7 1560.79 Q1279.7 1563.8 1280.12 1564.82 Q1280.57 1565.8 1281.41 1566.29 Q1282.29 1566.78 1284.57 1566.78 L1284.57 1568.04 L1268.97 1568.04 L1268.97 1566.78 Q1271.32 1566.78 1272.13 1566.33 Q1272.93 1565.87 1273.39 1564.82 Q1273.88 1563.77 1273.88 1560.79 L1273.88 1548.42 Q1273.88 1543.2 1273.56 1541.66 Q1273.32 1540.53 1272.79 1540.11 Q1272.27 1539.66 1271.36 1539.66 Q1270.37 1539.66 1268.97 1540.18 L1268.48 1538.92 L1278.15 1535 L1279.7 1535 Z" fill="#000000" fill-rule="nonzero" fill-opacity="1"></path><path clip-path="url(#clip700)" d="M1298.09 1541.83 Q1301.6 1538.33 1302.23 1537.8 Q1303.81 1536.47 1305.63 1535.73 Q1307.45 1535 1309.24 1535 Q1312.25 1535 1314.43 1536.75 Q1316.6 1538.5 1317.33 1541.83 Q1320.94 1537.63 1323.43 1536.33 Q1325.92 1535 1328.55 1535 Q1331.11 1535 1333.07 1536.33 Q1335.07 1537.63 1336.22 1540.6 Q1336.99 1542.64 1336.99 1546.98 L1336.99 1560.79 Q1336.99 1563.8 1337.45 1564.92 Q1337.8 1565.7 1338.75 1566.26 Q1339.69 1566.78 1341.83 1566.78 L1341.83 1568.04 L1325.99 1568.04 L1325.99 1566.78 L1326.66 1566.78 Q1328.72 1566.78 1329.88 1565.98 Q1330.69 1565.42 1331.04 1564.19 Q1331.18 1563.59 1331.18 1560.79 L1331.18 1546.98 Q1331.18 1543.06 1330.23 1541.45 Q1328.86 1539.2 1325.85 1539.2 Q1323.99 1539.2 1322.1 1540.15 Q1320.24 1541.06 1317.58 1543.58 L1317.51 1543.97 L1317.58 1545.48 L1317.58 1560.79 Q1317.58 1564.08 1317.93 1564.89 Q1318.32 1565.7 1319.33 1566.26 Q1320.35 1566.78 1322.8 1566.78 L1322.8 1568.04 L1306.58 1568.04 L1306.58 1566.78 Q1309.24 1566.78 1310.22 1566.15 Q1311.24 1565.52 1311.62 1564.26 Q1311.8 1563.66 1311.8 1560.79 L1311.8 1546.98 Q1311.8 1543.06 1310.64 1541.34 Q1309.1 1539.1 1306.33 1539.1 Q1304.44 1539.1 1302.58 1540.11 Q1299.67 1541.66 1298.09 1543.58 L1298.09 1560.79 Q1298.09 1563.94 1298.52 1564.89 Q1298.97 1565.84 1299.81 1566.33 Q1300.69 1566.78 1303.32 1566.78 L1303.32 1568.04 L1287.44 1568.04 L1287.44 1566.78 Q1289.65 1566.78 1290.53 1566.33 Q1291.4 1565.84 1291.86 1564.82 Q1292.31 1563.77 1292.31 1560.79 L1292.31 1548.52 Q1292.31 1543.23 1292 1541.69 Q1291.75 1540.53 1291.23 1540.11 Q1290.7 1539.66 1289.79 1539.66 Q1288.81 1539.66 1287.44 1540.18 L1286.92 1538.92 L1296.59 1535 L1298.09 1535 L1298.09 1541.83 Z" fill="#000000" fill-rule="nonzero" fill-opacity="1"></path><path clip-path="url(#clip700)" d="M1349.78 1548.03 Q1349.75 1555.18 1353.25 1559.25 Q1356.76 1563.31 1361.49 1563.31 Q1364.64 1563.31 1366.96 1561.6 Q1369.3 1559.84 1370.88 1555.64 L1371.97 1556.34 Q1371.23 1561.14 1367.69 1565.1 Q1364.15 1569.03 1358.83 1569.03 Q1353.04 1569.03 1348.91 1564.54 Q1344.81 1560.02 1344.81 1552.41 Q1344.81 1544.18 1349.01 1539.59 Q1353.25 1534.96 1359.63 1534.96 Q1365.03 1534.96 1368.5 1538.54 Q1371.97 1542.08 1371.97 1548.03 L1349.78 1548.03 M1349.78 1546 L1364.64 1546 Q1364.47 1542.92 1363.91 1541.66 Q1363.03 1539.69 1361.28 1538.57 Q1359.56 1537.45 1357.67 1537.45 Q1354.76 1537.45 1352.45 1539.73 Q1350.17 1541.97 1349.78 1546 Z" fill="#000000" fill-rule="nonzero" fill-opacity="1"></path><path clip-path="url(#clip700)" d="M1406.66 1545.79 L1406.66 1559.63 Q1406.66 1564.12 1407.64 1565.21 Q1408.97 1566.75 1411.67 1566.75 L1413.5 1566.75 L1413.5 1568.04 L1393.13 1568.04 L1393.13 1566.75 L1394.92 1566.75 Q1397.94 1566.75 1399.23 1564.78 Q1399.93 1563.7 1399.93 1559.63 L1399.93 1528.93 Q1399.93 1524.45 1398.99 1523.36 Q1397.62 1521.82 1394.92 1521.82 L1393.13 1521.82 L1393.13 1520.52 L1410.55 1520.52 Q1416.93 1520.52 1420.61 1521.86 Q1424.29 1523.15 1426.81 1526.27 Q1429.34 1529.39 1429.34 1533.67 Q1429.34 1539.48 1425.48 1543.13 Q1421.66 1546.77 1414.65 1546.77 Q1412.93 1546.77 1410.94 1546.53 Q1408.94 1546.28 1406.66 1545.79 M1406.66 1543.79 Q1408.52 1544.14 1409.96 1544.32 Q1411.39 1544.49 1412.41 1544.49 Q1416.05 1544.49 1418.68 1541.69 Q1421.35 1538.85 1421.35 1534.37 Q1421.35 1531.28 1420.08 1528.65 Q1418.82 1525.99 1416.51 1524.69 Q1414.2 1523.36 1411.25 1523.36 Q1409.47 1523.36 1406.66 1524.03 L1406.66 1543.79 Z" fill="#000000" fill-rule="nonzero" fill-opacity="1"></path><path clip-path="url(#clip700)" d="M1452.29 1563.42 Q1447.35 1567.24 1446.09 1567.83 Q1444.19 1568.71 1442.06 1568.71 Q1438.73 1568.71 1436.55 1566.43 Q1434.42 1564.15 1434.42 1560.44 Q1434.42 1558.09 1435.47 1556.37 Q1436.9 1553.99 1440.44 1551.89 Q1444.02 1549.79 1452.29 1546.77 L1452.29 1545.51 Q1452.29 1540.71 1450.75 1538.92 Q1449.24 1537.13 1446.33 1537.13 Q1444.12 1537.13 1442.83 1538.33 Q1441.5 1539.52 1441.5 1541.06 L1441.57 1543.09 Q1441.57 1544.7 1440.72 1545.58 Q1439.92 1546.46 1438.59 1546.46 Q1437.29 1546.46 1436.45 1545.55 Q1435.64 1544.63 1435.64 1543.06 Q1435.64 1540.04 1438.73 1537.52 Q1441.81 1535 1447.38 1535 Q1451.66 1535 1454.39 1536.43 Q1456.46 1537.52 1457.44 1539.83 Q1458.07 1541.34 1458.07 1546 L1458.07 1556.9 Q1458.07 1561.49 1458.25 1562.54 Q1458.42 1563.56 1458.81 1563.91 Q1459.23 1564.26 1459.75 1564.26 Q1460.31 1564.26 1460.73 1564.01 Q1461.47 1563.56 1463.57 1561.46 L1463.57 1563.42 Q1459.65 1568.67 1456.07 1568.67 Q1454.36 1568.67 1453.34 1567.48 Q1452.32 1566.29 1452.29 1563.42 M1452.29 1561.14 L1452.29 1548.91 Q1447 1551.01 1445.46 1551.89 Q1442.69 1553.43 1441.5 1555.11 Q1440.3 1556.79 1440.3 1558.79 Q1440.3 1561.32 1441.81 1563 Q1443.32 1564.64 1445.28 1564.64 Q1447.94 1564.64 1452.29 1561.14 Z" fill="#000000" fill-rule="nonzero" fill-opacity="1"></path><path clip-path="url(#clip700)" d="M1486.7 1535 L1486.7 1545.93 L1485.55 1545.93 Q1484.21 1540.78 1482.11 1538.92 Q1480.04 1537.06 1476.82 1537.06 Q1474.37 1537.06 1472.86 1538.36 Q1471.35 1539.66 1471.35 1541.23 Q1471.35 1543.2 1472.47 1544.6 Q1473.56 1546.04 1476.89 1547.65 L1482.01 1550.14 Q1489.12 1553.61 1489.12 1559.28 Q1489.12 1563.66 1485.79 1566.36 Q1482.5 1569.03 1478.4 1569.03 Q1475.45 1569.03 1471.67 1567.97 Q1470.51 1567.62 1469.78 1567.62 Q1468.97 1567.62 1468.51 1568.53 L1467.36 1568.53 L1467.36 1557.07 L1468.51 1557.07 Q1469.5 1561.98 1472.26 1564.47 Q1475.03 1566.96 1478.47 1566.96 Q1480.89 1566.96 1482.39 1565.56 Q1483.93 1564.12 1483.93 1562.12 Q1483.93 1559.7 1482.22 1558.06 Q1480.53 1556.41 1475.45 1553.89 Q1470.37 1551.36 1468.8 1549.33 Q1467.22 1547.33 1467.22 1544.28 Q1467.22 1540.32 1469.92 1537.66 Q1472.65 1535 1476.96 1535 Q1478.85 1535 1481.55 1535.8 Q1483.34 1536.33 1483.93 1536.33 Q1484.49 1536.33 1484.81 1536.08 Q1485.13 1535.84 1485.55 1535 L1486.7 1535 Z" fill="#000000" fill-rule="nonzero" fill-opacity="1"></path><path clip-path="url(#clip700)" d="M1514.63 1535 L1514.63 1545.93 L1513.48 1545.93 Q1512.14 1540.78 1510.04 1538.92 Q1507.97 1537.06 1504.75 1537.06 Q1502.3 1537.06 1500.79 1538.36 Q1499.28 1539.66 1499.28 1541.23 Q1499.28 1543.2 1500.41 1544.6 Q1501.49 1546.04 1504.82 1547.65 L1509.94 1550.14 Q1517.05 1553.61 1517.05 1559.28 Q1517.05 1563.66 1513.72 1566.36 Q1510.43 1569.03 1506.33 1569.03 Q1503.38 1569.03 1499.6 1567.97 Q1498.44 1567.62 1497.71 1567.62 Q1496.9 1567.62 1496.45 1568.53 L1495.29 1568.53 L1495.29 1557.07 L1496.45 1557.07 Q1497.43 1561.98 1500.19 1564.47 Q1502.96 1566.96 1506.4 1566.96 Q1508.82 1566.96 1510.32 1565.56 Q1511.86 1564.12 1511.86 1562.12 Q1511.86 1559.7 1510.15 1558.06 Q1508.47 1556.41 1503.38 1553.89 Q1498.3 1551.36 1496.73 1549.33 Q1495.15 1547.33 1495.15 1544.28 Q1495.15 1540.32 1497.85 1537.66 Q1500.58 1535 1504.89 1535 Q1506.78 1535 1509.48 1535.8 Q1511.27 1536.33 1511.86 1536.33 Q1512.43 1536.33 1512.74 1536.08 Q1513.06 1535.84 1513.48 1535 L1514.63 1535 Z" fill="#000000" fill-rule="nonzero" fill-opacity="1"></path><path clip-path="url(#clip700)" d="M1527.21 1548.03 Q1527.18 1555.18 1530.68 1559.25 Q1534.19 1563.31 1538.92 1563.31 Q1542.07 1563.31 1544.39 1561.6 Q1546.73 1559.84 1548.31 1555.64 L1549.4 1556.34 Q1548.66 1561.14 1545.12 1565.1 Q1541.58 1569.03 1536.26 1569.03 Q1530.47 1569.03 1526.34 1564.54 Q1522.24 1560.02 1522.24 1552.41 Q1522.24 1544.18 1526.44 1539.59 Q1530.68 1534.96 1537.06 1534.96 Q1542.46 1534.96 1545.93 1538.54 Q1549.4 1542.08 1549.4 1548.03 L1527.21 1548.03 M1527.21 1546 L1542.07 1546 Q1541.9 1542.92 1541.34 1541.66 Q1540.46 1539.69 1538.71 1538.57 Q1536.99 1537.45 1535.1 1537.45 Q1532.19 1537.45 1529.88 1539.73 Q1527.6 1541.97 1527.21 1546 Z" fill="#000000" fill-rule="nonzero" fill-opacity="1"></path><path clip-path="url(#clip700)" d="M1576.35 1564.43 Q1574 1566.89 1571.76 1567.97 Q1569.51 1569.03 1566.92 1569.03 Q1561.66 1569.03 1557.74 1564.64 Q1553.81 1560.23 1553.81 1553.33 Q1553.81 1546.42 1558.16 1540.71 Q1562.5 1534.96 1569.34 1534.96 Q1573.58 1534.96 1576.35 1537.66 L1576.35 1531.74 Q1576.35 1526.24 1576.07 1524.97 Q1575.82 1523.71 1575.26 1523.26 Q1574.7 1522.8 1573.86 1522.8 Q1572.95 1522.8 1571.44 1523.36 L1570.98 1522.14 L1580.55 1518.21 L1582.13 1518.21 L1582.13 1555.32 Q1582.13 1560.96 1582.37 1562.23 Q1582.65 1563.45 1583.21 1563.94 Q1583.81 1564.43 1584.58 1564.43 Q1585.53 1564.43 1587.1 1563.84 L1587.49 1565.07 L1577.96 1569.03 L1576.35 1569.03 L1576.35 1564.43 M1576.35 1561.98 L1576.35 1545.44 Q1576.14 1543.06 1575.08 1541.09 Q1574.03 1539.13 1572.28 1538.15 Q1570.56 1537.13 1568.92 1537.13 Q1565.83 1537.13 1563.41 1539.9 Q1560.23 1543.55 1560.23 1550.56 Q1560.23 1557.64 1563.31 1561.42 Q1566.39 1565.17 1570.18 1565.17 Q1573.37 1565.17 1576.35 1561.98 Z" fill="#000000" fill-rule="nonzero" fill-opacity="1"></path><polyline clip-path="url(#clip702)" style="stroke:#000000; stroke-linecap:round; stroke-linejoin:round; stroke-width:2; stroke-opacity:0.1; fill:none" points="298.873,1264.4 2352.76,1264.4 "></polyline>
<polyline clip-path="url(#clip702)" style="stroke:#000000; stroke-linecap:round; stroke-linejoin:round; stroke-width:2; stroke-opacity:0.1; fill:none" points="298.873,949.936 2352.76,949.936 "></polyline>
<polyline clip-path="url(#clip702)" style="stroke:#000000; stroke-linecap:round; stroke-linejoin:round; stroke-width:2; stroke-opacity:0.1; fill:none" points="298.873,635.473 2352.76,635.473 "></polyline>
<polyline clip-path="url(#clip702)" style="stroke:#000000; stroke-linecap:round; stroke-linejoin:round; stroke-width:2; stroke-opacity:0.1; fill:none" points="298.873,321.01 2352.76,321.01 "></polyline>
<polyline clip-path="url(#clip700)" style="stroke:#000000; stroke-linecap:round; stroke-linejoin:round; stroke-width:4; stroke-opacity:1; fill:none" points="298.873,1423.18 298.873,123.472 "></polyline>
<polyline clip-path="url(#clip700)" style="stroke:#000000; stroke-linecap:round; stroke-linejoin:round; stroke-width:4; stroke-opacity:1; fill:none" points="298.873,1264.4 317.771,1264.4 "></polyline>
<polyline clip-path="url(#clip700)" style="stroke:#000000; stroke-linecap:round; stroke-linejoin:round; stroke-width:4; stroke-opacity:1; fill:none" points="298.873,949.936 317.771,949.936 "></polyline>
<polyline clip-path="url(#clip700)" style="stroke:#000000; stroke-linecap:round; stroke-linejoin:round; stroke-width:4; stroke-opacity:1; fill:none" points="298.873,635.473 317.771,635.473 "></polyline>
<polyline clip-path="url(#clip700)" style="stroke:#000000; stroke-linecap:round; stroke-linejoin:round; stroke-width:4; stroke-opacity:1; fill:none" points="298.873,321.01 317.771,321.01 "></polyline>
<path clip-path="url(#clip700)" d="M157.639 1246.41 L157.639 1247.35 Q154.274 1247.68 152.133 1248.7 Q150.018 1249.69 147.928 1251.76 Q145.864 1253.82 144.487 1256.37 Q143.137 1258.89 142.219 1262.39 Q145.889 1259.86 149.585 1259.86 Q153.127 1259.86 155.727 1262.72 Q158.327 1265.57 158.327 1270.06 Q158.327 1274.39 155.702 1277.96 Q152.541 1282.29 147.342 1282.29 Q143.799 1282.29 141.327 1279.95 Q136.485 1275.38 136.485 1268.12 Q136.485 1263.48 138.345 1259.3 Q140.206 1255.12 143.646 1251.89 Q147.113 1248.65 150.273 1247.53 Q153.433 1246.41 156.16 1246.41 L157.639 1246.41 M141.786 1264.25 Q141.327 1267.69 141.327 1269.8 Q141.327 1272.25 142.219 1275.13 Q143.137 1277.98 144.921 1279.67 Q146.221 1280.86 148.081 1280.86 Q150.298 1280.86 152.031 1278.77 Q153.79 1276.68 153.79 1272.81 Q153.79 1268.45 152.057 1265.27 Q150.324 1262.08 147.138 1262.08 Q146.17 1262.08 145.048 1262.49 Q143.952 1262.9 141.786 1264.25 Z" fill="#000000" fill-rule="nonzero" fill-opacity="1"></path><path clip-path="url(#clip700)" d="M162.226 1264.6 Q162.226 1258.69 164.01 1254.43 Q165.794 1250.15 168.751 1248.06 Q171.045 1246.41 173.491 1246.41 Q177.467 1246.41 180.628 1250.46 Q184.578 1255.48 184.578 1264.07 Q184.578 1270.08 182.845 1274.29 Q181.112 1278.49 178.41 1280.41 Q175.734 1282.29 173.236 1282.29 Q168.292 1282.29 165.004 1276.45 Q162.226 1271.54 162.226 1264.6 M167.222 1265.24 Q167.222 1272.38 168.98 1276.89 Q170.433 1280.69 173.313 1280.69 Q174.689 1280.69 176.167 1279.46 Q177.646 1278.21 178.41 1275.31 Q179.583 1270.92 179.583 1262.95 Q179.583 1257.03 178.359 1253.08 Q177.442 1250.15 175.989 1248.93 Q174.944 1248.09 173.466 1248.09 Q171.733 1248.09 170.382 1249.64 Q168.547 1251.76 167.884 1256.29 Q167.222 1260.83 167.222 1265.24 Z" fill="#000000" fill-rule="nonzero" fill-opacity="1"></path><path clip-path="url(#clip700)" d="M188.325 1264.6 Q188.325 1258.69 190.109 1254.43 Q191.893 1250.15 194.849 1248.06 Q197.143 1246.41 199.59 1246.41 Q203.566 1246.41 206.726 1250.46 Q210.676 1255.48 210.676 1264.07 Q210.676 1270.08 208.943 1274.29 Q207.21 1278.49 204.509 1280.41 Q201.833 1282.29 199.335 1282.29 Q194.39 1282.29 191.103 1276.45 Q188.325 1271.54 188.325 1264.6 M193.32 1265.24 Q193.32 1272.38 195.079 1276.89 Q196.531 1280.69 199.411 1280.69 Q200.788 1280.69 202.266 1279.46 Q203.744 1278.21 204.509 1275.31 Q205.681 1270.92 205.681 1262.95 Q205.681 1257.03 204.458 1253.08 Q203.54 1250.15 202.087 1248.93 Q201.042 1248.09 199.564 1248.09 Q197.831 1248.09 196.48 1249.64 Q194.645 1251.76 193.983 1256.29 Q193.32 1260.83 193.32 1265.24 Z" fill="#000000" fill-rule="nonzero" fill-opacity="1"></path><path clip-path="url(#clip700)" d="M214.423 1264.6 Q214.423 1258.69 216.207 1254.43 Q217.991 1250.15 220.948 1248.06 Q223.241 1246.41 225.688 1246.41 Q229.664 1246.41 232.824 1250.46 Q236.775 1255.48 236.775 1264.07 Q236.775 1270.08 235.042 1274.29 Q233.309 1278.49 230.607 1280.41 Q227.931 1282.29 225.433 1282.29 Q220.489 1282.29 217.201 1276.45 Q214.423 1271.54 214.423 1264.6 M219.418 1265.24 Q219.418 1272.38 221.177 1276.89 Q222.63 1280.69 225.51 1280.69 Q226.886 1280.69 228.364 1279.46 Q229.842 1278.21 230.607 1275.31 Q231.779 1270.92 231.779 1262.95 Q231.779 1257.03 230.556 1253.08 Q229.639 1250.15 228.186 1248.93 Q227.141 1248.09 225.663 1248.09 Q223.93 1248.09 222.579 1249.64 Q220.744 1251.76 220.081 1256.29 Q219.418 1260.83 219.418 1265.24 Z" fill="#000000" fill-rule="nonzero" fill-opacity="1"></path><path clip-path="url(#clip700)" d="M240.521 1264.6 Q240.521 1258.69 242.305 1254.43 Q244.09 1250.15 247.046 1248.06 Q249.34 1246.41 251.787 1246.41 Q255.762 1246.41 258.923 1250.46 Q262.873 1255.48 262.873 1264.07 Q262.873 1270.08 261.14 1274.29 Q259.407 1278.49 256.705 1280.41 Q254.029 1282.29 251.532 1282.29 Q246.587 1282.29 243.299 1276.45 Q240.521 1271.54 240.521 1264.6 M245.517 1265.24 Q245.517 1272.38 247.275 1276.89 Q248.728 1280.69 251.608 1280.69 Q252.984 1280.69 254.463 1279.46 Q255.941 1278.21 256.705 1275.31 Q257.878 1270.92 257.878 1262.95 Q257.878 1257.03 256.654 1253.08 Q255.737 1250.15 254.284 1248.93 Q253.239 1248.09 251.761 1248.09 Q250.028 1248.09 248.677 1249.64 Q246.842 1251.76 246.179 1256.29 Q245.517 1260.83 245.517 1265.24 Z" fill="#000000" fill-rule="nonzero" fill-opacity="1"></path><path clip-path="url(#clip700)" d="M144.258 949.809 Q140.155 946.445 138.957 944.406 Q137.784 942.367 137.784 940.175 Q137.784 936.811 140.384 934.39 Q142.984 931.943 147.291 931.943 Q151.471 931.943 154.019 934.211 Q156.568 936.479 156.568 939.385 Q156.568 941.322 155.192 943.335 Q153.816 945.349 149.457 948.076 Q153.943 951.542 155.396 953.53 Q157.333 956.13 157.333 959.01 Q157.333 962.654 154.555 965.254 Q151.777 967.828 147.265 967.828 Q142.347 967.828 139.594 964.744 Q137.402 962.272 137.402 959.341 Q137.402 957.047 138.931 954.804 Q140.486 952.536 144.258 949.809 M148.259 947.082 Q151.318 944.329 152.133 942.749 Q152.949 941.143 152.949 939.13 Q152.949 936.454 151.445 934.95 Q149.942 933.421 147.342 933.421 Q144.742 933.421 143.111 934.925 Q141.48 936.428 141.48 938.442 Q141.48 939.767 142.143 941.093 Q142.831 942.418 144.08 943.616 L148.259 947.082 M145.456 950.777 Q143.341 952.562 142.321 954.677 Q141.302 956.767 141.302 959.214 Q141.302 962.501 143.086 964.489 Q144.895 966.452 147.673 966.452 Q150.426 966.452 152.082 964.897 Q153.739 963.342 153.739 961.125 Q153.739 959.29 152.771 957.837 Q150.961 955.136 145.456 950.777 Z" fill="#000000" fill-rule="nonzero" fill-opacity="1"></path><path clip-path="url(#clip700)" d="M162.226 950.14 Q162.226 944.227 164.01 939.971 Q165.794 935.689 168.751 933.599 Q171.045 931.943 173.491 931.943 Q177.467 931.943 180.628 935.995 Q184.578 941.016 184.578 949.605 Q184.578 955.62 182.845 959.825 Q181.112 964.031 178.41 965.942 Q175.734 967.828 173.236 967.828 Q168.292 967.828 165.004 961.992 Q162.226 957.073 162.226 950.14 M167.222 950.777 Q167.222 957.914 168.98 962.425 Q170.433 966.222 173.313 966.222 Q174.689 966.222 176.167 964.999 Q177.646 963.75 178.41 960.845 Q179.583 956.461 179.583 948.484 Q179.583 942.571 178.359 938.62 Q177.442 935.689 175.989 934.466 Q174.944 933.625 173.466 933.625 Q171.733 933.625 170.382 935.18 Q168.547 937.295 167.884 941.832 Q167.222 946.368 167.222 950.777 Z" fill="#000000" fill-rule="nonzero" fill-opacity="1"></path><path clip-path="url(#clip700)" d="M188.325 950.14 Q188.325 944.227 190.109 939.971 Q191.893 935.689 194.849 933.599 Q197.143 931.943 199.59 931.943 Q203.566 931.943 206.726 935.995 Q210.676 941.016 210.676 949.605 Q210.676 955.62 208.943 959.825 Q207.21 964.031 204.509 965.942 Q201.833 967.828 199.335 967.828 Q194.39 967.828 191.103 961.992 Q188.325 957.073 188.325 950.14 M193.32 950.777 Q193.32 957.914 195.079 962.425 Q196.531 966.222 199.411 966.222 Q200.788 966.222 202.266 964.999 Q203.744 963.75 204.509 960.845 Q205.681 956.461 205.681 948.484 Q205.681 942.571 204.458 938.62 Q203.54 935.689 202.087 934.466 Q201.042 933.625 199.564 933.625 Q197.831 933.625 196.48 935.18 Q194.645 937.295 193.983 941.832 Q193.32 946.368 193.32 950.777 Z" fill="#000000" fill-rule="nonzero" fill-opacity="1"></path><path clip-path="url(#clip700)" d="M214.423 950.14 Q214.423 944.227 216.207 939.971 Q217.991 935.689 220.948 933.599 Q223.241 931.943 225.688 931.943 Q229.664 931.943 232.824 935.995 Q236.775 941.016 236.775 949.605 Q236.775 955.62 235.042 959.825 Q233.309 964.031 230.607 965.942 Q227.931 967.828 225.433 967.828 Q220.489 967.828 217.201 961.992 Q214.423 957.073 214.423 950.14 M219.418 950.777 Q219.418 957.914 221.177 962.425 Q222.63 966.222 225.51 966.222 Q226.886 966.222 228.364 964.999 Q229.842 963.75 230.607 960.845 Q231.779 956.461 231.779 948.484 Q231.779 942.571 230.556 938.62 Q229.639 935.689 228.186 934.466 Q227.141 933.625 225.663 933.625 Q223.93 933.625 222.579 935.18 Q220.744 937.295 220.081 941.832 Q219.418 946.368 219.418 950.777 Z" fill="#000000" fill-rule="nonzero" fill-opacity="1"></path><path clip-path="url(#clip700)" d="M240.521 950.14 Q240.521 944.227 242.305 939.971 Q244.09 935.689 247.046 933.599 Q249.34 931.943 251.787 931.943 Q255.762 931.943 258.923 935.995 Q262.873 941.016 262.873 949.605 Q262.873 955.62 261.14 959.825 Q259.407 964.031 256.705 965.942 Q254.029 967.828 251.532 967.828 Q246.587 967.828 243.299 961.992 Q240.521 957.073 240.521 950.14 M245.517 950.777 Q245.517 957.914 247.275 962.425 Q248.728 966.222 251.608 966.222 Q252.984 966.222 254.463 964.999 Q255.941 963.75 256.705 960.845 Q257.878 956.461 257.878 948.484 Q257.878 942.571 256.654 938.62 Q255.737 935.689 254.284 934.466 Q253.239 933.625 251.761 933.625 Q250.028 933.625 248.677 935.18 Q246.842 937.295 246.179 941.832 Q245.517 946.368 245.517 950.777 Z" fill="#000000" fill-rule="nonzero" fill-opacity="1"></path><path clip-path="url(#clip700)" d="M114.26 621.583 L122.671 617.48 L123.512 617.48 L123.512 646.662 Q123.512 649.567 123.741 650.281 Q123.996 650.995 124.761 651.377 Q125.525 651.759 127.87 651.81 L127.87 652.753 L114.872 652.753 L114.872 651.81 Q117.319 651.759 118.032 651.402 Q118.746 651.02 119.026 650.408 Q119.307 649.771 119.307 646.662 L119.307 628.006 Q119.307 624.234 119.052 623.163 Q118.873 622.347 118.389 621.965 Q117.93 621.583 117.268 621.583 Q116.325 621.583 114.642 622.373 L114.26 621.583 Z" fill="#000000" fill-rule="nonzero" fill-opacity="1"></path><path clip-path="url(#clip700)" d="M136.128 635.677 Q136.128 629.764 137.912 625.508 Q139.696 621.226 142.652 619.136 Q144.946 617.48 147.393 617.48 Q151.369 617.48 154.529 621.532 Q158.48 626.553 158.48 635.142 Q158.48 641.157 156.747 645.362 Q155.013 649.567 152.312 651.479 Q149.636 653.365 147.138 653.365 Q142.194 653.365 138.906 647.528 Q136.128 642.609 136.128 635.677 M141.123 636.314 Q141.123 643.451 142.882 647.962 Q144.334 651.759 147.214 651.759 Q148.591 651.759 150.069 650.536 Q151.547 649.287 152.312 646.381 Q153.484 641.998 153.484 634.02 Q153.484 628.107 152.261 624.157 Q151.343 621.226 149.891 620.003 Q148.846 619.162 147.367 619.162 Q145.634 619.162 144.284 620.716 Q142.448 622.832 141.786 627.368 Q141.123 631.905 141.123 636.314 Z" fill="#000000" fill-rule="nonzero" fill-opacity="1"></path><path clip-path="url(#clip700)" d="M162.226 635.677 Q162.226 629.764 164.01 625.508 Q165.794 621.226 168.751 619.136 Q171.045 617.48 173.491 617.48 Q177.467 617.48 180.628 621.532 Q184.578 626.553 184.578 635.142 Q184.578 641.157 182.845 645.362 Q181.112 649.567 178.41 651.479 Q175.734 653.365 173.236 653.365 Q168.292 653.365 165.004 647.528 Q162.226 642.609 162.226 635.677 M167.222 636.314 Q167.222 643.451 168.98 647.962 Q170.433 651.759 173.313 651.759 Q174.689 651.759 176.167 650.536 Q177.646 649.287 178.41 646.381 Q179.583 641.998 179.583 634.02 Q179.583 628.107 178.359 624.157 Q177.442 621.226 175.989 620.003 Q174.944 619.162 173.466 619.162 Q171.733 619.162 170.382 620.716 Q168.547 622.832 167.884 627.368 Q167.222 631.905 167.222 636.314 Z" fill="#000000" fill-rule="nonzero" fill-opacity="1"></path><path clip-path="url(#clip700)" d="M188.325 635.677 Q188.325 629.764 190.109 625.508 Q191.893 621.226 194.849 619.136 Q197.143 617.48 199.59 617.48 Q203.566 617.48 206.726 621.532 Q210.676 626.553 210.676 635.142 Q210.676 641.157 208.943 645.362 Q207.21 649.567 204.509 651.479 Q201.833 653.365 199.335 653.365 Q194.39 653.365 191.103 647.528 Q188.325 642.609 188.325 635.677 M193.32 636.314 Q193.32 643.451 195.079 647.962 Q196.531 651.759 199.411 651.759 Q200.788 651.759 202.266 650.536 Q203.744 649.287 204.509 646.381 Q205.681 641.998 205.681 634.02 Q205.681 628.107 204.458 624.157 Q203.54 621.226 202.087 620.003 Q201.042 619.162 199.564 619.162 Q197.831 619.162 196.48 620.716 Q194.645 622.832 193.983 627.368 Q193.32 631.905 193.32 636.314 Z" fill="#000000" fill-rule="nonzero" fill-opacity="1"></path><path clip-path="url(#clip700)" d="M214.423 635.677 Q214.423 629.764 216.207 625.508 Q217.991 621.226 220.948 619.136 Q223.241 617.48 225.688 617.48 Q229.664 617.48 232.824 621.532 Q236.775 626.553 236.775 635.142 Q236.775 641.157 235.042 645.362 Q233.309 649.567 230.607 651.479 Q227.931 653.365 225.433 653.365 Q220.489 653.365 217.201 647.528 Q214.423 642.609 214.423 635.677 M219.418 636.314 Q219.418 643.451 221.177 647.962 Q222.63 651.759 225.51 651.759 Q226.886 651.759 228.364 650.536 Q229.842 649.287 230.607 646.381 Q231.779 641.998 231.779 634.02 Q231.779 628.107 230.556 624.157 Q229.639 621.226 228.186 620.003 Q227.141 619.162 225.663 619.162 Q223.93 619.162 222.579 620.716 Q220.744 622.832 220.081 627.368 Q219.418 631.905 219.418 636.314 Z" fill="#000000" fill-rule="nonzero" fill-opacity="1"></path><path clip-path="url(#clip700)" d="M240.521 635.677 Q240.521 629.764 242.305 625.508 Q244.09 621.226 247.046 619.136 Q249.34 617.48 251.787 617.48 Q255.762 617.48 258.923 621.532 Q262.873 626.553 262.873 635.142 Q262.873 641.157 261.14 645.362 Q259.407 649.567 256.705 651.479 Q254.029 653.365 251.532 653.365 Q246.587 653.365 243.299 647.528 Q240.521 642.609 240.521 635.677 M245.517 636.314 Q245.517 643.451 247.275 647.962 Q248.728 651.759 251.608 651.759 Q252.984 651.759 254.463 650.536 Q255.941 649.287 256.705 646.381 Q257.878 641.998 257.878 634.02 Q257.878 628.107 256.654 624.157 Q255.737 621.226 254.284 620.003 Q253.239 619.162 251.761 619.162 Q250.028 619.162 248.677 620.716 Q246.842 622.832 246.179 627.368 Q245.517 631.905 245.517 636.314 Z" fill="#000000" fill-rule="nonzero" fill-opacity="1"></path><path clip-path="url(#clip700)" d="M114.26 307.12 L122.671 303.016 L123.512 303.016 L123.512 332.199 Q123.512 335.104 123.741 335.818 Q123.996 336.531 124.761 336.914 Q125.525 337.296 127.87 337.347 L127.87 338.29 L114.872 338.29 L114.872 337.347 Q117.319 337.296 118.032 336.939 Q118.746 336.557 119.026 335.945 Q119.307 335.308 119.307 332.199 L119.307 313.542 Q119.307 309.77 119.052 308.7 Q118.873 307.884 118.389 307.502 Q117.93 307.12 117.268 307.12 Q116.325 307.12 114.642 307.91 L114.26 307.12 Z" fill="#000000" fill-rule="nonzero" fill-opacity="1"></path><path clip-path="url(#clip700)" d="M158.174 331.638 L155.753 338.29 L135.363 338.29 L135.363 337.347 Q144.36 329.14 148.03 323.941 Q151.7 318.742 151.7 314.434 Q151.7 311.147 149.687 309.031 Q147.673 306.916 144.87 306.916 Q142.321 306.916 140.282 308.419 Q138.269 309.898 137.3 312.778 L136.357 312.778 Q136.994 308.063 139.619 305.539 Q142.27 303.016 146.221 303.016 Q150.426 303.016 153.229 305.718 Q156.058 308.419 156.058 312.09 Q156.058 314.715 154.835 317.34 Q152.949 321.469 148.718 326.082 Q142.372 333.014 140.792 334.441 L149.814 334.441 Q152.567 334.441 153.663 334.238 Q154.784 334.034 155.676 333.422 Q156.568 332.785 157.231 331.638 L158.174 331.638 Z" fill="#000000" fill-rule="nonzero" fill-opacity="1"></path><path clip-path="url(#clip700)" d="M162.226 321.214 Q162.226 315.301 164.01 311.045 Q165.794 306.763 168.751 304.673 Q171.045 303.016 173.491 303.016 Q177.467 303.016 180.628 307.069 Q184.578 312.09 184.578 320.679 Q184.578 326.693 182.845 330.899 Q181.112 335.104 178.41 337.016 Q175.734 338.902 173.236 338.902 Q168.292 338.902 165.004 333.065 Q162.226 328.146 162.226 321.214 M167.222 321.851 Q167.222 328.987 168.98 333.498 Q170.433 337.296 173.313 337.296 Q174.689 337.296 176.167 336.073 Q177.646 334.824 178.41 331.918 Q179.583 327.535 179.583 319.557 Q179.583 313.644 178.359 309.694 Q177.442 306.763 175.989 305.539 Q174.944 304.698 173.466 304.698 Q171.733 304.698 170.382 306.253 Q168.547 308.369 167.884 312.905 Q167.222 317.442 167.222 321.851 Z" fill="#000000" fill-rule="nonzero" fill-opacity="1"></path><path clip-path="url(#clip700)" d="M188.325 321.214 Q188.325 315.301 190.109 311.045 Q191.893 306.763 194.849 304.673 Q197.143 303.016 199.59 303.016 Q203.566 303.016 206.726 307.069 Q210.676 312.09 210.676 320.679 Q210.676 326.693 208.943 330.899 Q207.21 335.104 204.509 337.016 Q201.833 338.902 199.335 338.902 Q194.39 338.902 191.103 333.065 Q188.325 328.146 188.325 321.214 M193.32 321.851 Q193.32 328.987 195.079 333.498 Q196.531 337.296 199.411 337.296 Q200.788 337.296 202.266 336.073 Q203.744 334.824 204.509 331.918 Q205.681 327.535 205.681 319.557 Q205.681 313.644 204.458 309.694 Q203.54 306.763 202.087 305.539 Q201.042 304.698 199.564 304.698 Q197.831 304.698 196.48 306.253 Q194.645 308.369 193.983 312.905 Q193.32 317.442 193.32 321.851 Z" fill="#000000" fill-rule="nonzero" fill-opacity="1"></path><path clip-path="url(#clip700)" d="M214.423 321.214 Q214.423 315.301 216.207 311.045 Q217.991 306.763 220.948 304.673 Q223.241 303.016 225.688 303.016 Q229.664 303.016 232.824 307.069 Q236.775 312.09 236.775 320.679 Q236.775 326.693 235.042 330.899 Q233.309 335.104 230.607 337.016 Q227.931 338.902 225.433 338.902 Q220.489 338.902 217.201 333.065 Q214.423 328.146 214.423 321.214 M219.418 321.851 Q219.418 328.987 221.177 333.498 Q222.63 337.296 225.51 337.296 Q226.886 337.296 228.364 336.073 Q229.842 334.824 230.607 331.918 Q231.779 327.535 231.779 319.557 Q231.779 313.644 230.556 309.694 Q229.639 306.763 228.186 305.539 Q227.141 304.698 225.663 304.698 Q223.93 304.698 222.579 306.253 Q220.744 308.369 220.081 312.905 Q219.418 317.442 219.418 321.851 Z" fill="#000000" fill-rule="nonzero" fill-opacity="1"></path><path clip-path="url(#clip700)" d="M240.521 321.214 Q240.521 315.301 242.305 311.045 Q244.09 306.763 247.046 304.673 Q249.34 303.016 251.787 303.016 Q255.762 303.016 258.923 307.069 Q262.873 312.09 262.873 320.679 Q262.873 326.693 261.14 330.899 Q259.407 335.104 256.705 337.016 Q254.029 338.902 251.532 338.902 Q246.587 338.902 243.299 333.065 Q240.521 328.146 240.521 321.214 M245.517 321.851 Q245.517 328.987 247.275 333.498 Q248.728 337.296 251.608 337.296 Q252.984 337.296 254.463 336.073 Q255.941 334.824 256.705 331.918 Q257.878 327.535 257.878 319.557 Q257.878 313.644 256.654 309.694 Q255.737 306.763 254.284 305.539 Q253.239 304.698 251.761 304.698 Q250.028 304.698 248.677 306.253 Q246.842 308.369 246.179 312.905 Q245.517 317.442 245.517 321.851 Z" fill="#000000" fill-rule="nonzero" fill-opacity="1"></path><path clip-path="url(#clip700)" d="M16.4842 1095.45 L16.4842 1082.56 L52.1242 1053.5 L24.7196 1053.5 Q20.339 1053.5 19.2527 1054.49 Q17.7808 1055.78 17.7808 1058.59 L17.7808 1060.23 L16.4842 1060.23 L16.4842 1043.69 L17.7808 1043.69 L17.7808 1045.37 Q17.7808 1048.39 19.6031 1049.65 Q20.7245 1050.42 24.7196 1050.42 L64.7751 1050.42 L64.7751 1051.68 L26.5068 1083.01 L55.7688 1083.01 Q60.1493 1083.01 61.2357 1082.07 Q62.7075 1080.73 62.7075 1077.97 L62.7075 1076.28 L64.0042 1076.28 L64.0042 1092.82 L62.7075 1092.82 L62.7075 1091.18 Q62.7075 1088.13 60.8852 1086.87 Q59.7638 1086.1 55.7688 1086.1 L22.722 1086.1 Q20.304 1088.16 19.533 1089.25 Q18.762 1090.3 18.0962 1092.37 Q17.7808 1093.39 17.7808 1095.45 L16.4842 1095.45 Z" fill="#000000" fill-rule="nonzero" fill-opacity="1"></path><path clip-path="url(#clip700)" d="M43.9939 1035.04 Q51.1429 1035.07 55.2081 1031.57 Q59.2732 1028.06 59.2732 1023.33 Q59.2732 1020.18 57.556 1017.86 Q55.8038 1015.52 51.5985 1013.94 L52.2994 1012.85 Q57.1004 1013.59 61.0604 1017.13 Q64.9854 1020.67 64.9854 1026 Q64.9854 1031.78 60.4997 1035.91 Q55.979 1040.01 48.3744 1040.01 Q40.139 1040.01 35.5482 1035.81 Q30.9224 1031.57 30.9224 1025.19 Q30.9224 1019.79 34.4969 1016.32 Q38.0364 1012.85 43.9939 1012.85 L43.9939 1035.04 M41.9613 1035.04 L41.9613 1020.18 Q38.8774 1020.35 37.6158 1020.91 Q35.6534 1021.79 34.5319 1023.54 Q33.4105 1025.26 33.4105 1027.15 Q33.4105 1030.06 35.6884 1032.37 Q37.9312 1034.65 41.9613 1035.04 Z" fill="#000000" fill-rule="nonzero" fill-opacity="1"></path><path clip-path="url(#clip700)" d="M31.9036 1010.37 L31.9036 996.908 L33.2003 996.908 Q33.3404 998.766 33.8661 999.361 Q34.3918 999.922 35.373 999.922 Q36.4594 999.922 38.0013 999.326 L56.4696 992.458 L41.4357 985.554 L36.7047 987.376 Q34.602 988.217 33.796 989.584 Q33.3054 990.355 33.2003 992.458 L31.9036 992.458 L31.9036 977.178 L33.2003 977.178 Q33.3054 979.702 34.1114 980.753 Q34.6721 981.454 35.8987 981.454 Q36.5996 981.454 37.3355 981.173 L55.7688 973.884 L38.0013 967.121 Q36.1089 966.42 34.9875 966.42 Q34.3217 966.42 33.796 967.121 Q33.2704 967.787 33.2003 969.784 L31.9036 969.784 L31.9036 959.656 L33.2003 959.656 Q33.6558 962.705 37.3355 964.142 L64.9854 974.865 L64.9854 976.302 L44.4845 984.327 L64.9854 993.684 L64.9854 994.981 L38.0013 1005.28 Q35.4431 1006.3 34.567 1007.28 Q33.6558 1008.26 33.2003 1010.37 L31.9036 1010.37 Z" fill="#000000" fill-rule="nonzero" fill-opacity="1"></path><path clip-path="url(#clip700)" d="M62.7075 918.9 L64.0042 918.9 L64.0042 939.26 L62.7075 939.26 L62.7075 937.578 Q62.7075 934.635 60.9904 933.303 Q59.8689 932.462 55.5935 932.462 L24.8948 932.462 Q21.2852 932.462 20.1288 932.917 Q19.2527 933.268 18.6219 934.354 Q17.7808 935.896 17.7808 937.578 L17.7808 939.26 L16.4842 939.26 L16.4842 918.9 L17.7808 918.9 L17.7808 920.617 Q17.7808 923.526 19.498 924.857 Q20.6194 925.733 24.8948 925.733 L55.5935 925.733 Q59.2031 925.733 60.3596 925.278 Q61.2357 924.927 61.8665 923.806 Q62.7075 922.299 62.7075 920.617 L62.7075 918.9 Z" fill="#000000" fill-rule="nonzero" fill-opacity="1"></path><path clip-path="url(#clip700)" d="M37.756 905.548 Q30.9574 899.906 30.9574 894.789 Q30.9574 892.161 32.2891 890.269 Q33.5858 888.376 36.5996 887.255 Q38.7022 886.484 43.0477 886.484 L56.75 886.484 Q59.7988 886.484 60.8852 885.993 Q61.7613 885.608 62.2519 884.767 Q62.7426 883.891 62.7426 881.578 L64.0042 881.578 L64.0042 897.453 L62.7426 897.453 L62.7426 896.787 Q62.7426 894.544 62.0767 893.668 Q61.3758 892.757 60.0442 892.406 Q59.5185 892.266 56.75 892.266 L43.6084 892.266 Q39.2279 892.266 37.2654 893.423 Q35.2679 894.544 35.2679 897.242 Q35.2679 901.413 39.8236 905.548 L56.75 905.548 Q60.0091 905.548 60.7801 905.162 Q61.7964 904.672 62.287 903.831 Q62.7426 902.955 62.7426 900.326 L64.0042 900.326 L64.0042 916.201 L62.7426 916.201 L62.7426 915.5 Q62.7426 913.047 61.516 912.206 Q60.2544 911.33 56.75 911.33 L44.835 911.33 Q39.0527 911.33 37.7911 911.611 Q36.5295 911.856 36.0739 912.417 Q35.6183 912.942 35.6183 913.853 Q35.6183 914.835 36.144 916.201 L34.8824 916.727 L30.9574 907.055 L30.9574 905.548 L37.756 905.548 Z" fill="#000000" fill-rule="nonzero" fill-opacity="1"></path><path clip-path="url(#clip700)" d="M21.3553 869.698 L31.9036 869.698 L31.9036 862.198 L34.3567 862.198 L34.3567 869.698 L55.173 869.698 Q58.2919 869.698 59.3783 868.822 Q60.4647 867.91 60.4647 866.509 Q60.4647 865.352 59.7638 864.266 Q59.0279 863.179 57.6261 862.584 L57.6261 861.217 Q61.0604 862.444 62.8127 864.686 Q64.5298 866.929 64.5298 869.312 Q64.5298 870.924 63.6537 872.466 Q62.7426 874.008 61.0955 874.744 Q59.4134 875.48 55.944 875.48 L34.3567 875.48 L34.3567 880.561 L33.2003 880.561 Q32.4293 878.634 30.607 876.636 Q28.7496 874.604 26.2265 873.027 Q24.8948 872.221 21.3553 870.784 L21.3553 869.698 Z" fill="#000000" fill-rule="nonzero" fill-opacity="1"></path><path clip-path="url(#clip700)" d="M43.9939 853.682 Q51.1429 853.717 55.2081 850.213 Q59.2732 846.709 59.2732 841.978 Q59.2732 838.824 57.556 836.511 Q55.8038 834.163 51.5985 832.586 L52.2994 831.499 Q57.1004 832.235 61.0604 835.775 Q64.9854 839.314 64.9854 844.641 Q64.9854 850.423 60.4997 854.559 Q55.979 858.659 48.3744 858.659 Q40.139 858.659 35.5482 854.453 Q30.9224 850.213 30.9224 843.835 Q30.9224 838.438 34.4969 834.969 Q38.0364 831.499 43.9939 831.499 L43.9939 853.682 M41.9613 853.682 L41.9613 838.824 Q38.8774 838.999 37.6158 839.56 Q35.6534 840.436 34.5319 842.188 Q33.4105 843.905 33.4105 845.797 Q33.4105 848.706 35.6884 851.019 Q37.9312 853.297 41.9613 853.682 Z" fill="#000000" fill-rule="nonzero" fill-opacity="1"></path><path clip-path="url(#clip700)" d="M52.2994 818.638 Q50.8626 821.582 48.3043 823.159 Q45.7111 824.736 42.5921 824.736 Q37.8261 824.736 34.3918 821.161 Q30.9574 817.552 30.9574 811.945 Q30.9574 807.354 33.2003 803.99 L33.2003 797.191 Q33.2003 795.684 33.3054 795.439 Q33.3755 795.194 33.5858 795.088 Q33.9011 794.878 34.7072 794.878 Q35.6183 794.878 35.9688 795.053 Q36.144 795.159 36.2491 795.439 Q36.3542 795.684 36.3542 797.191 L36.3542 801.361 Q38.8774 799.399 42.8024 799.399 Q47.2881 799.399 50.4771 802.833 Q53.6661 806.268 53.6661 812.05 Q53.6661 814.433 52.9652 816.921 Q54.2969 818.463 55.3132 819.024 Q56.2944 819.549 56.9953 819.549 Q57.5911 819.549 58.1518 818.989 Q58.7125 818.393 58.9578 816.711 Q59.098 815.73 59.2031 811.805 Q59.3783 804.585 59.6937 802.448 Q60.1493 799.189 62.1118 797.261 Q64.0742 795.299 66.9479 795.299 Q70.9079 795.299 74.3773 799.013 Q79.4937 804.48 79.4937 813.276 Q79.4937 820.04 76.4449 824.701 Q74.6927 827.329 72.8003 827.329 Q71.9592 827.329 71.1181 826.944 Q69.8215 826.348 67.5086 824.491 Q67.1932 824.245 63.7238 820.916 Q62.6374 822.738 61.7964 823.509 Q60.9203 824.245 59.8339 824.245 Q58.6073 824.245 56.9603 823.264 Q55.3132 822.248 52.2994 818.638 M32.6396 812.54 Q32.6396 815.134 34.7072 816.886 Q36.7748 818.638 41.0502 818.638 Q46.5872 818.638 49.636 816.255 Q51.9489 814.433 51.9489 811.629 Q51.9489 808.966 49.9514 807.249 Q47.9539 805.532 43.6785 805.532 Q38.1065 805.532 34.9525 807.95 Q32.6396 809.737 32.6396 812.54 M64.0042 818.989 Q65.7914 820.636 67.3334 821.477 Q68.8753 822.318 70.1719 822.318 Q71.8541 822.318 73.1157 820.285 Q75.2884 816.781 75.2884 810.157 Q75.2884 803.85 73.0456 800.871 Q70.8378 797.857 68.3146 797.857 Q66.4923 797.857 65.7213 799.644 Q64.9504 801.467 64.8102 806.863 Q64.5999 814.748 64.0042 818.989 Z" fill="#000000" fill-rule="nonzero" fill-opacity="1"></path><path clip-path="url(#clip700)" d="M43.9939 785.942 Q51.1429 785.977 55.2081 782.473 Q59.2732 778.968 59.2732 774.237 Q59.2732 771.083 57.556 768.77 Q55.8038 766.422 51.5985 764.845 L52.2994 763.759 Q57.1004 764.495 61.0604 768.034 Q64.9854 771.574 64.9854 776.9 Q64.9854 782.683 60.4997 786.818 Q55.979 790.918 48.3744 790.918 Q40.139 790.918 35.5482 786.713 Q30.9224 782.473 30.9224 776.094 Q30.9224 770.698 34.4969 767.228 Q38.0364 763.759 43.9939 763.759 L43.9939 785.942 M41.9613 785.942 L41.9613 771.083 Q38.8774 771.258 37.6158 771.819 Q35.6534 772.695 34.5319 774.447 Q33.4105 776.165 33.4105 778.057 Q33.4105 780.966 35.6884 783.279 Q37.9312 785.556 41.9613 785.942 Z" fill="#000000" fill-rule="nonzero" fill-opacity="1"></path><path clip-path="url(#clip700)" d="M30.9574 750.092 L38.1765 750.092 Q30.9574 746.062 30.9574 741.821 Q30.9574 739.894 32.1489 738.632 Q33.3054 737.371 34.8473 737.371 Q36.2141 737.371 37.1603 738.282 Q38.1065 739.193 38.1065 740.454 Q38.1065 741.681 36.915 743.223 Q35.6884 744.73 35.6884 745.466 Q35.6884 746.097 36.3893 746.833 Q37.8261 748.41 41.1203 750.092 L56.5047 750.092 Q59.1681 750.092 60.5348 749.426 Q61.481 748.97 62.1118 747.814 Q62.7426 746.657 62.7426 744.485 L64.0042 744.485 L64.0042 760.92 L62.7426 760.92 Q62.7426 758.467 61.9716 757.276 Q61.4109 756.4 60.1843 756.049 Q59.5886 755.874 56.785 755.874 L44.3443 755.874 Q38.7373 755.874 37.6859 756.119 Q36.5996 756.33 36.1089 756.96 Q35.6183 757.556 35.6183 758.467 Q35.6183 759.554 36.144 760.92 L34.8824 761.271 L30.9574 751.564 L30.9574 750.092 Z" fill="#000000" fill-rule="nonzero" fill-opacity="1"></path><path clip-path="url(#clip700)" d="M15.3978 686.977 L31.8335 686.977 L31.8335 688.274 Q27.1026 688.904 24.299 690.551 Q21.4955 692.164 19.8484 695.177 Q18.2013 698.191 18.2013 701.415 Q18.2013 705.06 20.4442 707.443 Q22.6519 709.826 25.4905 709.826 Q27.6633 709.826 29.4505 708.319 Q32.0788 706.146 36.4594 697.981 Q40.0339 691.322 41.9613 688.904 Q43.8537 686.451 46.447 685.155 Q49.0403 683.823 51.8788 683.823 Q57.2757 683.823 61.2006 688.028 Q65.0905 692.199 65.0905 698.787 Q65.0905 700.854 64.7751 702.677 Q64.5999 703.763 63.5135 707.197 Q62.3921 710.597 62.3921 711.508 Q62.3921 712.384 62.9178 712.91 Q63.4434 713.4 65.0905 713.646 L65.0905 714.942 L48.795 714.942 L48.795 713.646 Q53.9114 712.734 56.4696 711.193 Q58.9928 709.651 60.675 706.497 Q62.3571 703.308 62.3571 699.523 Q62.3571 695.142 60.0442 692.619 Q57.7312 690.061 54.5773 690.061 Q52.825 690.061 51.0378 691.042 Q49.2505 691.988 47.7086 694.021 Q46.6573 695.388 43.258 701.485 Q39.8236 707.583 37.7911 710.176 Q35.7585 712.734 33.3054 714.066 Q30.8523 715.398 27.9086 715.398 Q22.7921 715.398 19.1125 711.473 Q15.3978 707.548 15.3978 701.485 Q15.3978 697.7 17.2551 693.46 Q18.1312 691.498 18.1312 690.692 Q18.1312 689.78 17.6056 689.22 Q17.0449 688.624 15.3978 688.274 L15.3978 686.977 Z" fill="#000000" fill-rule="nonzero" fill-opacity="1"></path><path clip-path="url(#clip700)" d="M30.9574 662.025 Q30.9574 654.736 36.4944 650.321 Q41.2254 646.571 47.3581 646.571 Q51.6686 646.571 56.0842 648.639 Q60.4997 650.706 62.7426 654.351 Q64.9854 657.96 64.9854 662.411 Q64.9854 669.665 59.2031 673.94 Q54.3319 677.55 48.2693 677.55 Q43.8537 677.55 39.5082 675.377 Q35.1277 673.17 33.0601 669.595 Q30.9574 666.02 30.9574 662.025 M33.2353 663.112 Q33.2353 664.969 34.3567 666.862 Q35.4431 668.719 38.2116 669.875 Q40.9801 671.032 45.3256 671.032 Q52.3344 671.032 57.4158 668.263 Q62.4973 665.46 62.4973 660.904 Q62.4973 657.505 59.6937 655.297 Q56.8902 653.089 50.0565 653.089 Q41.5058 653.089 36.5996 656.769 Q33.2353 659.257 33.2353 663.112 Z" fill="#000000" fill-rule="nonzero" fill-opacity="1"></path><path clip-path="url(#clip700)" d="M14.1712 630.801 L56.75 630.801 Q59.7638 630.801 60.745 630.38 Q61.7263 629.925 62.2519 629.014 Q62.7426 628.103 62.7426 625.614 L64.0042 625.614 L64.0042 641.349 L62.7426 641.349 Q62.7426 639.142 62.287 638.336 Q61.8314 637.53 60.7801 637.074 Q59.7288 636.618 56.75 636.618 L27.5932 636.618 Q22.1613 636.618 20.9348 636.864 Q19.6732 637.109 19.2176 637.67 Q18.762 638.195 18.762 639.036 Q18.762 639.948 19.3227 641.349 L18.0962 641.945 L14.1712 632.378 L14.1712 630.801 Z" fill="#000000" fill-rule="nonzero" fill-opacity="1"></path><path clip-path="url(#clip700)" d="M31.9036 593.759 L51.3532 593.759 Q56.9252 593.759 58.1868 593.514 Q59.4134 593.234 59.904 592.673 Q60.3946 592.077 60.3946 591.306 Q60.3946 590.22 59.7988 588.853 L61.0254 588.362 L64.9854 597.965 L64.9854 599.542 L58.1868 599.542 Q62.6725 603.677 63.8289 605.85 Q64.9854 608.022 64.9854 610.44 Q64.9854 613.139 63.4434 615.136 Q61.8665 617.099 59.4134 617.87 Q56.9603 618.641 52.4746 618.641 L38.1415 618.641 Q35.8636 618.641 34.9875 619.131 Q34.1114 619.622 33.6558 620.603 Q33.1652 621.549 33.2003 624.073 L31.9036 624.073 L31.9036 612.823 L53.3858 612.823 Q57.8714 612.823 59.2732 611.281 Q60.675 609.704 60.675 607.497 Q60.675 605.99 59.7288 604.097 Q58.7826 602.17 56.1192 599.542 L37.9312 599.542 Q35.1978 599.542 34.2516 600.558 Q33.2704 601.539 33.2003 604.693 L31.9036 604.693 L31.9036 593.759 Z" fill="#000000" fill-rule="nonzero" fill-opacity="1"></path><path clip-path="url(#clip700)" d="M21.3553 576.693 L31.9036 576.693 L31.9036 569.193 L34.3567 569.193 L34.3567 576.693 L55.173 576.693 Q58.2919 576.693 59.3783 575.817 Q60.4647 574.905 60.4647 573.504 Q60.4647 572.347 59.7638 571.261 Q59.0279 570.174 57.6261 569.579 L57.6261 568.212 Q61.0604 569.439 62.8127 571.681 Q64.5298 573.924 64.5298 576.307 Q64.5298 577.919 63.6537 579.461 Q62.7426 581.003 61.0955 581.739 Q59.4134 582.475 55.944 582.475 L34.3567 582.475 L34.3567 587.556 L33.2003 587.556 Q32.4293 585.629 30.607 583.631 Q28.7496 581.599 26.2265 580.022 Q24.8948 579.216 21.3553 577.779 L21.3553 576.693 Z" fill="#000000" fill-rule="nonzero" fill-opacity="1"></path><path clip-path="url(#clip700)" d="M14.1712 557.909 Q14.1712 556.437 15.2226 555.421 Q16.2388 554.37 17.7107 554.37 Q19.1826 554.37 20.2339 555.421 Q21.2852 556.437 21.2852 557.909 Q21.2852 559.381 20.2339 560.432 Q19.1826 561.484 17.7107 561.484 Q16.2388 561.484 15.2226 560.467 Q14.1712 559.416 14.1712 557.909 M30.9574 555 L56.75 555 Q59.7638 555 60.7801 554.58 Q61.7613 554.124 62.2519 553.283 Q62.7426 552.407 62.7426 550.129 L64.0042 550.129 L64.0042 565.724 L62.7426 565.724 Q62.7426 563.376 62.287 562.57 Q61.8314 561.764 60.7801 561.308 Q59.7288 560.818 56.75 560.818 L44.3794 560.818 Q39.1578 560.818 37.6158 561.133 Q36.4944 561.378 36.0739 561.904 Q35.6183 562.43 35.6183 563.341 Q35.6183 564.322 36.144 565.724 L34.8824 566.214 L30.9574 556.542 L30.9574 555 Z" fill="#000000" fill-rule="nonzero" fill-opacity="1"></path><path clip-path="url(#clip700)" d="M30.9574 530.434 Q30.9574 523.145 36.4944 518.73 Q41.2254 514.98 47.3581 514.98 Q51.6686 514.98 56.0842 517.047 Q60.4997 519.115 62.7426 522.76 Q64.9854 526.369 64.9854 530.82 Q64.9854 538.074 59.2031 542.349 Q54.3319 545.959 48.2693 545.959 Q43.8537 545.959 39.5082 543.786 Q35.1277 541.578 33.0601 538.004 Q30.9574 534.429 30.9574 530.434 M33.2353 531.521 Q33.2353 533.378 34.3567 535.27 Q35.4431 537.128 38.2116 538.284 Q40.9801 539.441 45.3256 539.441 Q52.3344 539.441 57.4158 536.672 Q62.4973 533.869 62.4973 529.313 Q62.4973 525.914 59.6937 523.706 Q56.8902 521.498 50.0565 521.498 Q41.5058 521.498 36.5996 525.178 Q33.2353 527.666 33.2353 531.521 Z" fill="#000000" fill-rule="nonzero" fill-opacity="1"></path><path clip-path="url(#clip700)" d="M37.756 500.892 Q30.9574 495.25 30.9574 490.133 Q30.9574 487.505 32.2891 485.613 Q33.5858 483.72 36.5996 482.599 Q38.7022 481.828 43.0477 481.828 L56.75 481.828 Q59.7988 481.828 60.8852 481.337 Q61.7613 480.952 62.2519 480.111 Q62.7426 479.235 62.7426 476.922 L64.0042 476.922 L64.0042 492.797 L62.7426 492.797 L62.7426 492.131 Q62.7426 489.888 62.0767 489.012 Q61.3758 488.101 60.0442 487.75 Q59.5185 487.61 56.75 487.61 L43.6084 487.61 Q39.2279 487.61 37.2654 488.767 Q35.2679 489.888 35.2679 492.587 Q35.2679 496.757 39.8236 500.892 L56.75 500.892 Q60.0091 500.892 60.7801 500.507 Q61.7964 500.016 62.287 499.175 Q62.7426 498.299 62.7426 495.67 L64.0042 495.67 L64.0042 511.545 L62.7426 511.545 L62.7426 510.845 Q62.7426 508.391 61.516 507.55 Q60.2544 506.674 56.75 506.674 L44.835 506.674 Q39.0527 506.674 37.7911 506.955 Q36.5295 507.2 36.0739 507.761 Q35.6183 508.286 35.6183 509.197 Q35.6183 510.179 36.144 511.545 L34.8824 512.071 L30.9574 502.399 L30.9574 500.892 L37.756 500.892 Z" fill="#000000" fill-rule="nonzero" fill-opacity="1"></path><path clip-path="url(#clip700)" d="M30.9574 453.617 L41.8912 453.617 L41.8912 454.774 Q36.7397 456.105 34.8824 458.208 Q33.025 460.276 33.025 463.5 Q33.025 465.953 34.3217 467.46 Q35.6183 468.967 37.1953 468.967 Q39.1578 468.967 40.5596 467.845 Q41.9964 466.759 43.6084 463.43 L46.0965 458.313 Q49.5659 451.199 55.2431 451.199 Q59.6236 451.199 62.322 454.528 Q64.9854 457.823 64.9854 461.923 Q64.9854 464.867 63.9341 468.651 Q63.5836 469.808 63.5836 470.544 Q63.5836 471.35 64.4948 471.805 L64.4948 472.962 L53.0353 472.962 L53.0353 471.805 Q57.9415 470.824 60.4296 468.056 Q62.9178 465.287 62.9178 461.853 Q62.9178 459.435 61.516 457.928 Q60.0792 456.386 58.0817 456.386 Q55.6636 456.386 54.0165 458.103 Q52.3695 459.785 49.8463 464.867 Q47.3231 469.948 45.2905 471.525 Q43.293 473.102 40.2442 473.102 Q36.2842 473.102 33.6208 470.404 Q30.9574 467.67 30.9574 463.36 Q30.9574 461.467 31.7634 458.769 Q32.2891 456.982 32.2891 456.386 Q32.2891 455.825 32.0438 455.51 Q31.7985 455.194 30.9574 454.774 L30.9574 453.617 Z" fill="#000000" fill-rule="nonzero" fill-opacity="1"></path><path clip-path="url(#clip700)" d="M1067.79 9.15228 Q1069.67 9.15228 1070.96 10.4903 Q1072.3 11.7838 1072.3 13.6571 Q1072.3 15.5303 1070.96 16.8684 Q1069.67 18.2064 1067.79 18.2064 Q1065.92 18.2064 1064.58 16.8684 Q1063.24 15.5303 1063.24 13.6571 Q1063.24 11.7838 1064.54 10.4903 Q1065.88 9.15228 1067.79 9.15228 M1071.5 30.5165 L1071.5 63.3434 Q1071.5 67.1792 1072.03 68.4726 Q1072.61 69.7215 1073.68 70.3459 Q1074.8 70.9703 1077.69 70.9703 L1077.69 72.576 L1057.85 72.576 L1057.85 70.9703 Q1060.84 70.9703 1061.86 70.3905 Q1062.89 69.8107 1063.47 68.4726 Q1064.09 67.1346 1064.09 63.3434 L1064.09 47.599 Q1064.09 40.9533 1063.69 38.9909 Q1063.38 37.5636 1062.71 37.0284 Q1062.04 36.4486 1060.88 36.4486 Q1059.63 36.4486 1057.85 37.1176 L1057.22 35.5119 L1069.53 30.5165 L1071.5 30.5165 Z" fill="#000000" fill-rule="nonzero" fill-opacity="1"></path><path clip-path="url(#clip700)" d="M1094.69 39.1693 Q1101.87 30.5165 1108.38 30.5165 Q1111.73 30.5165 1114.13 32.2114 Q1116.54 33.8617 1117.97 37.6974 Q1118.95 40.3735 1118.95 45.9041 L1118.95 63.3434 Q1118.95 67.2238 1119.58 68.6064 Q1120.07 69.7215 1121.14 70.3459 Q1122.25 70.9703 1125.2 70.9703 L1125.2 72.576 L1104.99 72.576 L1104.99 70.9703 L1105.84 70.9703 Q1108.69 70.9703 1109.81 70.1229 Q1110.97 69.2309 1111.41 67.536 Q1111.59 66.867 1111.59 63.3434 L1111.59 46.6178 Q1111.59 41.0425 1110.12 38.5448 Q1108.69 36.0025 1105.26 36.0025 Q1099.95 36.0025 1094.69 41.8008 L1094.69 63.3434 Q1094.69 67.4914 1095.18 68.4726 Q1095.8 69.7661 1096.87 70.3905 Q1097.99 70.9703 1101.33 70.9703 L1101.33 72.576 L1081.13 72.576 L1081.13 70.9703 L1082.02 70.9703 Q1085.14 70.9703 1086.21 69.4093 Q1087.33 67.8036 1087.33 63.3434 L1087.33 48.1788 Q1087.33 40.8195 1086.97 39.2139 Q1086.66 37.6082 1085.95 37.0284 Q1085.28 36.4486 1084.12 36.4486 Q1082.87 36.4486 1081.13 37.1176 L1080.46 35.5119 L1092.77 30.5165 L1094.69 30.5165 L1094.69 39.1693 Z" fill="#000000" fill-rule="nonzero" fill-opacity="1"></path><path clip-path="url(#clip700)" d="M1154.86 30.5165 L1154.86 44.4323 L1153.38 44.4323 Q1151.69 37.8758 1149.01 35.5119 Q1146.38 33.148 1142.28 33.148 Q1139.16 33.148 1137.24 34.7983 Q1135.32 36.4486 1135.32 38.4556 Q1135.32 40.9533 1136.75 42.7374 Q1138.13 44.5661 1142.37 46.6178 L1148.88 49.7845 Q1157.93 54.2001 1157.93 61.4256 Q1157.93 67.0008 1153.7 70.4351 Q1149.5 73.8248 1144.29 73.8248 Q1140.54 73.8248 1135.72 72.4868 Q1134.25 72.0408 1133.31 72.0408 Q1132.29 72.0408 1131.71 73.2004 L1130.24 73.2004 L1130.24 58.6156 L1131.71 58.6156 Q1132.96 64.8599 1136.48 68.0266 Q1140 71.1933 1144.37 71.1933 Q1147.45 71.1933 1149.37 69.4093 Q1151.33 67.5806 1151.33 65.0383 Q1151.33 61.9608 1149.15 59.8645 Q1147.01 57.7682 1140.54 54.5569 Q1134.07 51.3456 1132.06 48.7587 Q1130.06 46.2164 1130.06 42.336 Q1130.06 37.296 1133.49 33.9063 Q1136.97 30.5165 1142.46 30.5165 Q1144.87 30.5165 1148.3 31.5424 Q1150.57 32.2114 1151.33 32.2114 Q1152.05 32.2114 1152.45 31.8992 Q1152.85 31.587 1153.38 30.5165 L1154.86 30.5165 Z" fill="#000000" fill-rule="nonzero" fill-opacity="1"></path><path clip-path="url(#clip700)" d="M1175.86 18.2956 L1175.86 31.7208 L1185.41 31.7208 L1185.41 34.8429 L1175.86 34.8429 L1175.86 61.3364 Q1175.86 65.3059 1176.98 66.6886 Q1178.14 68.0712 1179.92 68.0712 Q1181.39 68.0712 1182.78 67.1792 Q1184.16 66.2425 1184.92 64.4585 L1186.66 64.4585 Q1185.1 68.8295 1182.24 71.0595 Q1179.39 73.245 1176.35 73.245 Q1174.3 73.245 1172.34 72.13 Q1170.38 70.9703 1169.44 68.8741 Q1168.5 66.7332 1168.5 62.3176 L1168.5 34.8429 L1162.04 34.8429 L1162.04 33.371 Q1164.49 32.3898 1167.03 30.0705 Q1169.62 27.7066 1171.63 24.4953 Q1172.65 22.8004 1174.48 18.2956 L1175.86 18.2956 Z" fill="#000000" fill-rule="nonzero" fill-opacity="1"></path><path clip-path="url(#clip700)" d="M1233 92.29 L1185.77 92.29 L1185.77 88.5434 L1233 88.5434 L1233 92.29 Z" fill="#000000" fill-rule="nonzero" fill-opacity="1"></path><path clip-path="url(#clip700)" d="M1242.9 18.028 L1257.62 10.8472 L1259.09 10.8472 L1259.09 61.9162 Q1259.09 67.0008 1259.49 68.2496 Q1259.94 69.4985 1261.28 70.1675 Q1262.61 70.8365 1266.72 70.9257 L1266.72 72.576 L1243.97 72.576 L1243.97 70.9257 Q1248.25 70.8365 1249.5 70.2121 Q1250.75 69.5431 1251.24 68.4726 Q1251.73 67.3576 1251.73 61.9162 L1251.73 29.2677 Q1251.73 22.6666 1251.29 20.7933 Q1250.97 19.3661 1250.13 18.6971 Q1249.32 18.028 1248.16 18.028 Q1246.51 18.028 1243.57 19.4107 L1242.9 18.028 Z" fill="#000000" fill-rule="nonzero" fill-opacity="1"></path><path clip-path="url(#clip700)" d="M1281.17 42.6928 Q1281.17 32.3452 1284.29 24.8967 Q1287.41 17.4036 1292.59 13.7463 Q1296.6 10.8472 1300.88 10.8472 Q1307.84 10.8472 1313.37 17.9388 Q1320.28 26.7254 1320.28 41.7562 Q1320.28 52.2822 1317.25 59.6415 Q1314.22 67.0008 1309.49 70.3459 Q1304.81 73.6464 1300.44 73.6464 Q1291.78 73.6464 1286.03 63.4326 Q1281.17 54.8245 1281.17 42.6928 M1289.91 43.8079 Q1289.91 56.2964 1292.99 64.1909 Q1295.53 70.8365 1300.57 70.8365 Q1302.98 70.8365 1305.57 68.6956 Q1308.15 66.5102 1309.49 61.4256 Q1311.54 53.7541 1311.54 39.7937 Q1311.54 29.4461 1309.4 22.5328 Q1307.8 17.4036 1305.25 15.2627 Q1303.42 13.7909 1300.84 13.7909 Q1297.8 13.7909 1295.44 16.5116 Q1292.23 20.2135 1291.07 28.1526 Q1289.91 36.0918 1289.91 43.8079 Z" fill="#000000" fill-rule="nonzero" fill-opacity="1"></path><path clip-path="url(#clip700)" d="M1326.84 42.6928 Q1326.84 32.3452 1329.96 24.8967 Q1333.08 17.4036 1338.26 13.7463 Q1342.27 10.8472 1346.55 10.8472 Q1353.51 10.8472 1359.04 17.9388 Q1365.96 26.7254 1365.96 41.7562 Q1365.96 52.2822 1362.92 59.6415 Q1359.89 67.0008 1355.16 70.3459 Q1350.48 73.6464 1346.11 73.6464 Q1337.46 73.6464 1331.7 63.4326 Q1326.84 54.8245 1326.84 42.6928 M1335.58 43.8079 Q1335.58 56.2964 1338.66 64.1909 Q1341.2 70.8365 1346.24 70.8365 Q1348.65 70.8365 1351.24 68.6956 Q1353.82 66.5102 1355.16 61.4256 Q1357.21 53.7541 1357.21 39.7937 Q1357.21 29.4461 1355.07 22.5328 Q1353.47 17.4036 1350.93 15.2627 Q1349.1 13.7909 1346.51 13.7909 Q1343.48 13.7909 1341.11 16.5116 Q1337.9 20.2135 1336.74 28.1526 Q1335.58 36.0918 1335.58 43.8079 Z" fill="#000000" fill-rule="nonzero" fill-opacity="1"></path><path clip-path="url(#clip700)" d="M1415.69 92.29 L1368.45 92.29 L1368.45 88.5434 L1415.69 88.5434 L1415.69 92.29 Z" fill="#000000" fill-rule="nonzero" fill-opacity="1"></path><path clip-path="url(#clip700)" d="M1425.59 18.028 L1440.31 10.8472 L1441.78 10.8472 L1441.78 61.9162 Q1441.78 67.0008 1442.18 68.2496 Q1442.63 69.4985 1443.96 70.1675 Q1445.3 70.8365 1449.41 70.9257 L1449.41 72.576 L1426.66 72.576 L1426.66 70.9257 Q1430.94 70.8365 1432.19 70.2121 Q1433.44 69.5431 1433.93 68.4726 Q1434.42 67.3576 1434.42 61.9162 L1434.42 29.2677 Q1434.42 22.6666 1433.97 20.7933 Q1433.66 19.3661 1432.81 18.6971 Q1432.01 18.028 1430.85 18.028 Q1429.2 18.028 1426.26 19.4107 L1425.59 18.028 Z" fill="#000000" fill-rule="nonzero" fill-opacity="1"></path><path clip-path="url(#clip700)" d="M1463.86 42.6928 Q1463.86 32.3452 1466.98 24.8967 Q1470.1 17.4036 1475.28 13.7463 Q1479.29 10.8472 1483.57 10.8472 Q1490.53 10.8472 1496.06 17.9388 Q1502.97 26.7254 1502.97 41.7562 Q1502.97 52.2822 1499.94 59.6415 Q1496.91 67.0008 1492.18 70.3459 Q1487.5 73.6464 1483.13 73.6464 Q1474.47 73.6464 1468.72 63.4326 Q1463.86 54.8245 1463.86 42.6928 M1472.6 43.8079 Q1472.6 56.2964 1475.68 64.1909 Q1478.22 70.8365 1483.26 70.8365 Q1485.67 70.8365 1488.25 68.6956 Q1490.84 66.5102 1492.18 61.4256 Q1494.23 53.7541 1494.23 39.7937 Q1494.23 29.4461 1492.09 22.5328 Q1490.48 17.4036 1487.94 15.2627 Q1486.11 13.7909 1483.53 13.7909 Q1480.49 13.7909 1478.13 16.5116 Q1474.92 20.2135 1473.76 28.1526 Q1472.6 36.0918 1472.6 43.8079 Z" fill="#000000" fill-rule="nonzero" fill-opacity="1"></path><path clip-path="url(#clip700)" d="M1552.7 92.29 L1505.47 92.29 L1505.47 88.5434 L1552.7 88.5434 L1552.7 92.29 Z" fill="#000000" fill-rule="nonzero" fill-opacity="1"></path><path clip-path="url(#clip700)" d="M1594.41 50.2751 L1594.41 56.6086 L1586.29 56.6086 L1586.29 72.576 L1578.93 72.576 L1578.93 56.6086 L1553.33 56.6086 L1553.33 50.8995 L1581.38 10.8472 L1586.29 10.8472 L1586.29 50.2751 L1594.41 50.2751 M1578.93 50.2751 L1578.93 20.2581 L1557.7 50.2751 L1578.93 50.2751 Z" fill="#000000" fill-rule="nonzero" fill-opacity="1"></path><polyline clip-path="url(#clip702)" style="stroke:#009af9; stroke-linecap:round; stroke-linejoin:round; stroke-width:4; stroke-opacity:1; fill:none" points="458.968,813.286 467.054,887.861 476.417,962.483 595.531,1076.7 714.682,1116.16 833.042,1323.39 958.779,1325.78 1079.59,1337.84 1148.21,1354.87 1281.44,1361.74 1409.37,1368 1891.15,1368.16 2129.37,1368.79 2294.63,1368.9 "></polyline>
<polyline clip-path="url(#clip702)" style="stroke:#e26f46; stroke-linecap:round; stroke-linejoin:round; stroke-width:4; stroke-opacity:1; fill:none" points="357.002,160.256 363.824,267.708 449.101,1356.14 452.512,1360.14 503.679,1383.85 524.145,1384.1 530.967,1385.03 1148.37,1386.14 1148.37,1386.18 1148.37,1386.4 "></polyline>
<path clip-path="url(#clip700)" d="M1956.9 322.316 L2284.29 322.316 L2284.29 166.796 L1956.9 166.796  Z" fill="#ffffff" fill-rule="evenodd" fill-opacity="1"></path>
<polyline clip-path="url(#clip700)" style="stroke:#000000; stroke-linecap:round; stroke-linejoin:round; stroke-width:4; stroke-opacity:1; fill:none" points="1956.9,322.316 2284.29,322.316 2284.29,166.796 1956.9,166.796 1956.9,322.316 "></polyline>
<polyline clip-path="url(#clip700)" style="stroke:#009af9; stroke-linecap:round; stroke-linejoin:round; stroke-width:4; stroke-opacity:1; fill:none" points="1979.72,218.636 2116.65,218.636 "></polyline>
<path clip-path="url(#clip700)" d="M2154.28 234.973 L2154.28 235.916 L2139.47 235.916 L2139.47 234.973 L2140.69 234.973 Q2142.83 234.973 2143.8 233.724 Q2144.41 232.908 2144.41 229.799 L2144.41 207.473 Q2144.41 204.847 2144.08 204.006 Q2143.83 203.369 2143.04 202.91 Q2141.91 202.299 2140.69 202.299 L2139.47 202.299 L2139.47 201.356 L2154.28 201.356 L2154.28 202.299 L2153.03 202.299 Q2150.91 202.299 2149.94 203.548 Q2149.31 204.363 2149.31 207.473 L2149.31 229.799 Q2149.31 232.424 2149.64 233.265 Q2149.89 233.902 2150.71 234.361 Q2151.8 234.973 2153.03 234.973 L2154.28 234.973 Z" fill="#000000" fill-rule="nonzero" fill-opacity="1"></path><path clip-path="url(#clip700)" d="M2166.25 219.732 L2166.25 229.799 Q2166.25 233.061 2166.97 233.851 Q2167.94 234.973 2169.9 234.973 L2171.22 234.973 L2171.22 235.916 L2156.42 235.916 L2156.42 234.973 L2157.72 234.973 Q2159.91 234.973 2160.85 233.545 Q2161.36 232.755 2161.36 229.799 L2161.36 207.473 Q2161.36 204.21 2160.67 203.42 Q2159.68 202.299 2157.72 202.299 L2156.42 202.299 L2156.42 201.356 L2169.08 201.356 Q2173.72 201.356 2176.4 202.324 Q2179.07 203.267 2180.91 205.536 Q2182.74 207.804 2182.74 210.913 Q2182.74 215.144 2179.94 217.795 Q2177.16 220.445 2172.06 220.445 Q2170.82 220.445 2169.36 220.267 Q2167.91 220.088 2166.25 219.732 M2166.25 218.279 Q2167.6 218.534 2168.65 218.661 Q2169.69 218.789 2170.43 218.789 Q2173.08 218.789 2175 216.75 Q2176.93 214.685 2176.93 211.423 Q2176.93 209.18 2176.02 207.269 Q2175.1 205.332 2173.42 204.389 Q2171.73 203.42 2169.59 203.42 Q2168.29 203.42 2166.25 203.904 L2166.25 218.279 Z" fill="#000000" fill-rule="nonzero" fill-opacity="1"></path><path clip-path="url(#clip700)" d="M2208.69 218.279 Q2212.28 219.044 2214.07 220.726 Q2216.54 223.07 2216.54 226.46 Q2216.54 229.034 2214.91 231.405 Q2213.28 233.749 2210.42 234.845 Q2207.59 235.916 2201.76 235.916 L2185.45 235.916 L2185.45 234.973 L2186.75 234.973 Q2188.91 234.973 2189.85 233.596 Q2190.44 232.704 2190.44 229.799 L2190.44 207.473 Q2190.44 204.261 2189.7 203.42 Q2188.71 202.299 2186.75 202.299 L2185.45 202.299 L2185.45 201.356 L2200.38 201.356 Q2204.56 201.356 2207.08 201.967 Q2210.91 202.885 2212.92 205.23 Q2214.93 207.549 2214.93 210.582 Q2214.93 213.182 2213.35 215.246 Q2211.77 217.285 2208.69 218.279 M2195.33 216.903 Q2196.28 217.081 2197.48 217.183 Q2198.7 217.259 2200.15 217.259 Q2203.87 217.259 2205.73 216.469 Q2207.62 215.654 2208.61 213.997 Q2209.61 212.34 2209.61 210.378 Q2209.61 207.345 2207.13 205.204 Q2204.66 203.063 2199.92 203.063 Q2197.37 203.063 2195.33 203.624 L2195.33 216.903 M2195.33 233.418 Q2198.29 234.106 2201.17 234.106 Q2205.78 234.106 2208.2 232.042 Q2210.63 229.952 2210.63 226.893 Q2210.63 224.88 2209.53 223.019 Q2208.43 221.159 2205.96 220.088 Q2203.49 219.018 2199.85 219.018 Q2198.27 219.018 2197.14 219.069 Q2196.02 219.12 2195.33 219.247 L2195.33 233.418 Z" fill="#000000" fill-rule="nonzero" fill-opacity="1"></path><polyline clip-path="url(#clip700)" style="stroke:#e26f46; stroke-linecap:round; stroke-linejoin:round; stroke-width:4; stroke-opacity:1; fill:none" points="1979.72,270.476 2116.65,270.476 "></polyline>
<path clip-path="url(#clip700)" d="M2159.96 287.756 L2146.6 258.675 L2146.6 281.766 Q2146.6 284.952 2147.29 285.742 Q2148.23 286.813 2150.27 286.813 L2151.5 286.813 L2151.5 287.756 L2139.47 287.756 L2139.47 286.813 L2140.69 286.813 Q2142.88 286.813 2143.8 285.487 Q2144.36 284.672 2144.36 281.766 L2144.36 259.185 Q2144.36 256.891 2143.85 255.872 Q2143.49 255.133 2142.53 254.648 Q2141.58 254.139 2139.47 254.139 L2139.47 253.196 L2149.25 253.196 L2161.79 280.237 L2174.13 253.196 L2183.92 253.196 L2183.92 254.139 L2182.72 254.139 Q2180.5 254.139 2179.58 255.464 Q2179.02 256.28 2179.02 259.185 L2179.02 281.766 Q2179.02 284.952 2179.74 285.742 Q2180.68 286.813 2182.72 286.813 L2183.92 286.813 L2183.92 287.756 L2169.24 287.756 L2169.24 286.813 L2170.46 286.813 Q2172.68 286.813 2173.57 285.487 Q2174.13 284.672 2174.13 281.766 L2174.13 258.675 L2160.8 287.756 L2159.96 287.756 Z" fill="#000000" fill-rule="nonzero" fill-opacity="1"></path><path clip-path="url(#clip700)" d="M2201.12 286.813 L2201.12 287.756 L2186.31 287.756 L2186.31 286.813 L2187.54 286.813 Q2189.68 286.813 2190.64 285.564 Q2191.26 284.748 2191.26 281.639 L2191.26 259.313 Q2191.26 256.687 2190.92 255.846 Q2190.67 255.209 2189.88 254.75 Q2188.76 254.139 2187.54 254.139 L2186.31 254.139 L2186.31 253.196 L2201.12 253.196 L2201.12 254.139 L2199.87 254.139 Q2197.76 254.139 2196.79 255.388 Q2196.15 256.203 2196.15 259.313 L2196.15 281.639 Q2196.15 284.264 2196.48 285.105 Q2196.74 285.742 2197.55 286.201 Q2198.65 286.813 2199.87 286.813 L2201.12 286.813 Z" fill="#000000" fill-rule="nonzero" fill-opacity="1"></path><path clip-path="url(#clip700)" d="M2232.32 278.198 L2233.16 278.377 L2230.2 287.756 L2203.44 287.756 L2203.44 286.813 L2204.74 286.813 Q2206.93 286.813 2207.87 285.385 Q2208.41 284.57 2208.41 281.613 L2208.41 259.313 Q2208.41 256.076 2207.7 255.26 Q2206.7 254.139 2204.74 254.139 L2203.44 254.139 L2203.44 253.196 L2219.09 253.196 L2219.09 254.139 Q2216.34 254.113 2215.21 254.648 Q2214.12 255.184 2213.71 255.999 Q2213.3 256.815 2213.3 259.899 L2213.3 281.613 Q2213.3 283.729 2213.71 284.519 Q2214.02 285.054 2214.65 285.309 Q2215.29 285.564 2218.63 285.564 L2221.15 285.564 Q2225.13 285.564 2226.73 284.978 Q2228.34 284.391 2229.66 282.913 Q2230.99 281.41 2232.32 278.198 Z" fill="#000000" fill-rule="nonzero" fill-opacity="1"></path><path clip-path="url(#clip700)" d="M2244.98 271.572 L2244.98 281.639 Q2244.98 284.901 2245.7 285.691 Q2246.66 286.813 2248.63 286.813 L2249.95 286.813 L2249.95 287.756 L2235.14 287.756 L2235.14 286.813 L2236.44 286.813 Q2238.64 286.813 2239.58 285.385 Q2240.09 284.595 2240.09 281.639 L2240.09 259.313 Q2240.09 256.05 2239.4 255.26 Q2238.41 254.139 2236.44 254.139 L2235.14 254.139 L2235.14 253.196 L2247.81 253.196 Q2252.45 253.196 2255.13 254.164 Q2257.8 255.107 2259.64 257.376 Q2261.47 259.644 2261.47 262.753 Q2261.47 266.984 2258.67 269.635 Q2255.89 272.285 2250.79 272.285 Q2249.54 272.285 2248.09 272.107 Q2246.64 271.928 2244.98 271.572 M2244.98 270.119 Q2246.33 270.374 2247.38 270.501 Q2248.42 270.629 2249.16 270.629 Q2251.81 270.629 2253.72 268.59 Q2255.66 266.525 2255.66 263.263 Q2255.66 261.02 2254.74 259.109 Q2253.83 257.172 2252.14 256.229 Q2250.46 255.26 2248.32 255.26 Q2247.02 255.26 2244.98 255.744 L2244.98 270.119 Z" fill="#000000" fill-rule="nonzero" fill-opacity="1"></path></svg>